<?xml version="1.0" encoding="UTF-8" standalone="no"?>
<!DOCTYPE svg PUBLIC "-//W3C//DTD SVG 1.1//EN" "http://www.w3.org/Graphics/SVG/1.1/DTD/svg11.dtd">
<svg xmlns="http://www.w3.org/2000/svg" version="1.1" viewBox="0.00 0.00 256.00 512.00">
<path fill="#1b1d33" d="
  M 50.51 468.99
  C 91.02 399.28 131.23 329.38 171.58 259.57
  C 172.59 257.82 173.67 256.22 172.57 254.10
  C 171.61 252.25 170.46 250.56 169.42 248.76
  Q 110.07 146.02 50.74 43.27
  Q 43.83 31.30 50.01 18.57
  Q 52.31 13.85 55.10 11.40
  Q 67.31 0.73 82.00 5.70
  C 88.83 8.01 93.72 13.50 97.30 19.70
  Q 160.62 129.49 223.94 239.01
  Q 226.65 243.71 227.47 247.66
  C 229.16 255.84 228.47 265.18 224.39 272.25
  Q 161.46 381.13 96.59 493.57
  Q 88.75 507.15 73.76 507.95
  Q 71.18 508.09 68.76 507.54
  Q 51.00 503.52 47.47 485.71
  C 46.38 480.21 47.93 473.43 50.51 468.99
  Z"
/>
</svg>
