<?xml version="1.0" encoding="UTF-8" standalone="no"?>
<!DOCTYPE svg PUBLIC "-//W3C//DTD SVG 1.1//EN" "http://www.w3.org/Graphics/SVG/1.1/DTD/svg11.dtd">
<svg xmlns="http://www.w3.org/2000/svg" version="1.1" viewBox="0.00 0.00 256.00 512.00">
<path fill="#1b1d33" d="
  M 132.90 64.58
  C 142.07 48.73 151.17 32.48 160.35 17.09
  Q 166.17 7.34 177.39 4.70
  C 188.01 2.20 200.62 7.84 205.50 17.56
  Q 208.82 24.19 208.95 30.08
  C 209.08 35.99 206.33 41.64 203.18 47.08
  Q 142.78 151.43 83.41 254.33
  A 3.44 3.42 -45.1 0 0 83.41 257.76
  Q 144.28 363.12 204.81 467.89
  C 207.68 472.86 209.74 479.30 208.66 485.12
  C 207.33 492.30 204.10 498.74 198.06 502.90
  Q 186.08 511.14 172.84 505.91
  C 167.40 503.77 162.71 499.18 159.83 494.19
  Q 96.04 383.66 32.18 273.20
  Q 29.41 268.42 28.55 264.31
  C 26.92 256.56 27.33 247.26 31.42 240.18
  Q 83.01 150.79 132.90 64.58
  Z"
/>
</svg>
