<?xml version="1.0" encoding="UTF-8" standalone="no"?>
<!DOCTYPE svg PUBLIC "-//W3C//DTD SVG 1.1//EN" "http://www.w3.org/Graphics/SVG/1.1/DTD/svg11.dtd">
<svg xmlns="http://www.w3.org/2000/svg" version="1.1" viewBox="0.00 0.00 1062.00 1062.00">
<g stroke-width="2.00" fill="none" stroke-linecap="butt">
<path stroke="#3c3127" vector-effect="non-scaling-stroke" d="
  M 169.26 147.97
  L 137.08 164.43"
/>
<path stroke="#2e1f18" vector-effect="non-scaling-stroke" d="
  M 137.08 164.43
  Q 136.91 164.20 136.66 164.20"
/>
<path stroke="#36281f" vector-effect="non-scaling-stroke" d="
  M 136.66 164.20
  L 121.32 113.50
  A 0.89 0.88 -23.2 0 0 120.04 112.99
  L 91.73 129.16
  A 1.71 1.70 66.8 0 0 90.95 131.13
  L 106.08 180.38"
/>
<path stroke="#2e1f18" vector-effect="non-scaling-stroke" d="
  M 106.08 180.38
  Q 113.52 204.93 121.17 229.77
  Q 121.28 230.11 121.04 230.87"
/>
<path stroke="#36281f" vector-effect="non-scaling-stroke" d="
  M 121.04 230.87
  L 92.94 244.27
  A 0.82 0.81 68.9 0 0 92.51 245.25
  L 107.18 292.23
  Q 107.33 292.73 107.82 292.52
  L 135.71 280.81
  A 1.03 1.02 -19.8 0 1 137.08 281.45
  L 151.48 327.97
  Q 151.86 329.22 153.08 328.75
  Q 166.86 323.54 181.56 318.30
  Q 181.98 318.15 183.16 318.27"
/>
<path stroke="#3c3127" vector-effect="non-scaling-stroke" d="
  M 183.16 318.27
  L 197.58 365.83
  A 1.29 1.29 0.0 0 0 199.20 366.68
  L 230.25 356.79
  A 0.91 0.90 73.2 0 1 231.38 357.40
  L 245.55 405.17
  A 1.52 1.52 0.0 0 0 247.41 406.19
  L 266.21 400.99"
/>
<path stroke="#3d2c20" vector-effect="non-scaling-stroke" d="
  M 266.21 400.99
  L 266.02 405.68"
/>
<path stroke="#35231c" vector-effect="non-scaling-stroke" d="
  M 266.02 405.68
  L 266.05 451.04"
/>
<path stroke="#101010" vector-effect="non-scaling-stroke" d="
  M 266.05 451.04
  L 266.10 491.40"
/>
<path stroke="#3d2c20" vector-effect="non-scaling-stroke" d="
  M 266.10 491.40
  L 191.76 495.47"
/>
<path stroke="#35231c" vector-effect="non-scaling-stroke" d="
  M 191.76 495.47
  L 144.67 498.04
  A 0.71 0.71 0.0 0 0 144.00 498.75
  L 144.00 541.24
  A 1.09 1.08 -88.6 0 0 145.03 542.33
  L 191.87 544.78"
/>
<path stroke="#3d2c20" vector-effect="non-scaling-stroke" d="
  M 191.87 544.78
  L 266.53 548.65"
/>
<path stroke="#09090b" vector-effect="non-scaling-stroke" d="
  M 266.53 548.65
  L 266.01 588.95"
/>
<path stroke="#0d0d0f" vector-effect="non-scaling-stroke" d="
  M 266.01 588.95
  L 266.01 724.27
  A 1.23 1.22 10.5 0 0 266.80 725.41
  Q 362.96 761.35 459.46 797.25
  Q 469.61 801.03 474.48 802.44"
/>
<path stroke="#524c5c" vector-effect="non-scaling-stroke" d="
  M 474.48 802.44
  L 486.37 848.61
  A 0.71 0.70 71.7 0 0 487.32 849.09
  L 581.64 810.57
  A 0.47 0.45 71.6 0 0 581.90 810.03
  L 574.81 783.35"
/>
<path stroke="#65606e" vector-effect="non-scaling-stroke" d="
  M 574.81 783.35
  L 730.03 752.60"
/>
<path stroke="#121113" vector-effect="non-scaling-stroke" d="
  M 730.03 752.60
  L 757.28 746.83"
/>
<path stroke="#524c5c" vector-effect="non-scaling-stroke" d="
  M 757.28 746.83
  L 759.91 770.67
  Q 759.97 771.21 760.51 771.19
  L 826.15 769.95
  A 0.58 0.57 86.0 0 0 826.71 769.30
  L 820.46 720.69
  Q 820.38 720.09 819.78 720.09
  L 794.91 720.06"
/>
<path stroke="#121113" vector-effect="non-scaling-stroke" d="
  M 794.91 720.06
  Q 794.81 706.43 795.67 676.19
  Q 796.36 651.65 795.93 594.63"
/>
<path stroke="#0d0d0f" vector-effect="non-scaling-stroke" d="
  M 795.93 594.63
  L 795.87 548.45"
/>
<path stroke="#513b2a" vector-effect="non-scaling-stroke" d="
  M 795.87 548.45
  L 850.07 546.98"
/>
<path stroke="#472e25" vector-effect="non-scaling-stroke" d="
  M 850.07 546.98
  L 939.39 544.86
  Q 940.00 544.85 940.00 544.24
  L 940.00 497.02
  A 1.41 1.40 -89.4 0 0 938.63 495.61
  L 850.07 493.27"
/>
<path stroke="#513b2a" vector-effect="non-scaling-stroke" d="
  M 850.07 493.27
  L 804.50 491.76"
/>
<path stroke="#0d0d0f" vector-effect="non-scaling-stroke" d="
  M 804.50 491.76
  L 835.90 374.93
  A 1.17 1.16 16.9 0 0 835.14 373.52
  L 795.78 360.40"
/>
<path stroke="#513b2a" vector-effect="non-scaling-stroke" d="
  M 795.78 360.40
  L 795.94 349.53
  Q 795.95 349.01 795.44 348.93
  L 731.10 338.81"
/>
<path stroke="#5f4532" vector-effect="non-scaling-stroke" d="
  M 731.10 338.81
  L 571.96 314.03"
/>
<path stroke="#513b2a" vector-effect="non-scaling-stroke" d="
  M 571.96 314.03
  L 474.05 298.83"
/>
<path stroke="#3d2c20" vector-effect="non-scaling-stroke" d="
  M 474.05 298.83
  L 408.47 318.18"
/>
<path stroke="#473425" vector-effect="non-scaling-stroke" d="
  M 408.47 318.18
  L 307.51 347.74"
/>
<path stroke="#1f100e" vector-effect="non-scaling-stroke" d="
  M 307.51 347.74
  L 303.28 333.17"
/>
<path stroke="#2e1f18" vector-effect="non-scaling-stroke" d="
  M 303.28 333.17
  Q 303.21 333.10 303.15 333.04"
/>
<path stroke="#36281f" vector-effect="non-scaling-stroke" d="
  M 303.15 333.04
  L 341.99 320.60
  A 0.54 0.54 0.0 0 0 342.34 319.94
  L 327.20 265.70
  A 1.09 1.09 0.0 0 0 325.78 264.97
  Q 307.11 271.84 288.51 278.79
  Q 288.11 278.94 287.54 278.51"
/>
<path stroke="#3c3127" vector-effect="non-scaling-stroke" d="
  M 287.54 278.51
  L 272.46 224.91
  Q 272.19 223.96 271.28 224.34
  L 235.60 239.15"
/>
<path stroke="#2e1f18" vector-effect="non-scaling-stroke" d="
  M 235.60 239.15
  Q 235.52 238.96 235.43 238.82
  Q 235.11 238.32 235.08 238.21
  L 219.72 185.50"
/>
<path stroke="#36281f" vector-effect="non-scaling-stroke" d="
  M 219.72 185.50
  C 219.92 185.18 220.21 184.83 220.57 184.66
  Q 237.95 176.64 255.14 168.52
  A 1.32 1.32 0.0 0 0 255.85 166.96
  L 240.37 112.72
  A 1.11 1.10 68.4 0 0 238.80 112.04
  L 169.26 147.97"
/>
<path stroke="#644636" vector-effect="non-scaling-stroke" d="
  M 219.72 185.50
  Q 218.83 185.44 218.56 185.56
  Q 202.09 193.26 185.15 201.21"
/>
<path stroke="#725945" vector-effect="non-scaling-stroke" d="
  M 185.15 201.21
  L 169.26 147.97"
/>
<path stroke="#6a503e" vector-effect="non-scaling-stroke" d="
  M 185.15 201.21
  Q 184.60 201.96 184.63 201.49"
/>
<path stroke="#5b4135" vector-effect="non-scaling-stroke" d="
  M 184.63 201.49
  Q 169.25 208.56 153.94 215.94
  Q 153.58 216.11 152.45 215.97"
/>
<path stroke="#6a503e" vector-effect="non-scaling-stroke" d="
  M 152.45 215.97
  L 136.85 164.79
  Q 136.80 164.64 136.87 164.49
  Q 137.01 164.19 137.08 164.43"
/>
<path stroke="#6a503e" vector-effect="non-scaling-stroke" d="
  M 235.60 239.15
  Q 234.92 239.69 235.13 239.31"
/>
<path stroke="#4d2e26" vector-effect="non-scaling-stroke" d="
  M 235.13 239.31
  L 200.69 253.69"
/>
<path stroke="#644636" vector-effect="non-scaling-stroke" d="
  M 200.69 253.69
  Q 199.90 253.71 200.32 253.89"
/>
<path stroke="#4d2e26" vector-effect="non-scaling-stroke" d="
  M 200.32 253.89
  Q 200.32 253.64 200.35 253.48
  A 1.34 1.30 44.0 0 0 200.33 252.88
  Q 193.28 228.94 186.21 205.01
  Q 185.48 202.54 184.63 201.49"
/>
<path stroke="#54372d" vector-effect="non-scaling-stroke" d="
  M 200.32 253.89
  Q 184.54 260.68 168.56 267.06
  Q 168.46 267.34 168.03 267.00"
/>
<path stroke="#5b4135" vector-effect="non-scaling-stroke" d="
  M 168.03 267.00
  L 152.12 216.56"
/>
<path stroke="#4d2e26" vector-effect="non-scaling-stroke" d="
  M 152.45 215.97
  L 152.12 216.56"
/>
<path stroke="#6a503e" vector-effect="non-scaling-stroke" d="
  M 152.12 216.56
  L 121.72 230.87"
/>
<path stroke="#644636" vector-effect="non-scaling-stroke" d="
  M 121.72 230.87
  Q 121.05 230.54 121.04 230.87"
/>
<path stroke="#725945" vector-effect="non-scaling-stroke" d="
  M 287.54 278.51
  Q 287.70 278.81 286.77 279.23"
/>
<path stroke="#6a503e" vector-effect="non-scaling-stroke" d="
  M 286.77 279.23
  L 250.89 292.57"
/>
<path stroke="#5b4135" vector-effect="non-scaling-stroke" d="
  M 250.89 292.57
  Q 243.27 267.06 236.30 241.99
  Q 235.96 240.79 235.13 239.31"
/>
<path stroke="#4d2e26" vector-effect="non-scaling-stroke" d="
  M 250.89 292.57
  L 266.17 345.21"
/>
<path stroke="#5b4135" vector-effect="non-scaling-stroke" d="
  M 266.17 345.21
  L 232.98 355.70
  Q 231.08 356.31 230.51 354.39
  L 215.94 305.49"
/>
<path stroke="#54372d" vector-effect="non-scaling-stroke" d="
  M 200.69 253.69
  L 215.94 305.49"
/>
<path stroke="#725945" vector-effect="non-scaling-stroke" d="
  M 215.94 305.49
  L 183.56 317.57
  Q 183.29 317.67 183.28 317.95
  Q 183.27 318.16 183.16 318.27"
/>
<path stroke="#725945" vector-effect="non-scaling-stroke" d="
  M 168.03 267.00
  Q 168.01 267.13 167.99 267.29
  A 0.37 0.36 -7.5 0 1 167.77 267.57
  L 138.39 279.59
  A 1.52 1.51 70.2 0 1 136.36 278.63
  L 121.72 230.87"
/>
<path stroke="#644636" vector-effect="non-scaling-stroke" d="
  M 136.66 164.20
  Q 136.23 164.80 135.97 164.94
  Q 121.28 173.07 106.08 180.38"
/>
<path stroke="#4d2e26" vector-effect="non-scaling-stroke" d="
  M 303.28 333.17
  L 266.21 345.08"
/>
<path stroke="#6a503e" vector-effect="non-scaling-stroke" d="
  M 266.21 345.08
  Q 266.19 345.15 266.17 345.21"
/>
<path stroke="#644636" vector-effect="non-scaling-stroke" d="
  M 303.15 333.04
  Q 292.61 295.73 288.00 280.25
  Q 287.66 279.11 286.77 279.23"
/>
<path stroke="#5b4135" vector-effect="non-scaling-stroke" d="
  M 266.21 345.08
  L 281.05 396.60"
/>
<path stroke="#795d46" vector-effect="non-scaling-stroke" d="
  M 281.05 396.60
  L 266.21 400.99"
/>
<path stroke="#332423" vector-effect="non-scaling-stroke" d="
  M 334.73 443.04
  L 346.77 486.76"
/>
<path stroke="#54322a" vector-effect="non-scaling-stroke" d="
  M 346.77 486.76
  L 330.97 487.61"
/>
<path stroke="#5b3c2e" vector-effect="non-scaling-stroke" d="
  M 330.97 487.61
  L 307.81 488.81"
/>
<path stroke="#332423" vector-effect="non-scaling-stroke" d="
  M 307.81 488.81
  L 295.89 447.93"
/>
<path stroke="#5b3c2e" vector-effect="non-scaling-stroke" d="
  M 295.89 447.93
  L 285.60 413.13"
/>
<path stroke="#54322a" vector-effect="non-scaling-stroke" d="
  M 285.60 413.13
  L 282.73 402.15"
/>
<path stroke="#5b3c2e" vector-effect="non-scaling-stroke" d="
  M 282.73 402.15
  L 281.05 396.60"
/>
<path stroke="#724f3b" vector-effect="non-scaling-stroke" d="
  M 282.73 402.15
  L 266.02 405.68"
/>
<path stroke="#8e674a" vector-effect="non-scaling-stroke" d="
  M 474.05 298.83
  L 474.02 362.13"
/>
<path stroke="#724f3b" vector-effect="non-scaling-stroke" d="
  M 474.02 362.13
  L 440.71 368.99
  A 0.81 0.81 0.0 0 0 440.06 369.78
  L 440.16 429.53"
/>
<path stroke="#4c3c2f" vector-effect="non-scaling-stroke" d="
  M 440.16 429.53
  Q 439.66 429.39 439.50 429.63"
/>
<path stroke="#514134" vector-effect="non-scaling-stroke" d="
  M 439.50 429.63
  L 334.73 443.04"
/>
<path stroke="#5b3c2e" vector-effect="non-scaling-stroke" d="
  M 334.73 443.04
  L 320.78 394.55"
/>
<path stroke="#846045" vector-effect="non-scaling-stroke" d="
  M 320.78 394.55
  Q 323.01 393.69 325.26 393.21
  Q 366.74 384.41 408.43 375.87
  Q 408.94 375.76 408.94 375.24
  Q 409.13 348.01 408.96 320.71
  C 408.95 319.89 408.58 319.08 408.47 318.18"
/>
<path stroke="#724f3b" vector-effect="non-scaling-stroke" d="
  M 285.60 413.13
  Q 284.44 431.58 285.14 449.12"
/>
<path stroke="#4a3730" vector-effect="non-scaling-stroke" d="
  M 285.14 449.12
  Q 284.96 449.13 284.78 449.14"
/>
<path stroke="#45322b" vector-effect="non-scaling-stroke" d="
  M 284.78 449.14
  L 266.05 451.04"
/>
<path stroke="#7c5140" vector-effect="non-scaling-stroke" d="
  M 436.12 481.96
  Q 435.51 519.80 436.76 557.50"
/>
<path stroke="#3e2b26" vector-effect="non-scaling-stroke" d="
  M 436.76 557.50
  L 331.07 552.06"
/>
<path stroke="#724f3b" vector-effect="non-scaling-stroke" d="
  M 331.07 552.06
  L 330.97 487.61"
/>
<path stroke="#45352a" vector-effect="non-scaling-stroke" d="
  M 331.07 552.06
  L 266.53 548.65"
/>
<path stroke="#724f3b" vector-effect="non-scaling-stroke" d="
  M 191.87 544.78
  L 191.76 495.47"
/>
<path stroke="#5c4339" vector-effect="non-scaling-stroke" d="
  M 440.00 481.94
  L 436.12 481.96"
/>
<path stroke="#4a3730" vector-effect="non-scaling-stroke" d="
  M 436.12 481.96
  L 346.77 486.76"
/>
<path stroke="#514134" vector-effect="non-scaling-stroke" d="
  M 307.81 488.81
  L 284.94 490.08"
/>
<path stroke="#242424" vector-effect="non-scaling-stroke" d="
  M 284.94 490.08
  L 284.78 449.14"
/>
<path stroke="#514134" vector-effect="non-scaling-stroke" d="
  M 295.89 447.93
  L 285.14 449.12"
/>
<path stroke="#664333" vector-effect="non-scaling-stroke" d="
  M 320.78 394.55
  L 307.51 347.74"
/>
<path stroke="#4a3730" vector-effect="non-scaling-stroke" d="
  M 473.91 425.23
  Q 473.95 425.35 473.99 425.48"
/>
<path stroke="#45322b" vector-effect="non-scaling-stroke" d="
  M 473.99 425.48
  L 440.16 429.53"
/>
<path stroke="#5c4339" vector-effect="non-scaling-stroke" d="
  M 482.47 426.06
  L 473.91 425.23"
/>
<path stroke="#7c5140" vector-effect="non-scaling-stroke" d="
  M 473.91 425.23
  L 474.02 362.13"
/>
<path stroke="#b07f5c" vector-effect="non-scaling-stroke" d="
  M 571.96 314.03
  L 571.85 322.12"
/>
<path stroke="#5e4739" vector-effect="non-scaling-stroke" d="
  M 571.85 322.12
  L 486.72 324.85
  A 1.76 1.76 0.0 0 0 485.02 326.56
  L 484.01 363.01"
/>
<path stroke="#98694f" vector-effect="non-scaling-stroke" d="
  M 484.01 363.01
  L 474.02 362.13"
/>
<path stroke="#573e34" vector-effect="non-scaling-stroke" d="
  M 473.98 482.84
  L 440.00 481.94"
/>
<path stroke="#242424" vector-effect="non-scaling-stroke" d="
  M 440.00 481.94
  Q 440.00 457.56 440.00 433.14
  C 440.00 431.88 439.45 430.89 439.50 429.63"
/>
<path stroke="#4c3c2f" vector-effect="non-scaling-stroke" d="
  M 284.94 490.08
  L 266.10 491.40"
/>
<path stroke="#98694f" vector-effect="non-scaling-stroke" d="
  M 606.95 486.30
  Q 607.04 519.01 607.00 551.75
  Q 607.00 553.30 607.98 553.42"
/>
<path stroke="#5c476f" vector-effect="non-scaling-stroke" d="
  M 607.98 553.42
  L 571.04 554.27"
/>
<path stroke="#947776" vector-effect="non-scaling-stroke" d="
  M 571.04 554.27
  L 525.00 555.43"
/>
<path stroke="#543b33" vector-effect="non-scaling-stroke" d="
  M 525.00 555.43
  L 475.24 556.67"
/>
<path stroke="#50372f" vector-effect="non-scaling-stroke" d="
  M 475.24 556.67
  L 436.76 557.50"
/>
<path stroke="#161519" vector-effect="non-scaling-stroke" d="
  M 475.24 556.67
  L 474.99 614.91"
/>
<path stroke="#161519" vector-effect="non-scaling-stroke" d="
  M 474.99 614.91
  L 266.01 588.95"
/>
<path stroke="#5c4339" vector-effect="non-scaling-stroke" d="
  M 481.45 483.17
  L 473.98 482.84"
/>
<path stroke="#242424" vector-effect="non-scaling-stroke" d="
  M 473.98 482.84
  L 473.99 425.48"
/>
<path stroke="#5e4739" vector-effect="non-scaling-stroke" d="
  M 574.45 372.70
  L 573.85 382.01
  Q 573.78 383.19 574.96 383.09
  L 613.05 379.99
  Q 614.00 379.91 613.96 380.86
  L 611.45 434.74"
/>
<path stroke="#272628" vector-effect="non-scaling-stroke" d="
  M 611.45 434.74
  Q 611.43 437.07 608.26 437.53
  Q 590.31 440.14 572.36 442.69
  Q 572.04 442.73 571.74 442.61
  Q 571.60 442.55 571.39 442.49"
/>
<path stroke="#5f596a" vector-effect="non-scaling-stroke" d="
  M 571.39 442.49
  L 573.94 383.81
  Q 573.96 383.34 573.50 383.38
  L 530.78 387.15
  Q 530.27 387.20 530.26 387.70
  L 528.31 449.26"
/>
<path stroke="#726c7d" vector-effect="non-scaling-stroke" d="
  M 528.31 449.26
  L 527.16 483.99"
/>
<path stroke="#543b33" vector-effect="non-scaling-stroke" d="
  M 527.16 483.99
  L 481.45 483.17"
/>
<path stroke="#222123" vector-effect="non-scaling-stroke" d="
  M 481.45 483.17
  C 481.01 481.31 482.09 478.91 482.05 476.93
  Q 481.59 451.98 482.92 427.06
  Q 482.94 426.68 482.47 426.06"
/>
<path stroke="#543b33" vector-effect="non-scaling-stroke" d="
  M 482.47 426.06
  L 484.01 363.01"
/>
<path stroke="#b07f5c" vector-effect="non-scaling-stroke" d="
  M 731.10 338.81
  L 731.05 389.12
  A 1.22 1.21 3.2 0 1 729.70 390.32
  C 679.71 384.81 630.03 379.11 580.23 373.89
  C 578.37 373.70 576.45 372.99 574.45 372.70"
/>
<path stroke="#6c5140" vector-effect="non-scaling-stroke" d="
  M 574.45 372.70
  L 576.53 322.83
  A 0.78 0.77 -90.0 0 0 575.73 322.02
  L 571.85 322.12"
/>
<path stroke="#6470a3" vector-effect="non-scaling-stroke" d="
  M 571.02 608.26
  Q 571.01 608.44 571.01 608.62"
/>
<path stroke="#b3afb8" vector-effect="non-scaling-stroke" d="
  M 571.01 608.62
  L 525.00 611.05"
/>
<path stroke="#5a5660" vector-effect="non-scaling-stroke" d="
  M 525.00 611.05
  L 525.00 555.43"
/>
<path stroke="#737375" vector-effect="non-scaling-stroke" d="
  M 525.00 611.05
  L 524.99 612.18"
/>
<path stroke="#1f1d22" vector-effect="non-scaling-stroke" d="
  M 524.99 612.18
  C 517.05 611.64 510.01 612.68 502.54 612.98
  C 496.36 613.23 489.94 614.25 483.49 614.01
  C 480.54 613.90 478.22 615.36 474.99 614.91"
/>
<path stroke="#ac8e93" vector-effect="non-scaling-stroke" d="
  M 555.26 484.91
  L 527.16 483.99"
/>
<path stroke="#7f7988" vector-effect="non-scaling-stroke" d="
  M 738.89 452.80
  L 732.09 478.57
  Q 731.96 479.08 732.29 479.49
  Q 736.88 485.27 743.47 489.87"
/>
<path stroke="#6b5444" vector-effect="non-scaling-stroke" d="
  M 743.47 489.87
  L 606.95 486.30"
/>
<path stroke="#61483e" vector-effect="non-scaling-stroke" d="
  M 606.95 486.30
  L 555.26 484.91"
/>
<path stroke="#7f7988" vector-effect="non-scaling-stroke" d="
  M 555.26 484.91
  L 569.05 474.48
  A 2.01 2.00 -17.4 0 0 569.84 472.97
  L 571.29 442.99"
/>
<path stroke="#98694f" vector-effect="non-scaling-stroke" d="
  M 850.07 493.27
  L 850.07 546.98"
/>
<path stroke="#5e4739" vector-effect="non-scaling-stroke" d="
  M 795.87 548.45
  L 764.04 549.23"
/>
<path stroke="#9e847c" vector-effect="non-scaling-stroke" d="
  M 764.04 549.23
  L 730.02 550.25"
/>
<path stroke="#665475" vector-effect="non-scaling-stroke" d="
  M 730.02 550.25
  L 694.15 551.22"
/>
<path stroke="#5e4739" vector-effect="non-scaling-stroke" d="
  M 694.15 551.22
  L 615.04 553.17"
/>
<path stroke="#665475" vector-effect="non-scaling-stroke" d="
  M 615.04 553.17
  L 607.98 553.42"
/>
<path stroke="#272a5e" vector-effect="non-scaling-stroke" d="
  M 615.01 605.31
  Q 615.00 605.56 614.99 605.81"
/>
<path stroke="#2c409c" vector-effect="non-scaling-stroke" d="
  M 614.99 605.81
  L 571.02 608.26"
/>
<path stroke="#62629c" vector-effect="non-scaling-stroke" d="
  M 571.02 608.26
  L 571.04 554.27"
/>
<path stroke="#1f1d22" vector-effect="non-scaling-stroke" d="
  M 474.99 614.91
  L 474.99 783.58"
/>
<path stroke="#5f596a" vector-effect="non-scaling-stroke" d="
  M 474.99 783.58
  L 470.93 784.90
  Q 469.97 785.22 470.23 786.19
  L 474.48 802.44"
/>
<path stroke="#645d6f" vector-effect="non-scaling-stroke" d="
  M 794.91 720.06
  L 793.18 719.99"
/>
<path stroke="#121113" vector-effect="non-scaling-stroke" d="
  M 793.18 719.99
  Q 792.53 717.56 790.69 715.59
  A 0.79 0.79 0.0 0 0 789.35 715.89
  Q 789.04 716.92 788.02 717.31"
/>
<path stroke="#777081" vector-effect="non-scaling-stroke" d="
  M 788.02 717.31
  L 782.50 670.00
  Q 782.43 669.47 781.91 669.44
  L 748.59 667.19"
/>
<path stroke="#645d6f" vector-effect="non-scaling-stroke" d="
  M 748.59 667.19
  L 713.80 664.97
  A 0.88 0.88 0.0 0 0 712.86 665.93
  L 716.00 703.62"
/>
<path stroke="#777081" vector-effect="non-scaling-stroke" d="
  M 716.00 703.62
  L 693.93 706.92"
/>
<path stroke="#5e3e5c" vector-effect="non-scaling-stroke" d="
  M 693.93 706.92
  L 693.96 655.12
  Q 693.96 653.65 692.50 653.81
  L 615.32 662.32
  A 0.30 0.30 0.0 0 0 615.05 662.62
  L 615.09 719.01"
/>
<path stroke="#777081" vector-effect="non-scaling-stroke" d="
  M 615.09 719.01
  L 605.00 720.79"
/>
<path stroke="#645d6f" vector-effect="non-scaling-stroke" d="
  M 605.00 720.79
  L 593.66 679.54
  Q 593.52 679.03 593.01 679.18
  L 550.06 692.44"
/>
<path stroke="#777081" vector-effect="non-scaling-stroke" d="
  M 550.06 692.44
  L 504.64 706.23
  A 1.10 1.10 0.0 0 0 503.90 707.57
  L 519.63 767.30"
/>
<path stroke="#645d6f" vector-effect="non-scaling-stroke" d="
  M 519.63 767.30
  Q 520.07 767.58 519.32 767.85
  Q 497.24 775.77 474.99 783.58"
/>
<path stroke="#787779" vector-effect="non-scaling-stroke" d="
  M 524.99 612.18
  L 525.00 671.14
  Q 525.00 672.27 526.12 672.15
  L 571.03 667.16"
/>
<path stroke="#293765" vector-effect="non-scaling-stroke" d="
  M 571.03 667.16
  L 613.78 662.54
  Q 614.99 662.41 614.99 661.19
  L 614.99 605.81"
/>
<path stroke="#293765" vector-effect="non-scaling-stroke" d="
  M 694.02 599.95
  L 694.03 652.91
  Q 694.03 653.41 694.53 653.36
  L 730.19 649.71"
/>
<path stroke="#787779" vector-effect="non-scaling-stroke" d="
  M 730.19 649.71
  L 763.26 645.99
  A 0.83 0.82 86.9 0 0 763.99 645.17
  L 763.99 595.82"
/>
<path stroke="#6c6675" vector-effect="non-scaling-stroke" d="
  M 571.39 442.49
  Q 571.69 442.26 571.29 442.99"
/>
<path stroke="#b7acca" vector-effect="non-scaling-stroke" d="
  M 571.29 442.99
  L 528.99 448.62
  Q 528.60 448.67 528.42 449.02
  L 528.31 449.26"
/>
<path stroke="#5e4739" vector-effect="non-scaling-stroke" d="
  M 795.78 360.40
  L 765.86 350.49
  Q 765.41 350.34 765.29 350.80
  L 752.16 401.08
  Q 752.00 401.72 751.36 401.54
  L 714.44 391.02
  A 1.08 1.08 0.0 0 0 713.10 391.79
  L 700.54 440.44"
/>
<path stroke="#6b5444" vector-effect="non-scaling-stroke" d="
  M 700.54 440.44
  L 611.45 434.74"
/>
<path stroke="#7d8db8" vector-effect="non-scaling-stroke" d="
  M 571.03 667.16
  L 571.01 608.62"
/>
<path stroke="#5e4739" vector-effect="non-scaling-stroke" d="
  M 804.50 491.76
  L 768.13 490.65"
/>
<path stroke="#726c7d" vector-effect="non-scaling-stroke" d="
  M 768.13 490.65
  L 775.61 462.09"
/>
<path stroke="#5f596a" vector-effect="non-scaling-stroke" d="
  M 775.61 462.09
  L 788.61 412.74
  Q 788.72 412.33 788.30 412.21
  L 753.00 402.18
  A 1.04 1.04 0.0 0 0 751.72 402.91
  L 738.73 452.66"
/>
<path stroke="#272628" vector-effect="non-scaling-stroke" d="
  M 738.73 452.66
  Q 720.14 448.03 701.75 443.25
  Q 698.76 442.47 700.54 440.44"
/>
<path stroke="#b7acca" vector-effect="non-scaling-stroke" d="
  M 775.61 462.09
  L 738.89 452.80"
/>
<path stroke="#6c6675" vector-effect="non-scaling-stroke" d="
  M 738.89 452.80
  Q 738.79 453.28 738.73 452.66"
/>
<path stroke="#b69a98" vector-effect="non-scaling-stroke" d="
  M 768.13 490.65
  L 743.47 489.87"
/>
<path stroke="#5f5a65" vector-effect="non-scaling-stroke" d="
  M 764.02 595.23
  L 763.99 595.82"
/>
<path stroke="#b3afb8" vector-effect="non-scaling-stroke" d="
  M 763.99 595.82
  L 730.07 597.92"
/>
<path stroke="#62629c" vector-effect="non-scaling-stroke" d="
  M 730.07 597.92
  L 730.02 550.25"
/>
<path stroke="#243360" vector-effect="non-scaling-stroke" d="
  M 694.06 600.02
  Q 694.04 599.99 694.02 599.95"
/>
<path stroke="#1f1d22" vector-effect="non-scaling-stroke" d="
  M 694.02 599.95
  C 687.78 601.34 679.68 601.08 675.35 601.42
  Q 645.20 603.75 615.01 605.31"
/>
<path stroke="#222659" vector-effect="non-scaling-stroke" d="
  M 615.01 605.31
  L 615.04 553.17"
/>
<path stroke="#7b7fb1" vector-effect="non-scaling-stroke" d="
  M 730.07 597.92
  Q 730.07 597.86 730.06 597.79"
/>
<path stroke="#2c409c" vector-effect="non-scaling-stroke" d="
  M 730.06 597.79
  L 694.06 600.02"
/>
<path stroke="#222659" vector-effect="non-scaling-stroke" d="
  M 694.06 600.02
  L 694.15 551.22"
/>
<path stroke="#1f1d22" vector-effect="non-scaling-stroke" d="
  M 795.93 594.63
  Q 790.22 593.50 784.17 594.31
  C 777.54 595.19 771.51 594.82 765.05 595.68
  Q 764.82 596.51 764.02 595.23"
/>
<path stroke="#5a5660" vector-effect="non-scaling-stroke" d="
  M 764.02 595.23
  L 764.04 549.23"
/>
<path stroke="#b7acca" vector-effect="non-scaling-stroke" d="
  M 748.59 667.19
  L 754.19 718.24
  Q 754.24 718.72 754.72 718.73
  L 788.04 719.56"
/>
<path stroke="#524c5c" vector-effect="non-scaling-stroke" d="
  M 788.04 719.56
  L 793.18 719.99"
/>
<path stroke="#645d6f" vector-effect="non-scaling-stroke" d="
  M 757.28 746.83
  L 754.21 719.94
  Q 754.10 718.93 753.09 718.89
  L 730.01 717.92"
/>
<path stroke="#b7acca" vector-effect="non-scaling-stroke" d="
  M 730.01 717.92
  L 718.46 717.95
  Q 717.92 717.96 717.86 717.42
  C 717.51 714.00 717.62 706.14 716.00 703.62"
/>
<path stroke="#65606e" vector-effect="non-scaling-stroke" d="
  M 788.02 717.31
  L 788.04 719.56"
/>
<path stroke="#b28db7" vector-effect="non-scaling-stroke" d="
  M 693.93 706.92
  L 615.09 719.01"
/>
<path stroke="#b7acca" vector-effect="non-scaling-stroke" d="
  M 566.06 751.51
  L 519.63 767.30"
/>
<path stroke="#777081" vector-effect="non-scaling-stroke" d="
  M 730.01 717.92
  L 730.03 752.60"
/>
<path stroke="#b7acca" vector-effect="non-scaling-stroke" d="
  M 574.81 783.35
  L 571.14 770.52"
/>
<path stroke="#777081" vector-effect="non-scaling-stroke" d="
  M 571.14 770.52
  L 571.01 750.29"
/>
<path stroke="#b7acca" vector-effect="non-scaling-stroke" d="
  M 605.00 720.79
  L 608.83 735.28
  Q 609.00 735.95 608.35 736.18
  Q 590.82 742.47 573.22 748.66
  Q 571.12 749.40 571.01 750.29"
/>
<path stroke="#645d6f" vector-effect="non-scaling-stroke" d="
  M 571.01 750.29
  Q 568.70 749.72 566.06 751.51"
/>
<path stroke="#b7acca" vector-effect="non-scaling-stroke" d="
  M 566.06 751.51
  L 550.06 692.44"
/>
<path stroke="#7d8db8" vector-effect="non-scaling-stroke" d="
  M 730.19 649.71
  L 730.06 597.79"
/>
<path stroke="#645d6f" vector-effect="non-scaling-stroke" d="
  M 571.14 770.52
  L 566.06 751.51"
/>
<path stroke="#36281f" vector-effect="non-scaling-stroke" d="
  M 212.58 415.42
  L 198.14 367.59
  A 0.20 0.20 0.0 0 0 197.89 367.46
  L 171.20 375.52
  A 4.82 0.94 -16.8 0 0 166.86 377.81
  L 180.87 424.22
  A 4.82 0.94 -16.8 0 0 185.75 423.73
  L 212.44 415.67
  A 0.20 0.20 0.0 0 0 212.58 415.42"
/>
</g>
<path fill="#000000" fill-opacity="0.004" d="
  M 0.00 0.00
  L 1062.00 0.00
  L 1062.00 1062.00
  L 0.00 1062.00
  L 0.00 0.00
  Z
  M 156.33 457.08
  Q 147.32 457.03 138.43 458.59
  C 115.74 462.56 103.21 479.93 103.80 503.01
  C 104.09 514.55 103.98 526.08 104.01 537.62
  Q 104.04 547.00 105.42 552.12
  C 109.23 566.19 119.23 575.86 132.96 580.55
  Q 138.93 582.58 143.25 582.77
  Q 183.98 584.56 225.00 586.88
  A 1.07 1.06 -88.3 0 1 226.00 587.95
  C 226.00 632.08 227.02 676.39 225.81 720.15
  Q 225.10 745.61 244.69 758.92
  Q 249.62 762.27 260.46 766.31
  Q 350.68 799.95 440.65 833.48
  Q 441.30 833.72 441.46 834.40
  C 444.02 845.04 446.37 858.79 450.53 867.21
  C 459.09 884.56 479.96 892.65 498.40 887.90
  Q 501.09 887.21 517.03 880.68
  Q 556.49 864.51 595.92 848.33
  Q 617.66 839.42 621.66 816.22
  A 1.35 1.35 0.0 0 1 622.73 815.13
  L 726.92 794.36
  Q 727.48 794.25 727.82 794.69
  C 740.58 810.96 755.56 811.52 775.00 811.07
  Q 799.87 810.49 824.75 810.02
  Q 847.96 809.57 859.84 792.52
  C 865.90 783.84 867.92 773.62 866.66 763.18
  Q 864.18 742.60 861.42 722.05
  Q 859.87 710.47 857.64 705.28
  C 853.52 695.68 846.17 688.41 836.58 683.71
  A 1.05 1.02 -77.5 0 1 836.00 682.77
  L 836.00 587.75
  Q 836.00 587.16 836.59 587.15
  Q 889.33 586.26 942.06 584.82
  C 963.59 584.24 979.95 565.46 979.99 544.33
  Q 980.04 522.14 979.97 499.97
  Q 979.95 490.84 978.58 485.80
  C 973.09 465.62 955.24 455.41 935.00 455.09
  Q 896.37 454.47 858.11 453.19
  A 1.09 1.08 8.5 0 1 857.10 451.83
  Q 865.16 421.36 873.49 390.79
  Q 876.06 381.33 876.13 375.94
  C 876.40 355.73 863.30 339.53 844.22 333.82
  Q 837.74 331.87 831.24 329.59
  A 1.39 1.35 -4.5 0 1 830.51 328.99
  C 823.28 316.72 811.41 310.37 797.51 308.21
  Q 653.03 285.73 508.56 263.17
  C 490.70 260.38 475.57 256.34 457.81 261.57
  Q 416.77 273.68 375.35 285.78
  A 0.58 0.57 73.7 0 1 374.63 285.38
  Q 371.47 274.13 368.31 262.77
  Q 365.28 251.90 362.41 246.70
  Q 348.40 221.38 315.63 225.62
  Q 314.75 225.74 314.49 224.90
  C 312.77 219.51 311.46 213.10 309.31 208.50
  Q 303.33 195.76 290.70 188.69
  Q 290.24 188.43 290.50 187.98
  C 298.22 174.21 296.73 163.48 292.25 147.45
  Q 284.12 118.41 279.79 103.49
  C 272.57 78.63 245.63 64.08 221.67 75.66
  Q 200.65 85.82 161.88 106.50
  Q 161.43 106.74 161.31 106.24
  C 155.78 83.67 134.06 68.54 111.19 73.79
  C 100.35 76.28 86.99 85.08 76.29 91.34
  Q 66.36 97.14 62.18 101.51
  C 48.99 115.28 48.93 132.53 54.37 150.08
  Q 63.38 179.13 72.18 207.82
  A 1.53 1.53 0.0 0 1 71.56 209.54
  C 55.28 220.42 48.45 237.77 53.94 256.67
  Q 60.04 277.63 66.73 298.42
  Q 70.28 309.46 73.52 314.54
  Q 85.44 333.17 109.76 333.06
  A 1.39 1.39 0.0 0 1 111.13 334.16
  Q 114.91 351.53 129.28 361.76
  A 1.11 1.10 -62.1 0 1 129.67 363.05
  Q 124.36 377.25 128.75 392.11
  Q 134.65 412.08 141.09 431.89
  C 144.40 442.08 147.92 448.87 155.13 455.69
  Q 155.51 456.05 156.03 456.00
  Q 156.54 455.94 156.75 456.46
  A 0.45 0.45 0.0 0 1 156.33 457.08
  Z"
/>
<path fill="#000000" d="
  M 156.33 457.08
  A 0.45 0.45 0.0 0 0 156.75 456.46
  Q 156.54 455.94 156.03 456.00
  Q 155.51 456.05 155.13 455.69
  C 147.92 448.87 144.40 442.08 141.09 431.89
  Q 134.65 412.08 128.75 392.11
  Q 124.36 377.25 129.67 363.05
  A 1.11 1.10 -62.1 0 0 129.28 361.76
  Q 114.91 351.53 111.13 334.16
  A 1.39 1.39 0.0 0 0 109.76 333.06
  Q 85.44 333.17 73.52 314.54
  Q 70.28 309.46 66.73 298.42
  Q 60.04 277.63 53.94 256.67
  C 48.45 237.77 55.28 220.42 71.56 209.54
  A 1.53 1.53 0.0 0 0 72.18 207.82
  Q 63.38 179.13 54.37 150.08
  C 48.93 132.53 48.99 115.28 62.18 101.51
  Q 66.36 97.14 76.29 91.34
  C 86.99 85.08 100.35 76.28 111.19 73.79
  C 134.06 68.54 155.78 83.67 161.31 106.24
  Q 161.43 106.74 161.88 106.50
  Q 200.65 85.82 221.67 75.66
  C 245.63 64.08 272.57 78.63 279.79 103.49
  Q 284.12 118.41 292.25 147.45
  C 296.73 163.48 298.22 174.21 290.50 187.98
  Q 290.24 188.43 290.70 188.69
  Q 303.33 195.76 309.31 208.50
  C 311.46 213.10 312.77 219.51 314.49 224.90
  Q 314.75 225.74 315.63 225.62
  Q 348.40 221.38 362.41 246.70
  Q 365.28 251.90 368.31 262.77
  Q 371.47 274.13 374.63 285.38
  A 0.58 0.57 73.7 0 0 375.35 285.78
  Q 416.77 273.68 457.81 261.57
  C 475.57 256.34 490.70 260.38 508.56 263.17
  Q 653.03 285.73 797.51 308.21
  C 811.41 310.37 823.28 316.72 830.51 328.99
  A 1.39 1.35 -4.5 0 0 831.24 329.59
  Q 837.74 331.87 844.22 333.82
  C 863.30 339.53 876.40 355.73 876.13 375.94
  Q 876.06 381.33 873.49 390.79
  Q 865.16 421.36 857.10 451.83
  A 1.09 1.08 8.5 0 0 858.11 453.19
  Q 896.37 454.47 935.00 455.09
  C 955.24 455.41 973.09 465.62 978.58 485.80
  Q 979.95 490.84 979.97 499.97
  Q 980.04 522.14 979.99 544.33
  C 979.95 565.46 963.59 584.24 942.06 584.82
  Q 889.33 586.26 836.59 587.15
  Q 836.00 587.16 836.00 587.75
  L 836.00 682.77
  A 1.05 1.02 -77.5 0 0 836.58 683.71
  C 846.17 688.41 853.52 695.68 857.64 705.28
  Q 859.87 710.47 861.42 722.05
  Q 864.18 742.60 866.66 763.18
  C 867.92 773.62 865.90 783.84 859.84 792.52
  Q 847.96 809.57 824.75 810.02
  Q 799.87 810.49 775.00 811.07
  C 755.56 811.52 740.58 810.96 727.82 794.69
  Q 727.48 794.25 726.92 794.36
  L 622.73 815.13
  A 1.35 1.35 0.0 0 0 621.66 816.22
  Q 617.66 839.42 595.92 848.33
  Q 556.49 864.51 517.03 880.68
  Q 501.09 887.21 498.40 887.90
  C 479.96 892.65 459.09 884.56 450.53 867.21
  C 446.37 858.79 444.02 845.04 441.46 834.40
  Q 441.30 833.72 440.65 833.48
  Q 350.68 799.95 260.46 766.31
  Q 249.62 762.27 244.69 758.92
  Q 225.10 745.61 225.81 720.15
  C 227.02 676.39 226.00 632.08 226.00 587.95
  A 1.07 1.06 -88.3 0 0 225.00 586.88
  Q 183.98 584.56 143.25 582.77
  Q 138.93 582.58 132.96 580.55
  C 119.23 575.86 109.23 566.19 105.42 552.12
  Q 104.04 547.00 104.01 537.62
  C 103.98 526.08 104.09 514.55 103.80 503.01
  C 103.21 479.93 115.74 462.56 138.43 458.59
  Q 147.32 457.03 156.33 457.08
  Z
  M 169.26 147.97
  L 137.08 164.43
  Q 136.91 164.20 136.66 164.20
  L 121.32 113.50
  A 0.89 0.88 -23.2 0 0 120.04 112.99
  L 91.73 129.16
  A 1.71 1.70 66.8 0 0 90.95 131.13
  L 106.08 180.38
  Q 113.52 204.93 121.17 229.77
  Q 121.28 230.11 121.04 230.87
  L 92.94 244.27
  A 0.82 0.81 68.9 0 0 92.51 245.25
  L 107.18 292.23
  Q 107.33 292.73 107.82 292.52
  L 135.71 280.81
  A 1.03 1.02 -19.8 0 1 137.08 281.45
  L 151.48 327.97
  Q 151.86 329.22 153.08 328.75
  Q 166.86 323.54 181.56 318.30
  Q 181.98 318.15 183.16 318.27
  L 197.58 365.83
  A 1.29 1.29 0.0 0 0 199.20 366.68
  L 230.25 356.79
  A 0.91 0.90 73.2 0 1 231.38 357.40
  L 245.55 405.17
  A 1.52 1.52 0.0 0 0 247.41 406.19
  L 266.21 400.99
  L 266.02 405.68
  L 266.05 451.04
  L 266.10 491.40
  L 191.76 495.47
  L 144.67 498.04
  A 0.71 0.71 0.0 0 0 144.00 498.75
  L 144.00 541.24
  A 1.09 1.08 -88.6 0 0 145.03 542.33
  L 191.87 544.78
  L 266.53 548.65
  L 266.01 588.95
  L 266.01 724.27
  A 1.23 1.22 10.5 0 0 266.80 725.41
  Q 362.96 761.35 459.46 797.25
  Q 469.61 801.03 474.48 802.44
  L 486.37 848.61
  A 0.71 0.70 71.7 0 0 487.32 849.09
  L 581.64 810.57
  A 0.47 0.45 71.6 0 0 581.90 810.03
  L 574.81 783.35
  L 730.03 752.60
  L 757.28 746.83
  L 759.91 770.67
  Q 759.97 771.21 760.51 771.19
  L 826.15 769.95
  A 0.58 0.57 86.0 0 0 826.71 769.30
  L 820.46 720.69
  Q 820.38 720.09 819.78 720.09
  L 794.91 720.06
  Q 794.81 706.43 795.67 676.19
  Q 796.36 651.65 795.93 594.63
  L 795.87 548.45
  L 850.07 546.98
  L 939.39 544.86
  Q 940.00 544.85 940.00 544.24
  L 940.00 497.02
  A 1.41 1.40 -89.4 0 0 938.63 495.61
  L 850.07 493.27
  L 804.50 491.76
  L 835.90 374.93
  A 1.17 1.16 16.9 0 0 835.14 373.52
  L 795.78 360.40
  L 795.94 349.53
  Q 795.95 349.01 795.44 348.93
  L 731.10 338.81
  L 571.96 314.03
  L 474.05 298.83
  L 408.47 318.18
  L 307.51 347.74
  L 303.28 333.17
  Q 303.21 333.10 303.15 333.04
  L 341.99 320.60
  A 0.54 0.54 0.0 0 0 342.34 319.94
  L 327.20 265.70
  A 1.09 1.09 0.0 0 0 325.78 264.97
  Q 307.11 271.84 288.51 278.79
  Q 288.11 278.94 287.54 278.51
  L 272.46 224.91
  Q 272.19 223.96 271.28 224.34
  L 235.60 239.15
  Q 235.52 238.96 235.43 238.82
  Q 235.11 238.32 235.08 238.21
  L 219.72 185.50
  C 219.92 185.18 220.21 184.83 220.57 184.66
  Q 237.95 176.64 255.14 168.52
  A 1.32 1.32 0.0 0 0 255.85 166.96
  L 240.37 112.72
  A 1.11 1.10 68.4 0 0 238.80 112.04
  L 169.26 147.97
  Z
  M 212.58 415.42
  L 198.14 367.59
  A 0.20 0.20 0.0 0 0 197.89 367.46
  L 171.20 375.52
  A 4.82 0.94 -16.8 0 0 166.86 377.81
  L 180.87 424.22
  A 4.82 0.94 -16.8 0 0 185.75 423.73
  L 212.44 415.67
  A 0.20 0.20 0.0 0 0 212.58 415.42
  Z"
/>
<path fill="#6b4f3d" d="
  M 219.72 185.50
  Q 218.83 185.44 218.56 185.56
  Q 202.09 193.26 185.15 201.21
  L 169.26 147.97
  L 238.80 112.04
  A 1.11 1.10 68.4 0 1 240.37 112.72
  L 255.85 166.96
  A 1.32 1.32 0.0 0 1 255.14 168.52
  Q 237.95 176.64 220.57 184.66
  C 220.21 184.83 219.92 185.18 219.72 185.50
  Z"
/>
<path fill="#6b4f3d" d="
  M 136.66 164.20
  Q 136.23 164.80 135.97 164.94
  Q 121.28 173.07 106.08 180.38
  L 90.95 131.13
  A 1.71 1.70 66.8 0 1 91.73 129.16
  L 120.04 112.99
  A 0.89 0.88 -23.2 0 1 121.32 113.50
  L 136.66 164.20
  Z"
/>
<path fill="#78624d" d="
  M 169.26 147.97
  L 185.15 201.21
  Q 184.60 201.96 184.63 201.49
  Q 169.25 208.56 153.94 215.94
  Q 153.58 216.11 152.45 215.97
  L 136.85 164.79
  Q 136.80 164.64 136.87 164.49
  Q 137.01 164.19 137.08 164.43
  L 169.26 147.97
  Z"
/>
<path fill="#5c3d2f" d="
  M 136.66 164.20
  Q 136.91 164.20 137.08 164.43
  Q 137.01 164.19 136.87 164.49
  Q 136.80 164.64 136.85 164.79
  L 152.45 215.97
  L 152.12 216.56
  L 121.72 230.87
  Q 121.05 230.54 121.04 230.87
  Q 121.28 230.11 121.17 229.77
  Q 113.52 204.93 106.08 180.38
  Q 121.28 173.07 135.97 164.94
  Q 136.23 164.80 136.66 164.20
  Z"
/>
<path fill="#5c3d2f" d="
  M 219.72 185.50
  L 235.08 238.21
  Q 235.11 238.32 235.43 238.82
  Q 235.52 238.96 235.60 239.15
  Q 234.92 239.69 235.13 239.31
  L 200.69 253.69
  Q 199.90 253.71 200.32 253.89
  Q 200.32 253.64 200.35 253.48
  A 1.34 1.30 44.0 0 0 200.33 252.88
  Q 193.28 228.94 186.21 205.01
  Q 185.48 202.54 184.63 201.49
  Q 184.60 201.96 185.15 201.21
  Q 202.09 193.26 218.56 185.56
  Q 218.83 185.44 219.72 185.50
  Z"
/>
<path fill="#3d1f1c" d="
  M 184.63 201.49
  Q 185.48 202.54 186.21 205.01
  Q 193.28 228.94 200.33 252.88
  A 1.34 1.30 44.0 0 1 200.35 253.48
  Q 200.32 253.64 200.32 253.89
  Q 184.54 260.68 168.56 267.06
  Q 168.46 267.34 168.03 267.00
  L 152.12 216.56
  L 152.45 215.97
  Q 153.58 216.11 153.94 215.94
  Q 169.25 208.56 184.63 201.49
  Z"
/>
<path fill="#78624d" d="
  M 152.12 216.56
  L 168.03 267.00
  Q 168.01 267.13 167.99 267.29
  A 0.37 0.36 -7.5 0 1 167.77 267.57
  L 138.39 279.59
  A 1.52 1.51 70.2 0 1 136.36 278.63
  L 121.72 230.87
  L 152.12 216.56
  Z"
/>
<path fill="#78624d" d="
  M 287.54 278.51
  Q 287.70 278.81 286.77 279.23
  L 250.89 292.57
  Q 243.27 267.06 236.30 241.99
  Q 235.96 240.79 235.13 239.31
  Q 234.92 239.69 235.60 239.15
  L 271.28 224.34
  Q 272.19 223.96 272.46 224.91
  L 287.54 278.51
  Z"
/>
<path fill="#6b4f3d" d="
  M 121.04 230.87
  Q 121.05 230.54 121.72 230.87
  L 136.36 278.63
  A 1.52 1.51 70.2 0 0 138.39 279.59
  L 167.77 267.57
  A 0.37 0.36 -7.5 0 0 167.99 267.29
  Q 168.01 267.13 168.03 267.00
  Q 168.46 267.34 168.56 267.06
  Q 184.54 260.68 200.32 253.89
  Q 199.90 253.71 200.69 253.69
  L 215.94 305.49
  L 183.56 317.57
  Q 183.29 317.67 183.28 317.95
  Q 183.27 318.16 183.16 318.27
  Q 181.98 318.15 181.56 318.30
  Q 166.86 323.54 153.08 328.75
  Q 151.86 329.22 151.48 327.97
  L 137.08 281.45
  A 1.03 1.02 -19.8 0 0 135.71 280.81
  L 107.82 292.52
  Q 107.33 292.73 107.18 292.23
  L 92.51 245.25
  A 0.82 0.81 68.9 0 1 92.94 244.27
  L 121.04 230.87
  Z"
/>
<path fill="#3d1f1c" d="
  M 235.13 239.31
  Q 235.96 240.79 236.30 241.99
  Q 243.27 267.06 250.89 292.57
  L 266.17 345.21
  L 232.98 355.70
  Q 231.08 356.31 230.51 354.39
  L 215.94 305.49
  L 200.69 253.69
  L 235.13 239.31
  Z"
/>
<path fill="#6b4f3d" d="
  M 303.15 333.04
  Q 292.61 295.73 288.00 280.25
  Q 287.66 279.11 286.77 279.23
  Q 287.70 278.81 287.54 278.51
  Q 288.11 278.94 288.51 278.79
  Q 307.11 271.84 325.78 264.97
  A 1.09 1.09 0.0 0 1 327.20 265.70
  L 342.34 319.94
  A 0.54 0.54 0.0 0 1 341.99 320.60
  L 303.15 333.04
  Z"
/>
<path fill="#5c3d2f" d="
  M 286.77 279.23
  Q 287.66 279.11 288.00 280.25
  Q 292.61 295.73 303.15 333.04
  Q 303.21 333.10 303.28 333.17
  L 266.21 345.08
  Q 266.19 345.15 266.17 345.21
  L 250.89 292.57
  L 286.77 279.23
  Z"
/>
<path fill="#79583f" d="
  M 474.05 298.83
  L 474.02 362.13
  L 440.71 368.99
  A 0.81 0.81 0.0 0 0 440.06 369.78
  L 440.16 429.53
  Q 439.66 429.39 439.50 429.63
  L 334.73 443.04
  L 320.78 394.55
  Q 323.01 393.69 325.26 393.21
  Q 366.74 384.41 408.43 375.87
  Q 408.94 375.76 408.94 375.24
  Q 409.13 348.01 408.96 320.71
  C 408.95 319.89 408.58 319.08 408.47 318.18
  L 474.05 298.83
  Z"
/>
<path fill="#a27554" d="
  M 474.05 298.83
  L 571.96 314.03
  L 571.85 322.12
  L 486.72 324.85
  A 1.76 1.76 0.0 0 0 485.02 326.56
  L 484.01 363.01
  L 474.02 362.13
  L 474.05 298.83
  Z"
/>
<path fill="#78624d" d="
  M 215.94 305.49
  L 230.51 354.39
  Q 231.08 356.31 232.98 355.70
  L 266.17 345.21
  Q 266.19 345.15 266.21 345.08
  L 281.05 396.60
  L 266.21 400.99
  L 247.41 406.19
  A 1.52 1.52 0.0 0 1 245.55 405.17
  L 231.38 357.40
  A 0.91 0.90 73.2 0 0 230.25 356.79
  L 199.20 366.68
  A 1.29 1.29 0.0 0 1 197.58 365.83
  L 183.16 318.27
  Q 183.27 318.16 183.28 317.95
  Q 183.29 317.67 183.56 317.57
  L 215.94 305.49
  Z"
/>
<path fill="#be8963" d="
  M 571.96 314.03
  L 731.10 338.81
  L 731.05 389.12
  A 1.22 1.21 3.2 0 1 729.70 390.32
  C 679.71 384.81 630.03 379.11 580.23 373.89
  C 578.37 373.70 576.45 372.99 574.45 372.70
  L 576.53 322.83
  A 0.78 0.77 -90.0 0 0 575.73 322.02
  L 571.85 322.12
  L 571.96 314.03
  Z"
/>
<path fill="#8e674a" d="
  M 408.47 318.18
  C 408.58 319.08 408.95 319.89 408.96 320.71
  Q 409.13 348.01 408.94 375.24
  Q 408.94 375.76 408.43 375.87
  Q 366.74 384.41 325.26 393.21
  Q 323.01 393.69 320.78 394.55
  L 307.51 347.74
  L 408.47 318.18
  Z"
/>
<path fill="#1a191d" d="
  M 571.85 322.12
  L 575.73 322.02
  A 0.78 0.77 -90.0 0 1 576.53 322.83
  L 574.45 372.70
  L 573.85 382.01
  Q 573.78 383.19 574.96 383.09
  L 613.05 379.99
  Q 614.00 379.91 613.96 380.86
  L 611.45 434.74
  Q 611.43 437.07 608.26 437.53
  Q 590.31 440.14 572.36 442.69
  Q 572.04 442.73 571.74 442.61
  Q 571.60 442.55 571.39 442.49
  L 573.94 383.81
  Q 573.96 383.34 573.50 383.38
  L 530.78 387.15
  Q 530.27 387.20 530.26 387.70
  L 528.31 449.26
  L 527.16 483.99
  L 481.45 483.17
  C 481.01 481.31 482.09 478.91 482.05 476.93
  Q 481.59 451.98 482.92 427.06
  Q 482.94 426.68 482.47 426.06
  L 484.01 363.01
  L 485.02 326.56
  A 1.76 1.76 0.0 0 1 486.72 324.85
  L 571.85 322.12
  Z"
/>
<path fill="#3d1f1c" d="
  M 303.28 333.17
  L 307.51 347.74
  L 320.78 394.55
  L 334.73 443.04
  L 346.77 486.76
  L 330.97 487.61
  L 307.81 488.81
  L 295.89 447.93
  L 285.60 413.13
  L 282.73 402.15
  L 281.05 396.60
  L 266.21 345.08
  L 303.28 333.17
  Z"
/>
<path fill="#a27554" d="
  M 731.10 338.81
  L 795.44 348.93
  Q 795.95 349.01 795.94 349.53
  L 795.78 360.40
  L 765.86 350.49
  Q 765.41 350.34 765.29 350.80
  L 752.16 401.08
  Q 752.00 401.72 751.36 401.54
  L 714.44 391.02
  A 1.08 1.08 0.0 0 0 713.10 391.79
  L 700.54 440.44
  L 611.45 434.74
  L 613.96 380.86
  Q 614.00 379.91 613.05 379.99
  L 574.96 383.09
  Q 573.78 383.19 573.85 382.01
  L 574.45 372.70
  C 576.45 372.99 578.37 373.70 580.23 373.89
  C 630.03 379.11 679.71 384.81 729.70 390.32
  A 1.22 1.21 3.2 0 0 731.05 389.12
  L 731.10 338.81
  Z"
/>
<path fill="#1a191d" d="
  M 795.78 360.40
  L 835.14 373.52
  A 1.17 1.16 16.9 0 1 835.90 374.93
  L 804.50 491.76
  L 768.13 490.65
  L 775.61 462.09
  L 788.61 412.74
  Q 788.72 412.33 788.30 412.21
  L 753.00 402.18
  A 1.04 1.04 0.0 0 0 751.72 402.91
  L 738.73 452.66
  Q 720.14 448.03 701.75 443.25
  Q 698.76 442.47 700.54 440.44
  L 713.10 391.79
  A 1.08 1.08 0.0 0 1 714.44 391.02
  L 751.36 401.54
  Q 752.00 401.72 752.16 401.08
  L 765.29 350.80
  Q 765.41 350.34 765.86 350.49
  L 795.78 360.40
  Z"
/>
<path fill="#8e5c49" d="
  M 484.01 363.01
  L 482.47 426.06
  L 473.91 425.23
  L 474.02 362.13
  L 484.01 363.01
  Z"
/>
<path fill="#6a4537" d="
  M 474.02 362.13
  L 473.91 425.23
  Q 473.95 425.35 473.99 425.48
  L 440.16 429.53
  L 440.06 369.78
  A 0.81 0.81 0.0 0 1 440.71 368.99
  L 474.02 362.13
  Z"
/>
<path fill="#6b4f3d" d="
  M 212.58 415.42
  A 0.20 0.20 0.0 0 1 212.44 415.67
  L 185.75 423.73
  A 4.82 0.94 -16.8 0 1 180.87 424.22
  L 166.86 377.81
  A 4.82 0.94 -16.8 0 1 171.20 375.52
  L 197.89 367.46
  A 0.20 0.20 0.0 0 1 198.14 367.59
  L 212.58 415.42
  Z"
/>
<path fill="#a498b7" d="
  M 571.39 442.49
  Q 571.69 442.26 571.29 442.99
  L 528.99 448.62
  Q 528.60 448.67 528.42 449.02
  L 528.31 449.26
  L 530.26 387.70
  Q 530.27 387.20 530.78 387.15
  L 573.50 383.38
  Q 573.96 383.34 573.94 383.81
  L 571.39 442.49
  Z"
/>
<path fill="#79583f" d="
  M 281.05 396.60
  L 282.73 402.15
  L 266.02 405.68
  L 266.21 400.99
  L 281.05 396.60
  Z"
/>
<path fill="#6a4537" d="
  M 282.73 402.15
  L 285.60 413.13
  Q 284.44 431.58 285.14 449.12
  Q 284.96 449.13 284.78 449.14
  L 266.05 451.04
  L 266.02 405.68
  L 282.73 402.15
  Z"
/>
<path fill="#a498b7" d="
  M 775.61 462.09
  L 738.89 452.80
  Q 738.79 453.28 738.73 452.66
  L 751.72 402.91
  A 1.04 1.04 0.0 0 1 753.00 402.18
  L 788.30 412.21
  Q 788.72 412.33 788.61 412.74
  L 775.61 462.09
  Z"
/>
<path fill="#79583f" d="
  M 285.60 413.13
  L 295.89 447.93
  L 285.14 449.12
  Q 284.44 431.58 285.60 413.13
  Z"
/>
<path fill="#292929" d="
  M 473.91 425.23
  L 482.47 426.06
  Q 482.94 426.68 482.92 427.06
  Q 481.59 451.98 482.05 476.93
  C 482.09 478.91 481.01 481.31 481.45 483.17
  L 473.98 482.84
  L 473.99 425.48
  Q 473.95 425.35 473.91 425.23
  Z"
/>
<path fill="#1f1f1f" d="
  M 473.99 425.48
  L 473.98 482.84
  L 440.00 481.94
  Q 440.00 457.56 440.00 433.14
  C 440.00 431.88 439.45 430.89 439.50 429.63
  Q 439.66 429.39 440.16 429.53
  L 473.99 425.48
  Z"
/>
<path fill="#292929" d="
  M 439.50 429.63
  C 439.45 430.89 440.00 431.88 440.00 433.14
  Q 440.00 457.56 440.00 481.94
  L 436.12 481.96
  L 346.77 486.76
  L 334.73 443.04
  L 439.50 429.63
  Z"
/>
<path fill="#333333" d="
  M 611.45 434.74
  L 700.54 440.44
  Q 698.76 442.47 701.75 443.25
  Q 720.14 448.03 738.73 452.66
  Q 738.79 453.28 738.89 452.80
  L 732.09 478.57
  Q 731.96 479.08 732.29 479.49
  Q 736.88 485.27 743.47 489.87
  L 606.95 486.30
  L 555.26 484.91
  L 569.05 474.48
  A 2.01 2.00 -17.4 0 0 569.84 472.97
  L 571.29 442.99
  Q 571.69 442.26 571.39 442.49
  Q 571.60 442.55 571.74 442.61
  Q 572.04 442.73 572.36 442.69
  Q 590.31 440.14 608.26 437.53
  Q 611.43 437.07 611.45 434.74
  Z"
/>
<path fill="#cabfdc" d="
  M 571.29 442.99
  L 569.84 472.97
  A 2.01 2.00 -17.4 0 1 569.05 474.48
  L 555.26 484.91
  L 527.16 483.99
  L 528.31 449.26
  L 528.42 449.02
  Q 528.60 448.67 528.99 448.62
  L 571.29 442.99
  Z"
/>
<path fill="#292929" d="
  M 295.89 447.93
  L 307.81 488.81
  L 284.94 490.08
  L 284.78 449.14
  Q 284.96 449.13 285.14 449.12
  L 295.89 447.93
  Z"
/>
<path fill="#1f1f1f" d="
  M 284.78 449.14
  L 284.94 490.08
  L 266.10 491.40
  L 266.05 451.04
  L 284.78 449.14
  Z"
/>
<path fill="#cabfdc" d="
  M 738.89 452.80
  L 775.61 462.09
  L 768.13 490.65
  L 743.47 489.87
  Q 736.88 485.27 732.29 479.49
  Q 731.96 479.08 732.09 478.57
  L 738.89 452.80
  Z"
/>
<path fill="#6a4537" d="
  M 436.12 481.96
  Q 435.51 519.80 436.76 557.50
  L 331.07 552.06
  L 330.97 487.61
  L 346.77 486.76
  L 436.12 481.96
  Z"
/>
<path fill="#8e5c49" d="
  M 436.12 481.96
  L 440.00 481.94
  L 473.98 482.84
  L 481.45 483.17
  L 527.16 483.99
  L 555.26 484.91
  L 606.95 486.30
  Q 607.04 519.01 607.00 551.75
  Q 607.00 553.30 607.98 553.42
  L 571.04 554.27
  L 525.00 555.43
  L 475.24 556.67
  L 436.76 557.50
  Q 435.51 519.80 436.12 481.96
  Z"
/>
<path fill="#a27554" d="
  M 606.95 486.30
  L 743.47 489.87
  L 768.13 490.65
  L 804.50 491.76
  L 850.07 493.27
  L 850.07 546.98
  L 795.87 548.45
  L 764.04 549.23
  L 730.02 550.25
  L 694.15 551.22
  L 615.04 553.17
  L 607.98 553.42
  Q 607.00 553.30 607.00 551.75
  Q 607.04 519.01 606.95 486.30
  Z"
/>
<path fill="#79583f" d="
  M 330.97 487.61
  L 331.07 552.06
  L 266.53 548.65
  L 191.87 544.78
  L 191.76 495.47
  L 266.10 491.40
  L 284.94 490.08
  L 307.81 488.81
  L 330.97 487.61
  Z"
/>
<path fill="#8e5c49" d="
  M 850.07 493.27
  L 938.63 495.61
  A 1.41 1.40 -89.4 0 1 940.00 497.02
  L 940.00 544.24
  Q 940.00 544.85 939.39 544.86
  L 850.07 546.98
  L 850.07 493.27
  Z"
/>
<path fill="#6a4537" d="
  M 191.76 495.47
  L 191.87 544.78
  L 145.03 542.33
  A 1.09 1.08 -88.6 0 1 144.00 541.24
  L 144.00 498.75
  A 0.71 0.71 0.0 0 1 144.67 498.04
  L 191.76 495.47
  Z"
/>
<path fill="#111115" d="
  M 266.53 548.65
  L 331.07 552.06
  L 436.76 557.50
  L 475.24 556.67
  L 474.99 614.91
  L 266.01 588.95
  L 266.53 548.65
  Z"
/>
<path fill="#1a191d" d="
  M 795.87 548.45
  L 795.93 594.63
  Q 790.22 593.50 784.17 594.31
  C 777.54 595.19 771.51 594.82 765.05 595.68
  Q 764.82 596.51 764.02 595.23
  L 764.04 549.23
  L 795.87 548.45
  Z"
/>
<path fill="#9a92a3" d="
  M 764.04 549.23
  L 764.02 595.23
  L 763.99 595.82
  L 730.07 597.92
  L 730.02 550.25
  L 764.04 549.23
  Z"
/>
<path fill="#2a3295" d="
  M 730.02 550.25
  L 730.07 597.92
  Q 730.07 597.86 730.06 597.79
  L 694.06 600.02
  L 694.15 551.22
  L 730.02 550.25
  Z"
/>
<path fill="#1a191d" d="
  M 694.15 551.22
  L 694.06 600.02
  Q 694.04 599.99 694.02 599.95
  C 687.78 601.34 679.68 601.08 675.35 601.42
  Q 645.20 603.75 615.01 605.31
  L 615.04 553.17
  L 694.15 551.22
  Z"
/>
<path fill="#2a3295" d="
  M 607.98 553.42
  L 615.04 553.17
  L 615.01 605.31
  Q 615.00 605.56 614.99 605.81
  L 571.02 608.26
  L 571.04 554.27
  L 607.98 553.42
  Z"
/>
<path fill="#9a92a3" d="
  M 571.04 554.27
  L 571.02 608.26
  Q 571.01 608.44 571.01 608.62
  L 525.00 611.05
  L 525.00 555.43
  L 571.04 554.27
  Z"
/>
<path fill="#1a191d" d="
  M 525.00 555.43
  L 525.00 611.05
  L 524.99 612.18
  C 517.05 611.64 510.01 612.68 502.54 612.98
  C 496.36 613.23 489.94 614.25 483.49 614.01
  C 480.54 613.90 478.22 615.36 474.99 614.91
  L 475.24 556.67
  L 525.00 555.43
  Z"
/>
<path fill="#1a191d" d="
  M 474.99 614.91
  L 474.99 783.58
  L 470.93 784.90
  Q 469.97 785.22 470.23 786.19
  L 474.48 802.44
  Q 469.61 801.03 459.46 797.25
  Q 362.96 761.35 266.80 725.41
  A 1.23 1.22 10.5 0 1 266.01 724.27
  L 266.01 588.95
  L 474.99 614.91
  Z"
/>
<path fill="#232126" d="
  M 795.93 594.63
  Q 796.36 651.65 795.67 676.19
  Q 794.81 706.43 794.91 720.06
  L 793.18 719.99
  Q 792.53 717.56 790.69 715.59
  A 0.79 0.79 0.0 0 0 789.35 715.89
  Q 789.04 716.92 788.02 717.31
  L 782.50 670.00
  Q 782.43 669.47 781.91 669.44
  L 748.59 667.19
  L 713.80 664.97
  A 0.88 0.88 0.0 0 0 712.86 665.93
  L 716.00 703.62
  L 693.93 706.92
  L 693.96 655.12
  Q 693.96 653.65 692.50 653.81
  L 615.32 662.32
  A 0.30 0.30 0.0 0 0 615.05 662.62
  L 615.09 719.01
  L 605.00 720.79
  L 593.66 679.54
  Q 593.52 679.03 593.01 679.18
  L 550.06 692.44
  L 504.64 706.23
  A 1.10 1.10 0.0 0 0 503.90 707.57
  L 519.63 767.30
  Q 520.07 767.58 519.32 767.85
  Q 497.24 775.77 474.99 783.58
  L 474.99 614.91
  C 478.22 615.36 480.54 613.90 483.49 614.01
  C 489.94 614.25 496.36 613.23 502.54 612.98
  C 510.01 612.68 517.05 611.64 524.99 612.18
  L 525.00 671.14
  Q 525.00 672.27 526.12 672.15
  L 571.03 667.16
  L 613.78 662.54
  Q 614.99 662.41 614.99 661.19
  L 614.99 605.81
  Q 615.00 605.56 615.01 605.31
  Q 645.20 603.75 675.35 601.42
  C 679.68 601.08 687.78 601.34 694.02 599.95
  L 694.03 652.91
  Q 694.03 653.41 694.53 653.36
  L 730.19 649.71
  L 763.26 645.99
  A 0.83 0.82 86.9 0 0 763.99 645.17
  L 763.99 595.82
  L 764.02 595.23
  Q 764.82 596.51 765.05 595.68
  C 771.51 594.82 777.54 595.19 784.17 594.31
  Q 790.22 593.50 795.93 594.63
  Z"
/>
<path fill="#cccccc" d="
  M 763.99 595.82
  L 763.99 645.17
  A 0.83 0.82 86.9 0 1 763.26 645.99
  L 730.19 649.71
  L 730.06 597.79
  Q 730.07 597.86 730.07 597.92
  L 763.99 595.82
  Z"
/>
<path fill="#2e4da3" d="
  M 730.06 597.79
  L 730.19 649.71
  L 694.53 653.36
  Q 694.03 653.41 694.03 652.91
  L 694.02 599.95
  Q 694.04 599.99 694.06 600.02
  L 730.06 597.79
  Z"
/>
<path fill="#2e4da3" d="
  M 614.99 605.81
  L 614.99 661.19
  Q 614.99 662.41 613.78 662.54
  L 571.03 667.16
  L 571.01 608.62
  Q 571.01 608.44 571.02 608.26
  L 614.99 605.81
  Z"
/>
<path fill="#cccccc" d="
  M 571.01 608.62
  L 571.03 667.16
  L 526.12 672.15
  Q 525.00 672.27 525.00 671.14
  L 524.99 612.18
  L 525.00 611.05
  L 571.01 608.62
  Z"
/>
<path fill="#995b91" d="
  M 693.93 706.92
  L 615.09 719.01
  L 615.05 662.62
  A 0.30 0.30 0.0 0 1 615.32 662.32
  L 692.50 653.81
  Q 693.96 653.65 693.96 655.12
  L 693.93 706.92
  Z"
/>
<path fill="#a498b7" d="
  M 748.59 667.19
  L 754.19 718.24
  Q 754.24 718.72 754.72 718.73
  L 788.04 719.56
  L 793.18 719.99
  L 794.91 720.06
  L 819.78 720.09
  Q 820.38 720.09 820.46 720.69
  L 826.71 769.30
  A 0.58 0.57 86.0 0 1 826.15 769.95
  L 760.51 771.19
  Q 759.97 771.21 759.91 770.67
  L 757.28 746.83
  L 754.21 719.94
  Q 754.10 718.93 753.09 718.89
  L 730.01 717.92
  L 718.46 717.95
  Q 717.92 717.96 717.86 717.42
  C 717.51 714.00 717.62 706.14 716.00 703.62
  L 712.86 665.93
  A 0.88 0.88 0.0 0 1 713.80 664.97
  L 748.59 667.19
  Z"
/>
<path fill="#cabfdc" d="
  M 748.59 667.19
  L 781.91 669.44
  Q 782.43 669.47 782.50 670.00
  L 788.02 717.31
  L 788.04 719.56
  L 754.72 718.73
  Q 754.24 718.72 754.19 718.24
  L 748.59 667.19
  Z"
/>
<path fill="#a498b7" d="
  M 605.00 720.79
  L 608.83 735.28
  Q 609.00 735.95 608.35 736.18
  Q 590.82 742.47 573.22 748.66
  Q 571.12 749.40 571.01 750.29
  Q 568.70 749.72 566.06 751.51
  L 550.06 692.44
  L 593.01 679.18
  Q 593.52 679.03 593.66 679.54
  L 605.00 720.79
  Z"
/>
<path fill="#cabfdc" d="
  M 550.06 692.44
  L 566.06 751.51
  L 519.63 767.30
  L 503.90 707.57
  A 1.10 1.10 0.0 0 1 504.64 706.23
  L 550.06 692.44
  Z"
/>
<path fill="#cabfdc" d="
  M 716.00 703.62
  C 717.62 706.14 717.51 714.00 717.86 717.42
  Q 717.92 717.96 718.46 717.95
  L 730.01 717.92
  L 730.03 752.60
  L 574.81 783.35
  L 571.14 770.52
  L 571.01 750.29
  Q 571.12 749.40 573.22 748.66
  Q 590.82 742.47 608.35 736.18
  Q 609.00 735.95 608.83 735.28
  L 605.00 720.79
  L 615.09 719.01
  L 693.93 706.92
  L 716.00 703.62
  Z"
/>
<path fill="#000000" d="
  M 793.18 719.99
  L 788.04 719.56
  L 788.02 717.31
  Q 789.04 716.92 789.35 715.89
  A 0.79 0.79 0.0 0 1 790.69 715.59
  Q 792.53 717.56 793.18 719.99
  Z"
/>
<path fill="#232126" d="
  M 730.01 717.92
  L 753.09 718.89
  Q 754.10 718.93 754.21 719.94
  L 757.28 746.83
  L 730.03 752.60
  L 730.01 717.92
  Z"
/>
<path fill="#232126" d="
  M 571.01 750.29
  L 571.14 770.52
  L 566.06 751.51
  Q 568.70 749.72 571.01 750.29
  Z"
/>
<path fill="#a498b7" d="
  M 566.06 751.51
  L 571.14 770.52
  L 574.81 783.35
  L 581.90 810.03
  A 0.47 0.45 71.6 0 1 581.64 810.57
  L 487.32 849.09
  A 0.71 0.70 71.7 0 1 486.37 848.61
  L 474.48 802.44
  L 470.23 786.19
  Q 469.97 785.22 470.93 784.90
  L 474.99 783.58
  Q 497.24 775.77 519.32 767.85
  Q 520.07 767.58 519.63 767.30
  L 566.06 751.51
  Z"
/>
</svg>
