<?xml version="1.0" encoding="UTF-8" standalone="no"?>
<!DOCTYPE svg PUBLIC "-//W3C//DTD SVG 1.1//EN" "http://www.w3.org/Graphics/SVG/1.1/DTD/svg11.dtd">
<svg xmlns="http://www.w3.org/2000/svg" version="1.1" viewBox="0.00 0.00 1062.00 1062.00">
<g stroke-width="2.00" fill="none" stroke-linecap="butt">
<path stroke="#808080" vector-effect="non-scaling-stroke" d="
  M 156.26 457.03
  Q 141.59 457.62 137.51 458.49
  Q 115.32 463.25 107.06 483.04
  C 102.65 493.62 104.12 504.25 104.00 515.30
  C 103.87 527.24 102.66 542.38 105.50 552.56
  C 110.76 571.37 127.81 582.18 146.75 582.99
  Q 185.89 584.66 225.00 586.97
  A 1.06 1.06 0.0 0 1 226.00 588.03
  Q 226.01 654.09 226.00 720.58
  Q 225.99 729.65 227.33 734.68
  C 232.28 753.33 245.07 760.57 262.26 766.98
  Q 351.41 800.22 440.60 833.46
  Q 441.10 833.65 441.23 834.16
  C 443.96 844.85 446.33 858.91 450.50 867.31
  C 458.24 882.91 476.47 891.21 493.29 888.81
  Q 499.21 887.97 510.70 883.28
  Q 549.49 867.46 588.26 851.59
  Q 601.58 846.14 606.13 842.74
  Q 618.90 833.21 621.62 816.07
  A 1.10 1.09 88.9 0 1 622.48 815.17
  L 727.30 794.30
  Q 727.79 794.21 728.05 794.62
  C 734.93 805.43 748.95 811.12 761.25 811.05
  Q 791.65 810.88 822.03 810.01
  Q 833.75 809.67 838.81 808.13
  C 852.94 803.84 863.54 791.74 866.26 777.24
  C 867.31 771.67 866.93 764.95 866.20 759.21
  Q 863.60 738.73 860.99 718.24
  Q 857.95 694.36 836.52 683.62
  Q 836.00 683.36 836.00 682.77
  L 836.00 587.50
  A 0.39 0.39 0.0 0 1 836.39 587.11
  Q 881.82 586.54 927.31 585.10
  C 933.97 584.89 941.43 585.56 947.48 584.17
  C 968.47 579.35 980.23 563.41 980.04 541.90
  Q 979.90 524.85 980.04 507.83
  Q 980.16 493.36 979.01 487.91
  C 974.09 464.59 954.45 455.44 932.25 455.08
  Q 895.90 454.48 858.56 453.16
  Q 856.82 453.10 857.27 451.42
  Q 865.79 419.24 874.63 386.22
  C 879.68 367.37 871.67 348.95 855.95 339.10
  C 849.21 334.88 839.82 332.32 831.60 329.84
  Q 831.12 329.70 830.85 329.27
  Q 819.75 311.72 799.43 308.55
  Q 648.91 285.06 498.39 261.54
  Q 482.76 259.09 478.57 258.99
  Q 467.18 258.72 455.07 262.31
  Q 415.40 274.06 375.37 285.74
  A 0.58 0.57 73.9 0 1 374.66 285.34
  Q 370.79 271.55 366.85 257.58
  C 360.42 234.74 341.20 221.51 316.96 225.58
  Q 314.35 226.02 313.89 223.06
  C 311.59 208.29 303.44 195.81 290.63 188.73
  Q 290.19 188.49 290.44 188.05
  C 297.70 175.26 297.01 164.76 292.96 150.09
  Q 287.10 128.88 280.95 107.75
  Q 277.73 96.68 274.75 91.77
  C 265.87 77.14 247.81 69.22 230.87 72.64
  Q 225.22 73.78 214.60 79.14
  Q 188.15 92.50 161.96 106.41
  Q 161.53 106.64 161.41 106.16
  C 154.99 80.68 128.81 65.91 104.02 76.04
  Q 101.58 77.03 87.03 85.17
  C 69.75 94.83 54.97 101.79 51.56 123.60
  Q 49.80 134.88 53.56 147.20
  Q 62.76 177.35 72.03 207.49
  Q 72.60 209.31 71.16 210.07
  C 58.36 216.82 51.73 232.38 52.09 245.88
  Q 52.22 251.05 54.54 258.91
  Q 60.85 280.31 67.75 301.54
  C 74.27 321.63 87.83 333.20 110.07 333.12
  A 1.02 1.02 0.0 0 1 111.07 333.93
  Q 114.81 351.58 129.43 361.94
  Q 129.88 362.26 129.70 362.78
  Q 124.98 376.22 127.96 388.51
  Q 130.92 400.72 142.61 436.84
  Q 145.55 445.92 153.35 453.99
  C 154.18 454.85 155.58 455.50 156.51 456.39
  Q 157.13 457.00 156.26 457.03"
/>
<path stroke="#3c3127" vector-effect="non-scaling-stroke" d="
  M 169.26 147.98
  L 137.08 164.43"
/>
<path stroke="#35231c" vector-effect="non-scaling-stroke" d="
  M 137.08 164.43
  Q 137.03 164.24 136.66 164.20"
/>
<path stroke="#36281f" vector-effect="non-scaling-stroke" d="
  M 136.66 164.20
  L 121.32 113.50
  A 0.88 0.88 0.0 0 0 120.04 112.99
  L 91.71 129.17
  Q 90.54 129.84 90.94 131.13
  L 106.08 180.37"
/>
<path stroke="#35231c" vector-effect="non-scaling-stroke" d="
  M 106.08 180.37
  Q 113.53 204.94 121.17 229.77
  Q 121.28 230.11 121.04 230.87"
/>
<path stroke="#36281f" vector-effect="non-scaling-stroke" d="
  M 121.04 230.87
  L 92.94 244.27
  A 0.82 0.81 68.9 0 0 92.51 245.25
  L 107.18 292.23
  Q 107.33 292.73 107.82 292.52
  L 135.71 280.81
  A 1.03 1.02 -19.8 0 1 137.08 281.45
  L 151.48 327.97
  Q 151.86 329.22 153.08 328.75
  Q 166.86 323.54 181.56 318.30
  Q 181.98 318.15 183.16 318.27"
/>
<path stroke="#3c3127" vector-effect="non-scaling-stroke" d="
  M 183.16 318.27
  L 197.58 365.83
  A 1.29 1.29 0.0 0 0 199.20 366.68
  L 230.25 356.79
  A 0.91 0.90 73.2 0 1 231.38 357.40
  L 245.55 405.17
  A 1.52 1.52 0.0 0 0 247.41 406.19
  L 266.21 400.99"
/>
<path stroke="#3d2c20" vector-effect="non-scaling-stroke" d="
  M 266.21 400.99
  L 266.02 405.68"
/>
<path stroke="#35231c" vector-effect="non-scaling-stroke" d="
  M 266.02 405.68
  L 266.06 451.04"
/>
<path stroke="#131313" vector-effect="non-scaling-stroke" d="
  M 266.06 451.04
  L 266.11 491.38"
/>
<path stroke="#3d2c20" vector-effect="non-scaling-stroke" d="
  M 266.11 491.38
  L 191.93 495.45"
/>
<path stroke="#35231c" vector-effect="non-scaling-stroke" d="
  M 191.93 495.45
  L 144.68 498.04
  A 0.72 0.72 0.0 0 0 144.00 498.76
  L 144.00 541.25
  A 1.07 1.06 -88.6 0 0 145.01 542.32
  L 191.92 544.78"
/>
<path stroke="#3d2c20" vector-effect="non-scaling-stroke" d="
  M 191.92 544.78
  L 266.72 548.66"
/>
<path stroke="#0d0d0f" vector-effect="non-scaling-stroke" d="
  M 266.72 548.66
  Q 266.02 550.81 266.02 552.69
  Q 265.99 638.59 266.00 724.07
  A 1.49 1.48 10.2 0 0 266.97 725.46
  L 474.52 802.81"
/>
<path stroke="#524c5c" vector-effect="non-scaling-stroke" d="
  M 474.52 802.81
  L 486.36 848.62
  A 0.71 0.71 0.0 0 0 487.32 849.10
  L 581.64 810.57
  A 0.47 0.47 0.0 0 0 581.91 810.02
  L 574.81 783.36"
/>
<path stroke="#5e5966" vector-effect="non-scaling-stroke" d="
  M 574.81 783.36
  L 729.99 752.62"
/>
<path stroke="#0d0d0f" vector-effect="non-scaling-stroke" d="
  M 729.99 752.62
  L 757.28 746.84"
/>
<path stroke="#524c5c" vector-effect="non-scaling-stroke" d="
  M 757.28 746.84
  L 759.91 770.66
  Q 759.97 771.20 760.51 771.19
  L 825.71 769.96
  Q 826.79 769.94 826.65 768.86
  L 820.44 720.50
  Q 820.38 720.05 819.92 720.04
  L 794.80 720.02"
/>
<path stroke="#0d0d0f" vector-effect="non-scaling-stroke" d="
  M 794.80 720.02
  Q 794.98 709.89 795.05 699.82
  C 795.14 686.15 795.88 671.42 795.93 657.19
  Q 796.13 602.93 795.92 548.45"
/>
<path stroke="#513b2a" vector-effect="non-scaling-stroke" d="
  M 795.92 548.45
  L 850.05 546.98"
/>
<path stroke="#472e25" vector-effect="non-scaling-stroke" d="
  M 850.05 546.98
  L 939.40 544.86
  Q 940.00 544.85 940.00 544.24
  L 940.00 497.02
  A 1.41 1.41 0.0 0 0 938.63 495.61
  L 850.06 493.28"
/>
<path stroke="#513b2a" vector-effect="non-scaling-stroke" d="
  M 850.06 493.28
  L 800.26 491.63"
/>
<path stroke="#0d0d0f" vector-effect="non-scaling-stroke" d="
  M 800.26 491.63
  Q 799.96 490.55 801.05 490.07
  A 0.72 0.71 -53.6 0 1 801.36 490.02
  L 804.10 490.29
  Q 804.93 490.37 805.14 489.57
  L 835.86 375.00
  A 1.24 1.23 16.8 0 0 835.06 373.51
  L 795.77 360.42"
/>
<path stroke="#513b2a" vector-effect="non-scaling-stroke" d="
  M 795.77 360.42
  L 795.94 349.53
  Q 795.95 349.01 795.44 348.93
  L 731.10 338.81"
/>
<path stroke="#5f4532" vector-effect="non-scaling-stroke" d="
  M 731.10 338.81
  L 572.45 314.11"
/>
<path stroke="#513b2a" vector-effect="non-scaling-stroke" d="
  M 572.45 314.11
  L 473.96 298.83"
/>
<path stroke="#3d2c20" vector-effect="non-scaling-stroke" d="
  M 473.96 298.83
  L 408.87 318.06"
/>
<path stroke="#473425" vector-effect="non-scaling-stroke" d="
  M 408.87 318.06
  L 307.52 347.73"
/>
<path stroke="#1f100e" vector-effect="non-scaling-stroke" d="
  M 307.52 347.73
  L 303.28 333.17"
/>
<path stroke="#35231c" vector-effect="non-scaling-stroke" d="
  M 303.28 333.17
  Q 303.21 333.11 303.15 333.04"
/>
<path stroke="#36281f" vector-effect="non-scaling-stroke" d="
  M 303.15 333.04
  L 341.99 320.60
  A 0.54 0.54 0.0 0 0 342.34 319.94
  L 327.20 265.70
  A 1.09 1.09 0.0 0 0 325.78 264.97
  Q 307.11 271.84 288.51 278.79
  Q 288.11 278.94 287.54 278.50"
/>
<path stroke="#3c3127" vector-effect="non-scaling-stroke" d="
  M 287.54 278.50
  L 272.46 224.91
  Q 272.19 223.97 271.28 224.34
  L 235.61 239.16"
/>
<path stroke="#35231c" vector-effect="non-scaling-stroke" d="
  M 235.61 239.16
  Q 235.52 238.96 235.43 238.82
  Q 235.12 238.33 235.08 238.21
  L 219.72 185.50"
/>
<path stroke="#36281f" vector-effect="non-scaling-stroke" d="
  M 219.72 185.50
  C 219.92 185.18 220.21 184.83 220.57 184.66
  Q 237.96 176.64 255.14 168.52
  A 1.32 1.32 0.0 0 0 255.85 166.96
  L 240.36 112.72
  A 1.09 1.09 0.0 0 0 238.81 112.04
  L 169.26 147.98"
/>
<path stroke="#6b4a3a" vector-effect="non-scaling-stroke" d="
  M 219.72 185.50
  Q 218.83 185.44 218.56 185.56
  Q 202.09 193.25 185.15 201.21"
/>
<path stroke="#725945" vector-effect="non-scaling-stroke" d="
  M 185.15 201.21
  L 169.26 147.98"
/>
<path stroke="#715442" vector-effect="non-scaling-stroke" d="
  M 235.61 239.16
  Q 235.81 238.87 235.14 239.32"
/>
<path stroke="#54322a" vector-effect="non-scaling-stroke" d="
  M 235.14 239.32
  L 200.69 253.70"
/>
<path stroke="#6b4a3a" vector-effect="non-scaling-stroke" d="
  M 200.69 253.70
  Q 199.93 253.70 200.32 253.89"
/>
<path stroke="#54322a" vector-effect="non-scaling-stroke" d="
  M 200.32 253.89
  Q 200.32 253.64 200.35 253.48
  A 1.34 1.30 44.0 0 0 200.33 252.88
  Q 193.28 228.94 186.21 205.01
  Q 185.48 202.54 184.63 201.49"
/>
<path stroke="#715442" vector-effect="non-scaling-stroke" d="
  M 185.15 201.21
  Q 184.59 201.96 184.63 201.49"
/>
<path stroke="#5b4135" vector-effect="non-scaling-stroke" d="
  M 184.63 201.49
  Q 169.25 208.56 153.94 215.94
  Q 153.58 216.11 152.45 215.97"
/>
<path stroke="#715442" vector-effect="non-scaling-stroke" d="
  M 152.45 215.97
  L 136.85 164.79
  Q 136.80 164.64 136.87 164.50
  Q 137.01 164.19 137.08 164.43"
/>
<path stroke="#725945" vector-effect="non-scaling-stroke" d="
  M 287.54 278.50
  Q 287.70 278.82 286.77 279.23"
/>
<path stroke="#715442" vector-effect="non-scaling-stroke" d="
  M 286.77 279.23
  L 250.89 292.57"
/>
<path stroke="#5b4135" vector-effect="non-scaling-stroke" d="
  M 250.89 292.57
  Q 243.27 267.06 236.30 241.99
  Q 235.96 240.78 235.14 239.32"
/>
<path stroke="#54322a" vector-effect="non-scaling-stroke" d="
  M 250.89 292.57
  L 266.17 345.21"
/>
<path stroke="#5b4135" vector-effect="non-scaling-stroke" d="
  M 266.17 345.21
  L 232.98 355.70
  Q 231.08 356.31 230.51 354.39
  L 215.94 305.49"
/>
<path stroke="#54372d" vector-effect="non-scaling-stroke" d="
  M 200.32 253.89
  Q 184.54 260.68 168.56 267.06
  Q 168.46 267.34 168.03 267.00"
/>
<path stroke="#5b4135" vector-effect="non-scaling-stroke" d="
  M 168.03 267.00
  L 152.12 216.56"
/>
<path stroke="#54372d" vector-effect="non-scaling-stroke" d="
  M 200.69 253.70
  L 215.94 305.49"
/>
<path stroke="#725945" vector-effect="non-scaling-stroke" d="
  M 215.94 305.49
  L 183.56 317.57
  Q 183.29 317.67 183.28 317.95
  Q 183.27 318.16 183.16 318.27"
/>
<path stroke="#54322a" vector-effect="non-scaling-stroke" d="
  M 152.45 215.97
  L 152.12 216.56"
/>
<path stroke="#715442" vector-effect="non-scaling-stroke" d="
  M 152.12 216.56
  L 121.72 230.87"
/>
<path stroke="#6b4a3a" vector-effect="non-scaling-stroke" d="
  M 121.72 230.87
  Q 121.05 230.54 121.04 230.87"
/>
<path stroke="#54322a" vector-effect="non-scaling-stroke" d="
  M 303.28 333.17
  L 266.21 345.08"
/>
<path stroke="#715442" vector-effect="non-scaling-stroke" d="
  M 266.21 345.08
  Q 266.19 345.15 266.17 345.21"
/>
<path stroke="#6b4a3a" vector-effect="non-scaling-stroke" d="
  M 303.15 333.04
  Q 292.65 295.87 288.00 280.25
  Q 287.66 279.12 286.77 279.23"
/>
<path stroke="#5b4135" vector-effect="non-scaling-stroke" d="
  M 266.21 345.08
  L 281.05 396.59"
/>
<path stroke="#795d46" vector-effect="non-scaling-stroke" d="
  M 281.05 396.59
  L 266.21 400.99"
/>
<path stroke="#725945" vector-effect="non-scaling-stroke" d="
  M 168.03 267.00
  Q 168.01 267.13 167.99 267.29
  A 0.37 0.36 -7.5 0 1 167.77 267.57
  L 138.39 279.59
  A 1.52 1.51 70.2 0 1 136.36 278.63
  L 121.72 230.87"
/>
<path stroke="#6b4a3a" vector-effect="non-scaling-stroke" d="
  M 136.66 164.20
  Q 136.23 164.79 135.97 164.93
  Q 121.28 173.07 106.08 180.37"
/>
<path stroke="#322321" vector-effect="non-scaling-stroke" d="
  M 334.45 443.09
  L 346.83 486.74"
/>
<path stroke="#54322a" vector-effect="non-scaling-stroke" d="
  M 346.83 486.74
  L 330.97 487.62"
/>
<path stroke="#5b3c2e" vector-effect="non-scaling-stroke" d="
  M 330.97 487.62
  L 307.86 488.87"
/>
<path stroke="#322321" vector-effect="non-scaling-stroke" d="
  M 307.86 488.87
  Q 307.01 484.84 305.97 481.09
  C 304.99 477.56 305.48 474.00 304.69 470.29
  Q 304.59 469.81 304.09 469.78
  Q 303.20 469.73 303.23 468.71
  Q 303.32 465.61 300.98 463.88
  Q 300.56 463.57 300.41 463.08
  L 295.89 447.93"
/>
<path stroke="#5b3c2e" vector-effect="non-scaling-stroke" d="
  M 295.89 447.93
  L 285.57 412.94"
/>
<path stroke="#54322a" vector-effect="non-scaling-stroke" d="
  M 285.57 412.94
  L 282.74 402.15"
/>
<path stroke="#5b3c2e" vector-effect="non-scaling-stroke" d="
  M 282.74 402.15
  L 281.05 396.59"
/>
<path stroke="#724f3b" vector-effect="non-scaling-stroke" d="
  M 282.74 402.15
  L 266.02 405.68"
/>
<path stroke="#8e674a" vector-effect="non-scaling-stroke" d="
  M 473.96 298.83
  L 474.01 362.10"
/>
<path stroke="#724f3b" vector-effect="non-scaling-stroke" d="
  M 474.01 362.10
  L 441.09 368.89
  Q 440.04 369.11 440.04 370.19
  L 440.20 429.52"
/>
<path stroke="#503f33" vector-effect="non-scaling-stroke" d="
  M 440.20 429.52
  L 334.45 443.09"
/>
<path stroke="#5b3c2e" vector-effect="non-scaling-stroke" d="
  M 334.45 443.09
  L 320.78 394.54"
/>
<path stroke="#846045" vector-effect="non-scaling-stroke" d="
  M 320.78 394.54
  L 408.40 375.86
  Q 408.92 375.76 408.92 375.23
  L 408.87 318.06"
/>
<path stroke="#503f33" vector-effect="non-scaling-stroke" d="
  M 307.86 488.87
  L 266.11 491.38"
/>
<path stroke="#503f33" vector-effect="non-scaling-stroke" d="
  M 295.89 447.93
  L 285.12 449.08"
/>
<path stroke="#724f3b" vector-effect="non-scaling-stroke" d="
  M 285.57 412.94
  Q 284.48 431.46 285.12 449.08"
/>
<path stroke="#48362f" vector-effect="non-scaling-stroke" d="
  M 285.12 449.08
  L 266.06 451.04"
/>
<path stroke="#664333" vector-effect="non-scaling-stroke" d="
  M 320.78 394.54
  L 307.52 347.73"
/>
<path stroke="#7c5140" vector-effect="non-scaling-stroke" d="
  M 436.12 481.95
  Q 435.51 519.82 436.76 557.49"
/>
<path stroke="#422f2a" vector-effect="non-scaling-stroke" d="
  M 436.76 557.49
  L 331.07 552.05"
/>
<path stroke="#724f3b" vector-effect="non-scaling-stroke" d="
  M 331.07 552.05
  L 330.97 487.62"
/>
<path stroke="#4a392e" vector-effect="non-scaling-stroke" d="
  M 331.07 552.05
  L 266.72 548.66"
/>
<path stroke="#724f3b" vector-effect="non-scaling-stroke" d="
  M 191.92 544.78
  L 191.93 495.45"
/>
<path stroke="#5a4138" vector-effect="non-scaling-stroke" d="
  M 480.99 483.16
  L 436.12 481.95"
/>
<path stroke="#48362f" vector-effect="non-scaling-stroke" d="
  M 436.12 481.95
  L 346.83 486.74"
/>
<path stroke="#b07f5c" vector-effect="non-scaling-stroke" d="
  M 572.45 314.11
  L 572.07 322.11"
/>
<path stroke="#5e4739" vector-effect="non-scaling-stroke" d="
  M 572.07 322.11
  L 486.54 324.87
  A 1.55 1.54 -90.0 0 0 485.04 326.38
  L 484.01 363.00"
/>
<path stroke="#98694f" vector-effect="non-scaling-stroke" d="
  M 484.01 363.00
  L 474.01 362.10"
/>
<path stroke="#5a4138" vector-effect="non-scaling-stroke" d="
  M 482.50 426.11
  L 473.92 425.43"
/>
<path stroke="#7c5140" vector-effect="non-scaling-stroke" d="
  M 473.92 425.43
  L 474.01 362.10"
/>
<path stroke="#48362f" vector-effect="non-scaling-stroke" d="
  M 473.92 425.43
  L 440.20 429.52"
/>
<path stroke="#5f596a" vector-effect="non-scaling-stroke" d="
  M 525.00 555.48
  L 525.01 611.04"
/>
<path stroke="#737375" vector-effect="non-scaling-stroke" d="
  M 525.01 611.04
  L 525.01 671.19
  A 0.97 0.96 86.8 0 0 526.08 672.15
  L 571.03 667.16"
/>
<path stroke="#243360" vector-effect="non-scaling-stroke" d="
  M 571.03 667.16
  L 613.78 662.54
  Q 614.99 662.41 614.99 661.19
  L 615.00 605.81"
/>
<path stroke="#222659" vector-effect="non-scaling-stroke" d="
  M 615.00 605.81
  L 615.04 553.17"
/>
<path stroke="#222659" vector-effect="non-scaling-stroke" d="
  M 694.14 551.22
  L 694.04 600.00"
/>
<path stroke="#243360" vector-effect="non-scaling-stroke" d="
  M 694.04 600.00
  L 694.03 652.91
  Q 694.03 653.41 694.53 653.36
  L 730.19 649.71"
/>
<path stroke="#737375" vector-effect="non-scaling-stroke" d="
  M 730.19 649.71
  L 763.26 645.99
  A 0.83 0.82 86.9 0 0 763.99 645.17
  L 764.00 595.82"
/>
<path stroke="#5f596a" vector-effect="non-scaling-stroke" d="
  M 764.00 595.82
  L 764.03 549.23"
/>
<path stroke="#5f596a" vector-effect="non-scaling-stroke" d="
  M 794.80 720.02
  L 788.96 719.87"
/>
<path stroke="#0d0d0f" vector-effect="non-scaling-stroke" d="
  M 788.96 719.87
  L 791.91 719.70
  A 0.60 0.60 0.0 0 0 792.41 718.83
  L 790.96 715.91
  Q 790.67 715.33 790.03 715.45
  Q 788.76 715.69 788.03 717.33"
/>
<path stroke="#6b6675" vector-effect="non-scaling-stroke" d="
  M 788.03 717.33
  L 782.50 670.00
  Q 782.43 669.47 781.91 669.44
  L 748.58 667.19"
/>
<path stroke="#5f596a" vector-effect="non-scaling-stroke" d="
  M 748.58 667.19
  L 713.83 664.97
  A 0.93 0.93 0.0 0 0 712.84 665.98
  L 715.99 703.65"
/>
<path stroke="#6b6675" vector-effect="non-scaling-stroke" d="
  M 715.99 703.65
  L 693.94 706.92"
/>
<path stroke="#5a3a57" vector-effect="non-scaling-stroke" d="
  M 693.94 706.92
  L 693.96 655.12
  Q 693.96 653.65 692.50 653.81
  L 615.32 662.32
  A 0.30 0.30 0.0 0 0 615.05 662.62
  L 615.07 719.01"
/>
<path stroke="#6b6675" vector-effect="non-scaling-stroke" d="
  M 615.07 719.01
  L 605.22 720.72"
/>
<path stroke="#5f596a" vector-effect="non-scaling-stroke" d="
  M 605.22 720.72
  L 593.65 679.54
  Q 593.51 679.03 593.01 679.18
  L 550.06 692.44"
/>
<path stroke="#6b6675" vector-effect="non-scaling-stroke" d="
  M 550.06 692.44
  L 504.64 706.23
  A 1.11 1.11 0.0 0 0 503.89 707.57
  L 519.63 767.29"
/>
<path stroke="#5f596a" vector-effect="non-scaling-stroke" d="
  M 519.63 767.29
  Q 519.92 767.10 519.73 767.57
  A 0.42 0.40 1.2 0 1 519.48 767.80
  L 470.74 785.09
  A 0.87 0.86 -17.3 0 0 470.20 786.11
  L 474.52 802.81"
/>
<path stroke="#98694f" vector-effect="non-scaling-stroke" d="
  M 606.95 486.31
  Q 607.04 519.00 607.00 551.75
  Q 607.00 553.29 607.98 553.43"
/>
<path stroke="#5c476f" vector-effect="non-scaling-stroke" d="
  M 607.98 553.43
  L 571.04 554.28"
/>
<path stroke="#997a80" vector-effect="non-scaling-stroke" d="
  M 571.04 554.28
  L 525.00 555.48"
/>
<path stroke="#543b33" vector-effect="non-scaling-stroke" d="
  M 525.00 555.48
  L 436.76 557.49"
/>
<path stroke="#5e4739" vector-effect="non-scaling-stroke" d="
  M 574.42 373.02
  L 573.84 381.79
  Q 573.75 383.20 575.15 383.08
  L 613.04 379.97
  Q 614.02 379.89 613.97 380.87
  L 611.42 434.74"
/>
<path stroke="#202022" vector-effect="non-scaling-stroke" d="
  M 611.42 434.74
  Q 611.40 436.89 609.25 437.25
  Q 596.15 439.43 571.40 442.83"
/>
<path stroke="#544e5e" vector-effect="non-scaling-stroke" d="
  M 571.40 442.83
  L 573.95 383.82
  Q 573.97 383.36 573.50 383.40
  L 530.77 387.15
  Q 530.27 387.20 530.25 387.70
  L 528.30 449.25"
/>
<path stroke="#6b6675" vector-effect="non-scaling-stroke" d="
  M 528.30 449.25
  L 527.16 483.50"
/>
<path stroke="#543b33" vector-effect="non-scaling-stroke" d="
  M 527.16 483.50
  Q 526.74 484.01 525.25 484.00
  Q 503.12 483.85 480.99 483.16"
/>
<path stroke="#202022" vector-effect="non-scaling-stroke" d="
  M 480.99 483.16
  Q 482.07 479.45 482.05 477.75
  Q 481.69 452.74 482.77 427.75
  Q 482.82 426.56 482.50 426.11"
/>
<path stroke="#543b33" vector-effect="non-scaling-stroke" d="
  M 482.50 426.11
  L 484.01 363.00"
/>
<path stroke="#b07f5c" vector-effect="non-scaling-stroke" d="
  M 731.10 338.81
  L 731.05 389.11
  A 1.21 1.21 0.0 0 1 729.71 390.31
  L 574.42 373.02"
/>
<path stroke="#6c5140" vector-effect="non-scaling-stroke" d="
  M 574.42 373.02
  L 576.50 322.65
  Q 576.52 322.08 575.94 322.08
  L 572.07 322.11"
/>
<path stroke="#6b6675" vector-effect="non-scaling-stroke" d="
  M 730.00 717.92
  L 729.99 752.62"
/>
<path stroke="#b0a5c2" vector-effect="non-scaling-stroke" d="
  M 574.81 783.36
  L 571.15 770.73"
/>
<path stroke="#6b6675" vector-effect="non-scaling-stroke" d="
  M 571.15 770.73
  L 570.92 749.63"
/>
<path stroke="#b0a5c2" vector-effect="non-scaling-stroke" d="
  M 566.06 751.46
  L 519.63 767.29"
/>
<path stroke="#6973ad" vector-effect="non-scaling-stroke" d="
  M 571.02 608.26
  Q 571.01 608.44 571.01 608.62"
/>
<path stroke="#b8b2c2" vector-effect="non-scaling-stroke" d="
  M 571.01 608.62
  L 525.01 611.04"
/>
<path stroke="#b0a5c2" vector-effect="non-scaling-stroke" d="
  M 605.22 720.72
  L 608.84 735.30
  Q 609.02 736.00 608.33 736.25
  L 570.92 749.63"
/>
<path stroke="#5f596a" vector-effect="non-scaling-stroke" d="
  M 570.92 749.63
  L 566.06 751.46"
/>
<path stroke="#b0a5c2" vector-effect="non-scaling-stroke" d="
  M 566.06 751.46
  L 550.06 692.44"
/>
<path stroke="#5e5966" vector-effect="non-scaling-stroke" d="
  M 788.03 717.33
  L 788.04 719.58"
/>
<path stroke="#7d8db8" vector-effect="non-scaling-stroke" d="
  M 571.03 667.16
  L 571.01 608.62"
/>
<path stroke="#b0a5c2" vector-effect="non-scaling-stroke" d="
  M 748.58 667.19
  L 754.18 717.82
  A 0.21 0.21 0.0 0 1 754.12 717.99
  Q 754.01 718.10 754.00 718.26
  Q 753.98 718.73 754.44 718.74
  L 788.04 719.58"
/>
<path stroke="#524c5c" vector-effect="non-scaling-stroke" d="
  M 788.04 719.58
  Q 787.63 719.05 788.96 719.87"
/>
<path stroke="#5f596a" vector-effect="non-scaling-stroke" d="
  M 757.28 746.84
  L 754.16 719.47
  A 0.61 0.61 0.0 0 0 753.58 718.93
  L 730.00 717.92"
/>
<path stroke="#b0a5c2" vector-effect="non-scaling-stroke" d="
  M 730.00 717.92
  L 718.92 718.02
  A 1.09 1.09 0.0 0 1 717.82 717.03
  Q 717.28 711.09 716.76 704.75
  Q 716.72 704.25 715.99 703.65"
/>
<path stroke="#7b7fb1" vector-effect="non-scaling-stroke" d="
  M 730.07 597.92
  Q 730.07 597.85 730.06 597.78"
/>
<path stroke="#2c409c" vector-effect="non-scaling-stroke" d="
  M 730.06 597.78
  L 694.04 600.00"
/>
<path stroke="#98694f" vector-effect="non-scaling-stroke" d="
  M 850.06 493.28
  L 850.05 546.98"
/>
<path stroke="#5e4739" vector-effect="non-scaling-stroke" d="
  M 795.92 548.45
  L 764.03 549.23"
/>
<path stroke="#a38786" vector-effect="non-scaling-stroke" d="
  M 764.03 549.23
  L 730.02 550.25"
/>
<path stroke="#665475" vector-effect="non-scaling-stroke" d="
  M 730.02 550.25
  L 694.14 551.22"
/>
<path stroke="#5e4739" vector-effect="non-scaling-stroke" d="
  M 694.14 551.22
  L 615.04 553.17"
/>
<path stroke="#665475" vector-effect="non-scaling-stroke" d="
  M 615.04 553.17
  L 607.98 553.43"
/>
<path stroke="#b8b2c2" vector-effect="non-scaling-stroke" d="
  M 764.00 595.82
  L 730.07 597.92"
/>
<path stroke="#6765a6" vector-effect="non-scaling-stroke" d="
  M 730.07 597.92
  L 730.02 550.25"
/>
<path stroke="#7d8db8" vector-effect="non-scaling-stroke" d="
  M 730.19 649.71
  L 730.06 597.78"
/>
<path stroke="#ab87af" vector-effect="non-scaling-stroke" d="
  M 693.94 706.92
  L 615.07 719.01"
/>
<path stroke="#2c409c" vector-effect="non-scaling-stroke" d="
  M 615.00 605.81
  L 571.02 608.26"
/>
<path stroke="#6765a6" vector-effect="non-scaling-stroke" d="
  M 571.02 608.26
  L 571.04 554.28"
/>
<path stroke="#716c79" vector-effect="non-scaling-stroke" d="
  M 738.89 452.72
  L 732.09 478.59
  Q 731.96 479.11 732.29 479.52
  Q 736.86 485.16 743.40 489.94"
/>
<path stroke="#644e3d" vector-effect="non-scaling-stroke" d="
  M 743.40 489.94
  L 606.95 486.31"
/>
<path stroke="#5a4138" vector-effect="non-scaling-stroke" d="
  M 606.95 486.31
  L 555.67 484.41"
/>
<path stroke="#716c79" vector-effect="non-scaling-stroke" d="
  M 555.67 484.41
  L 569.25 474.19
  Q 569.69 473.85 569.72 473.30
  L 571.26 442.87"
/>
<path stroke="#a5878b" vector-effect="non-scaling-stroke" d="
  M 555.67 484.41
  Q 555.05 485.02 554.43 484.97
  Q 541.49 483.93 528.50 484.06
  Q 527.77 484.07 527.16 483.50"
/>
<path stroke="#5e4739" vector-effect="non-scaling-stroke" d="
  M 795.77 360.42
  L 765.85 350.47
  Q 765.41 350.33 765.29 350.78
  L 752.14 401.22
  Q 752.00 401.74 751.49 401.59
  L 714.29 390.97
  A 0.92 0.92 0.0 0 0 713.15 391.62
  L 700.55 440.45"
/>
<path stroke="#644e3d" vector-effect="non-scaling-stroke" d="
  M 700.55 440.45
  L 611.42 434.74"
/>
<path stroke="#5a5563" vector-effect="non-scaling-stroke" d="
  M 571.40 442.83
  Q 571.33 442.85 571.26 442.87"
/>
<path stroke="#a59bb6" vector-effect="non-scaling-stroke" d="
  M 571.26 442.87
  L 529.59 448.73
  A 0.40 0.39 -27.9 0 1 529.26 448.63
  Q 529.03 448.42 528.72 448.51
  Q 528.56 448.55 528.54 448.72
  Q 528.51 449.18 528.30 449.25"
/>
<path stroke="#5f596a" vector-effect="non-scaling-stroke" d="
  M 571.15 770.73
  L 566.06 751.46"
/>
<path stroke="#af9490" vector-effect="non-scaling-stroke" d="
  M 768.14 490.64
  L 743.40 489.94"
/>
<path stroke="#5e4739" vector-effect="non-scaling-stroke" d="
  M 800.26 491.63
  L 768.14 490.64"
/>
<path stroke="#6b6675" vector-effect="non-scaling-stroke" d="
  M 768.14 490.64
  L 775.64 461.98"
/>
<path stroke="#544e5e" vector-effect="non-scaling-stroke" d="
  M 775.64 461.98
  L 788.61 412.74
  Q 788.71 412.33 788.30 412.22
  L 753.23 402.25
  Q 751.98 401.89 751.65 403.15
  L 738.73 452.71"
/>
<path stroke="#202022" vector-effect="non-scaling-stroke" d="
  M 738.73 452.71
  Q 720.50 448.07 702.34 443.35
  Q 698.86 442.45 700.55 440.45"
/>
<path stroke="#a59bb6" vector-effect="non-scaling-stroke" d="
  M 775.64 461.98
  L 738.89 452.72"
/>
<path stroke="#5a5563" vector-effect="non-scaling-stroke" d="
  M 738.89 452.72
  Q 738.81 452.72 738.73 452.71"
/>
<path stroke="#36281f" vector-effect="non-scaling-stroke" d="
  M 212.58 415.42
  L 198.14 367.59
  A 0.20 0.20 0.0 0 0 197.89 367.46
  L 171.20 375.52
  A 4.82 0.94 -16.8 0 0 166.86 377.81
  L 180.87 424.22
  A 4.82 0.94 -16.8 0 0 185.75 423.73
  L 212.44 415.67
  A 0.20 0.20 0.0 0 0 212.58 415.42"
/>
</g>
<path fill="#000000" fill-opacity="0.004" d="
  M 0.00 0.00
  L 1062.00 0.00
  L 1062.00 1062.00
  L 0.00 1062.00
  L 0.00 0.00
  Z
  M 128.41 444.89
  Q 101.26 454.26 91.73 480.46
  C 88.06 490.56 88.91 500.37 88.96 510.87
  Q 89.04 525.82 89.00 540.77
  C 88.91 571.68 112.61 596.62 143.50 597.98
  Q 177.04 599.45 210.27 601.18
  Q 211.01 601.22 211.01 601.96
  Q 210.98 662.29 211.02 722.80
  Q 211.03 732.56 212.37 737.95
  C 216.29 753.65 227.23 767.09 241.31 774.75
  Q 245.13 776.83 259.80 782.30
  Q 343.30 813.43 426.88 844.55
  A 3.10 3.10 0.0 0 1 428.83 846.80
  C 432.32 862.73 435.40 876.55 447.17 888.09
  C 462.91 903.53 487.83 909.10 508.94 900.45
  Q 551.94 882.82 594.95 865.27
  Q 607.73 860.05 612.88 856.52
  Q 627.68 846.39 634.27 828.78
  Q 634.43 828.37 634.86 828.28
  L 721.64 810.95
  A 1.04 1.03 -28.4 0 1 722.57 811.22
  Q 733.17 821.32 746.86 824.59
  Q 753.03 826.06 766.76 826.00
  C 785.67 825.93 803.82 825.34 823.43 825.02
  Q 835.07 824.83 840.32 823.55
  C 864.02 817.79 880.69 796.34 882.06 772.80
  Q 882.42 766.63 880.75 752.88
  Q 878.59 735.02 876.13 717.17
  C 873.64 699.12 866.56 685.56 851.32 674.85
  A 0.77 0.74 18.6 0 1 851.00 674.24
  L 851.00 602.50
  A 0.41 0.41 0.0 0 1 851.40 602.09
  Q 891.48 601.24 927.69 600.19
  C 935.41 599.96 944.10 600.47 950.96 599.08
  C 973.47 594.52 990.93 575.74 994.45 553.47
  Q 995.27 548.28 995.06 533.50
  Q 994.86 519.88 995.09 506.26
  Q 995.34 491.56 994.37 486.31
  C 989.78 461.47 969.87 444.58 945.68 440.77
  C 937.73 439.52 927.36 440.21 919.82 439.91
  Q 898.31 439.06 876.86 438.95
  Q 876.38 438.95 876.50 438.48
  Q 882.77 414.71 889.27 391.01
  C 897.37 361.46 881.91 331.83 853.18 320.83
  Q 850.41 319.77 841.07 317.05
  Q 840.60 316.91 840.30 316.52
  C 830.27 303.04 816.22 295.67 799.68 293.10
  Q 647.61 269.42 495.56 245.63
  C 480.29 243.24 467.49 242.68 452.65 247.09
  Q 419.25 257.02 385.77 266.93
  Q 385.24 267.09 385.10 266.56
  C 382.25 255.60 379.65 244.60 373.23 235.04
  Q 356.94 210.82 326.97 209.71
  Q 326.46 209.69 326.24 209.22
  C 321.39 198.98 318.19 191.49 309.29 183.85
  Q 308.89 183.51 309.03 183.01
  C 313.56 166.92 310.60 156.27 305.62 138.54
  Q 301.83 125.08 297.97 111.61
  Q 293.40 95.66 292.09 92.49
  C 281.18 66.20 253.10 51.39 225.27 58.37
  Q 218.76 60.00 206.85 66.00
  Q 188.82 75.10 170.65 84.81
  A 1.34 1.32 -34.2 0 1 169.01 84.51
  Q 165.71 80.63 161.92 76.34
  C 148.01 60.57 126.66 54.48 106.42 59.26
  C 99.30 60.94 92.65 64.47 86.00 68.23
  Q 71.56 76.41 65.17 80.11
  C 39.94 94.70 30.12 122.43 38.50 149.99
  Q 46.55 176.50 54.80 202.91
  Q 54.95 203.39 54.59 203.73
  Q 35.23 222.31 36.90 248.26
  Q 37.30 254.48 40.30 264.50
  Q 46.02 283.56 52.10 302.50
  Q 56.17 315.17 59.62 320.97
  Q 72.28 342.24 98.60 347.76
  Q 99.73 348.00 100.15 349.07
  Q 104.24 359.34 112.34 366.89
  Q 112.73 367.25 112.64 367.77
  Q 110.15 382.72 114.15 396.07
  Q 121.36 420.16 128.89 443.93
  A 0.77 0.76 71.8 0 1 128.41 444.89
  Z"
/>
<path fill="#ffffff" d="
  M 128.41 444.89
  A 0.77 0.76 71.8 0 0 128.89 443.93
  Q 121.36 420.16 114.15 396.07
  Q 110.15 382.72 112.64 367.77
  Q 112.73 367.25 112.34 366.89
  Q 104.24 359.34 100.15 349.07
  Q 99.73 348.00 98.60 347.76
  Q 72.28 342.24 59.62 320.97
  Q 56.17 315.17 52.10 302.50
  Q 46.02 283.56 40.30 264.50
  Q 37.30 254.48 36.90 248.26
  Q 35.23 222.31 54.59 203.73
  Q 54.95 203.39 54.80 202.91
  Q 46.55 176.50 38.50 149.99
  C 30.12 122.43 39.94 94.70 65.17 80.11
  Q 71.56 76.41 86.00 68.23
  C 92.65 64.47 99.30 60.94 106.42 59.26
  C 126.66 54.48 148.01 60.57 161.92 76.34
  Q 165.71 80.63 169.01 84.51
  A 1.34 1.32 -34.2 0 0 170.65 84.81
  Q 188.82 75.10 206.85 66.00
  Q 218.76 60.00 225.27 58.37
  C 253.10 51.39 281.18 66.20 292.09 92.49
  Q 293.40 95.66 297.97 111.61
  Q 301.83 125.08 305.62 138.54
  C 310.60 156.27 313.56 166.92 309.03 183.01
  Q 308.89 183.51 309.29 183.85
  C 318.19 191.49 321.39 198.98 326.24 209.22
  Q 326.46 209.69 326.97 209.71
  Q 356.94 210.82 373.23 235.04
  C 379.65 244.60 382.25 255.60 385.10 266.56
  Q 385.24 267.09 385.77 266.93
  Q 419.25 257.02 452.65 247.09
  C 467.49 242.68 480.29 243.24 495.56 245.63
  Q 647.61 269.42 799.68 293.10
  C 816.22 295.67 830.27 303.04 840.30 316.52
  Q 840.60 316.91 841.07 317.05
  Q 850.41 319.77 853.18 320.83
  C 881.91 331.83 897.37 361.46 889.27 391.01
  Q 882.77 414.71 876.50 438.48
  Q 876.38 438.95 876.86 438.95
  Q 898.31 439.06 919.82 439.91
  C 927.36 440.21 937.73 439.52 945.68 440.77
  C 969.87 444.58 989.78 461.47 994.37 486.31
  Q 995.34 491.56 995.09 506.26
  Q 994.86 519.88 995.06 533.50
  Q 995.27 548.28 994.45 553.47
  C 990.93 575.74 973.47 594.52 950.96 599.08
  C 944.10 600.47 935.41 599.96 927.69 600.19
  Q 891.48 601.24 851.40 602.09
  A 0.41 0.41 0.0 0 0 851.00 602.50
  L 851.00 674.24
  A 0.77 0.74 18.6 0 0 851.32 674.85
  C 866.56 685.56 873.64 699.12 876.13 717.17
  Q 878.59 735.02 880.75 752.88
  Q 882.42 766.63 882.06 772.80
  C 880.69 796.34 864.02 817.79 840.32 823.55
  Q 835.07 824.83 823.43 825.02
  C 803.82 825.34 785.67 825.93 766.76 826.00
  Q 753.03 826.06 746.86 824.59
  Q 733.17 821.32 722.57 811.22
  A 1.04 1.03 -28.4 0 0 721.64 810.95
  L 634.86 828.28
  Q 634.43 828.37 634.27 828.78
  Q 627.68 846.39 612.88 856.52
  Q 607.73 860.05 594.95 865.27
  Q 551.94 882.82 508.94 900.45
  C 487.83 909.10 462.91 903.53 447.17 888.09
  C 435.40 876.55 432.32 862.73 428.83 846.80
  A 3.10 3.10 0.0 0 0 426.88 844.55
  Q 343.30 813.43 259.80 782.30
  Q 245.13 776.83 241.31 774.75
  C 227.23 767.09 216.29 753.65 212.37 737.95
  Q 211.03 732.56 211.02 722.80
  Q 210.98 662.29 211.01 601.96
  Q 211.01 601.22 210.27 601.18
  Q 177.04 599.45 143.50 597.98
  C 112.61 596.62 88.91 571.68 89.00 540.77
  Q 89.04 525.82 88.96 510.87
  C 88.91 500.37 88.06 490.56 91.73 480.46
  Q 101.26 454.26 128.41 444.89
  Z
  M 156.26 457.03
  Q 141.59 457.62 137.51 458.49
  Q 115.32 463.25 107.06 483.04
  C 102.65 493.62 104.12 504.25 104.00 515.30
  C 103.87 527.24 102.66 542.38 105.50 552.56
  C 110.76 571.37 127.81 582.18 146.75 582.99
  Q 185.89 584.66 225.00 586.97
  A 1.06 1.06 0.0 0 1 226.00 588.03
  Q 226.01 654.09 226.00 720.58
  Q 225.99 729.65 227.33 734.68
  C 232.28 753.33 245.07 760.57 262.26 766.98
  Q 351.41 800.22 440.60 833.46
  Q 441.10 833.65 441.23 834.16
  C 443.96 844.85 446.33 858.91 450.50 867.31
  C 458.24 882.91 476.47 891.21 493.29 888.81
  Q 499.21 887.97 510.70 883.28
  Q 549.49 867.46 588.26 851.59
  Q 601.58 846.14 606.13 842.74
  Q 618.90 833.21 621.62 816.07
  A 1.10 1.09 88.9 0 1 622.48 815.17
  L 727.30 794.30
  Q 727.79 794.21 728.05 794.62
  C 734.93 805.43 748.95 811.12 761.25 811.05
  Q 791.65 810.88 822.03 810.01
  Q 833.75 809.67 838.81 808.13
  C 852.94 803.84 863.54 791.74 866.26 777.24
  C 867.31 771.67 866.93 764.95 866.20 759.21
  Q 863.60 738.73 860.99 718.24
  Q 857.95 694.36 836.52 683.62
  Q 836.00 683.36 836.00 682.77
  L 836.00 587.50
  A 0.39 0.39 0.0 0 1 836.39 587.11
  Q 881.82 586.54 927.31 585.10
  C 933.97 584.89 941.43 585.56 947.48 584.17
  C 968.47 579.35 980.23 563.41 980.04 541.90
  Q 979.90 524.85 980.04 507.83
  Q 980.16 493.36 979.01 487.91
  C 974.09 464.59 954.45 455.44 932.25 455.08
  Q 895.90 454.48 858.56 453.16
  Q 856.82 453.10 857.27 451.42
  Q 865.79 419.24 874.63 386.22
  C 879.68 367.37 871.67 348.95 855.95 339.10
  C 849.21 334.88 839.82 332.32 831.60 329.84
  Q 831.12 329.70 830.85 329.27
  Q 819.75 311.72 799.43 308.55
  Q 648.91 285.06 498.39 261.54
  Q 482.76 259.09 478.57 258.99
  Q 467.18 258.72 455.07 262.31
  Q 415.40 274.06 375.37 285.74
  A 0.58 0.57 73.9 0 1 374.66 285.34
  Q 370.79 271.55 366.85 257.58
  C 360.42 234.74 341.20 221.51 316.96 225.58
  Q 314.35 226.02 313.89 223.06
  C 311.59 208.29 303.44 195.81 290.63 188.73
  Q 290.19 188.49 290.44 188.05
  C 297.70 175.26 297.01 164.76 292.96 150.09
  Q 287.10 128.88 280.95 107.75
  Q 277.73 96.68 274.75 91.77
  C 265.87 77.14 247.81 69.22 230.87 72.64
  Q 225.22 73.78 214.60 79.14
  Q 188.15 92.50 161.96 106.41
  Q 161.53 106.64 161.41 106.16
  C 154.99 80.68 128.81 65.91 104.02 76.04
  Q 101.58 77.03 87.03 85.17
  C 69.75 94.83 54.97 101.79 51.56 123.60
  Q 49.80 134.88 53.56 147.20
  Q 62.76 177.35 72.03 207.49
  Q 72.60 209.31 71.16 210.07
  C 58.36 216.82 51.73 232.38 52.09 245.88
  Q 52.22 251.05 54.54 258.91
  Q 60.85 280.31 67.75 301.54
  C 74.27 321.63 87.83 333.20 110.07 333.12
  A 1.02 1.02 0.0 0 1 111.07 333.93
  Q 114.81 351.58 129.43 361.94
  Q 129.88 362.26 129.70 362.78
  Q 124.98 376.22 127.96 388.51
  Q 130.92 400.72 142.61 436.84
  Q 145.55 445.92 153.35 453.99
  C 154.18 454.85 155.58 455.50 156.51 456.39
  Q 157.13 457.00 156.26 457.03
  Z"
/>
<path fill="#000000" d="
  M 156.51 456.39
  C 155.58 455.50 154.18 454.85 153.35 453.99
  Q 145.55 445.92 142.61 436.84
  Q 130.92 400.72 127.96 388.51
  Q 124.98 376.22 129.70 362.78
  Q 129.88 362.26 129.43 361.94
  Q 114.81 351.58 111.07 333.93
  A 1.02 1.02 0.0 0 0 110.07 333.12
  C 87.83 333.20 74.27 321.63 67.75 301.54
  Q 60.85 280.31 54.54 258.91
  Q 52.22 251.05 52.09 245.88
  C 51.73 232.38 58.36 216.82 71.16 210.07
  Q 72.60 209.31 72.03 207.49
  Q 62.76 177.35 53.56 147.20
  Q 49.80 134.88 51.56 123.60
  C 54.97 101.79 69.75 94.83 87.03 85.17
  Q 101.58 77.03 104.02 76.04
  C 128.81 65.91 154.99 80.68 161.41 106.16
  Q 161.53 106.64 161.96 106.41
  Q 188.15 92.50 214.60 79.14
  Q 225.22 73.78 230.87 72.64
  C 247.81 69.22 265.87 77.14 274.75 91.77
  Q 277.73 96.68 280.95 107.75
  Q 287.10 128.88 292.96 150.09
  C 297.01 164.76 297.70 175.26 290.44 188.05
  Q 290.19 188.49 290.63 188.73
  C 303.44 195.81 311.59 208.29 313.89 223.06
  Q 314.35 226.02 316.96 225.58
  C 341.20 221.51 360.42 234.74 366.85 257.58
  Q 370.79 271.55 374.66 285.34
  A 0.58 0.57 73.9 0 0 375.37 285.74
  Q 415.40 274.06 455.07 262.31
  Q 467.18 258.72 478.57 258.99
  Q 482.76 259.09 498.39 261.54
  Q 648.91 285.06 799.43 308.55
  Q 819.75 311.72 830.85 329.27
  Q 831.12 329.70 831.60 329.84
  C 839.82 332.32 849.21 334.88 855.95 339.10
  C 871.67 348.95 879.68 367.37 874.63 386.22
  Q 865.79 419.24 857.27 451.42
  Q 856.82 453.10 858.56 453.16
  Q 895.90 454.48 932.25 455.08
  C 954.45 455.44 974.09 464.59 979.01 487.91
  Q 980.16 493.36 980.04 507.83
  Q 979.90 524.85 980.04 541.90
  C 980.23 563.41 968.47 579.35 947.48 584.17
  C 941.43 585.56 933.97 584.89 927.31 585.10
  Q 881.82 586.54 836.39 587.11
  A 0.39 0.39 0.0 0 0 836.00 587.50
  L 836.00 682.77
  Q 836.00 683.36 836.52 683.62
  Q 857.95 694.36 860.99 718.24
  Q 863.60 738.73 866.20 759.21
  C 866.93 764.95 867.31 771.67 866.26 777.24
  C 863.54 791.74 852.94 803.84 838.81 808.13
  Q 833.75 809.67 822.03 810.01
  Q 791.65 810.88 761.25 811.05
  C 748.95 811.12 734.93 805.43 728.05 794.62
  Q 727.79 794.21 727.30 794.30
  L 622.48 815.17
  A 1.10 1.09 88.9 0 0 621.62 816.07
  Q 618.90 833.21 606.13 842.74
  Q 601.58 846.14 588.26 851.59
  Q 549.49 867.46 510.70 883.28
  Q 499.21 887.97 493.29 888.81
  C 476.47 891.21 458.24 882.91 450.50 867.31
  C 446.33 858.91 443.96 844.85 441.23 834.16
  Q 441.10 833.65 440.60 833.46
  Q 351.41 800.22 262.26 766.98
  C 245.07 760.57 232.28 753.33 227.33 734.68
  Q 225.99 729.65 226.00 720.58
  Q 226.01 654.09 226.00 588.03
  A 1.06 1.06 0.0 0 0 225.00 586.97
  Q 185.89 584.66 146.75 582.99
  C 127.81 582.18 110.76 571.37 105.50 552.56
  C 102.66 542.38 103.87 527.24 104.00 515.30
  C 104.12 504.25 102.65 493.62 107.06 483.04
  Q 115.32 463.25 137.51 458.49
  Q 141.59 457.62 156.26 457.03
  Q 157.13 457.00 156.51 456.39
  Z
  M 169.26 147.98
  L 137.08 164.43
  Q 137.03 164.24 136.66 164.20
  L 121.32 113.50
  A 0.88 0.88 0.0 0 0 120.04 112.99
  L 91.71 129.17
  Q 90.54 129.84 90.94 131.13
  L 106.08 180.37
  Q 113.53 204.94 121.17 229.77
  Q 121.28 230.11 121.04 230.87
  L 92.94 244.27
  A 0.82 0.81 68.9 0 0 92.51 245.25
  L 107.18 292.23
  Q 107.33 292.73 107.82 292.52
  L 135.71 280.81
  A 1.03 1.02 -19.8 0 1 137.08 281.45
  L 151.48 327.97
  Q 151.86 329.22 153.08 328.75
  Q 166.86 323.54 181.56 318.30
  Q 181.98 318.15 183.16 318.27
  L 197.58 365.83
  A 1.29 1.29 0.0 0 0 199.20 366.68
  L 230.25 356.79
  A 0.91 0.90 73.2 0 1 231.38 357.40
  L 245.55 405.17
  A 1.52 1.52 0.0 0 0 247.41 406.19
  L 266.21 400.99
  L 266.02 405.68
  L 266.06 451.04
  L 266.11 491.38
  L 191.93 495.45
  L 144.68 498.04
  A 0.72 0.72 0.0 0 0 144.00 498.76
  L 144.00 541.25
  A 1.07 1.06 -88.6 0 0 145.01 542.32
  L 191.92 544.78
  L 266.72 548.66
  Q 266.02 550.81 266.02 552.69
  Q 265.99 638.59 266.00 724.07
  A 1.49 1.48 10.2 0 0 266.97 725.46
  L 474.52 802.81
  L 486.36 848.62
  A 0.71 0.71 0.0 0 0 487.32 849.10
  L 581.64 810.57
  A 0.47 0.47 0.0 0 0 581.91 810.02
  L 574.81 783.36
  L 729.99 752.62
  L 757.28 746.84
  L 759.91 770.66
  Q 759.97 771.20 760.51 771.19
  L 825.71 769.96
  Q 826.79 769.94 826.65 768.86
  L 820.44 720.50
  Q 820.38 720.05 819.92 720.04
  L 794.80 720.02
  Q 794.98 709.89 795.05 699.82
  C 795.14 686.15 795.88 671.42 795.93 657.19
  Q 796.13 602.93 795.92 548.45
  L 850.05 546.98
  L 939.40 544.86
  Q 940.00 544.85 940.00 544.24
  L 940.00 497.02
  A 1.41 1.41 0.0 0 0 938.63 495.61
  L 850.06 493.28
  L 800.26 491.63
  Q 799.96 490.55 801.05 490.07
  A 0.72 0.71 -53.6 0 1 801.36 490.02
  L 804.10 490.29
  Q 804.93 490.37 805.14 489.57
  L 835.86 375.00
  A 1.24 1.23 16.8 0 0 835.06 373.51
  L 795.77 360.42
  L 795.94 349.53
  Q 795.95 349.01 795.44 348.93
  L 731.10 338.81
  L 572.45 314.11
  L 473.96 298.83
  L 408.87 318.06
  L 307.52 347.73
  L 303.28 333.17
  Q 303.21 333.11 303.15 333.04
  L 341.99 320.60
  A 0.54 0.54 0.0 0 0 342.34 319.94
  L 327.20 265.70
  A 1.09 1.09 0.0 0 0 325.78 264.97
  Q 307.11 271.84 288.51 278.79
  Q 288.11 278.94 287.54 278.50
  L 272.46 224.91
  Q 272.19 223.97 271.28 224.34
  L 235.61 239.16
  Q 235.52 238.96 235.43 238.82
  Q 235.12 238.33 235.08 238.21
  L 219.72 185.50
  C 219.92 185.18 220.21 184.83 220.57 184.66
  Q 237.96 176.64 255.14 168.52
  A 1.32 1.32 0.0 0 0 255.85 166.96
  L 240.36 112.72
  A 1.09 1.09 0.0 0 0 238.81 112.04
  L 169.26 147.98
  Z
  M 212.58 415.42
  L 198.14 367.59
  A 0.20 0.20 0.0 0 0 197.89 367.46
  L 171.20 375.52
  A 4.82 0.94 -16.8 0 0 166.86 377.81
  L 180.87 424.22
  A 4.82 0.94 -16.8 0 0 185.75 423.73
  L 212.44 415.67
  A 0.20 0.20 0.0 0 0 212.58 415.42
  Z"
/>
<path fill="#6b4f3d" d="
  M 219.72 185.50
  Q 218.83 185.44 218.56 185.56
  Q 202.09 193.25 185.15 201.21
  L 169.26 147.98
  L 238.81 112.04
  A 1.09 1.09 0.0 0 1 240.36 112.72
  L 255.85 166.96
  A 1.32 1.32 0.0 0 1 255.14 168.52
  Q 237.96 176.64 220.57 184.66
  C 220.21 184.83 219.92 185.18 219.72 185.50
  Z"
/>
<path fill="#6b4f3d" d="
  M 136.66 164.20
  Q 136.23 164.79 135.97 164.93
  Q 121.28 173.07 106.08 180.37
  L 90.94 131.13
  Q 90.54 129.84 91.71 129.17
  L 120.04 112.99
  A 0.88 0.88 0.0 0 1 121.32 113.50
  L 136.66 164.20
  Z"
/>
<path fill="#78624d" d="
  M 169.26 147.98
  L 185.15 201.21
  Q 184.59 201.96 184.63 201.49
  Q 169.25 208.56 153.94 215.94
  Q 153.58 216.11 152.45 215.97
  L 136.85 164.79
  Q 136.80 164.64 136.87 164.50
  Q 137.01 164.19 137.08 164.43
  L 169.26 147.98
  Z"
/>
<path fill="#6a4537" d="
  M 136.66 164.20
  Q 137.03 164.24 137.08 164.43
  Q 137.01 164.19 136.87 164.50
  Q 136.80 164.64 136.85 164.79
  L 152.45 215.97
  L 152.12 216.56
  L 121.72 230.87
  Q 121.05 230.54 121.04 230.87
  Q 121.28 230.11 121.17 229.77
  Q 113.53 204.94 106.08 180.37
  Q 121.28 173.07 135.97 164.93
  Q 136.23 164.79 136.66 164.20
  Z"
/>
<path fill="#6a4537" d="
  M 219.72 185.50
  L 235.08 238.21
  Q 235.12 238.33 235.43 238.82
  Q 235.52 238.96 235.61 239.16
  Q 235.81 238.87 235.14 239.32
  L 200.69 253.70
  Q 199.93 253.70 200.32 253.89
  Q 200.32 253.64 200.35 253.48
  A 1.34 1.30 44.0 0 0 200.33 252.88
  Q 193.28 228.94 186.21 205.01
  Q 185.48 202.54 184.63 201.49
  Q 184.59 201.96 185.15 201.21
  Q 202.09 193.25 218.56 185.56
  Q 218.83 185.44 219.72 185.50
  Z"
/>
<path fill="#3d1f1c" d="
  M 184.63 201.49
  Q 185.48 202.54 186.21 205.01
  Q 193.28 228.94 200.33 252.88
  A 1.34 1.30 44.0 0 1 200.35 253.48
  Q 200.32 253.64 200.32 253.89
  Q 184.54 260.68 168.56 267.06
  Q 168.46 267.34 168.03 267.00
  L 152.12 216.56
  L 152.45 215.97
  Q 153.58 216.11 153.94 215.94
  Q 169.25 208.56 184.63 201.49
  Z"
/>
<path fill="#78624d" d="
  M 152.12 216.56
  L 168.03 267.00
  Q 168.01 267.13 167.99 267.29
  A 0.37 0.36 -7.5 0 1 167.77 267.57
  L 138.39 279.59
  A 1.52 1.51 70.2 0 1 136.36 278.63
  L 121.72 230.87
  L 152.12 216.56
  Z"
/>
<path fill="#78624d" d="
  M 287.54 278.50
  Q 287.70 278.82 286.77 279.23
  L 250.89 292.57
  Q 243.27 267.06 236.30 241.99
  Q 235.96 240.78 235.14 239.32
  Q 235.81 238.87 235.61 239.16
  L 271.28 224.34
  Q 272.19 223.97 272.46 224.91
  L 287.54 278.50
  Z"
/>
<path fill="#6b4f3d" d="
  M 121.04 230.87
  Q 121.05 230.54 121.72 230.87
  L 136.36 278.63
  A 1.52 1.51 70.2 0 0 138.39 279.59
  L 167.77 267.57
  A 0.37 0.36 -7.5 0 0 167.99 267.29
  Q 168.01 267.13 168.03 267.00
  Q 168.46 267.34 168.56 267.06
  Q 184.54 260.68 200.32 253.89
  Q 199.93 253.70 200.69 253.70
  L 215.94 305.49
  L 183.56 317.57
  Q 183.29 317.67 183.28 317.95
  Q 183.27 318.16 183.16 318.27
  Q 181.98 318.15 181.56 318.30
  Q 166.86 323.54 153.08 328.75
  Q 151.86 329.22 151.48 327.97
  L 137.08 281.45
  A 1.03 1.02 -19.8 0 0 135.71 280.81
  L 107.82 292.52
  Q 107.33 292.73 107.18 292.23
  L 92.51 245.25
  A 0.82 0.81 68.9 0 1 92.94 244.27
  L 121.04 230.87
  Z"
/>
<path fill="#3d1f1c" d="
  M 235.14 239.32
  Q 235.96 240.78 236.30 241.99
  Q 243.27 267.06 250.89 292.57
  L 266.17 345.21
  L 232.98 355.70
  Q 231.08 356.31 230.51 354.39
  L 215.94 305.49
  L 200.69 253.70
  L 235.14 239.32
  Z"
/>
<path fill="#6b4f3d" d="
  M 303.15 333.04
  Q 292.65 295.87 288.00 280.25
  Q 287.66 279.12 286.77 279.23
  Q 287.70 278.82 287.54 278.50
  Q 288.11 278.94 288.51 278.79
  Q 307.11 271.84 325.78 264.97
  A 1.09 1.09 0.0 0 1 327.20 265.70
  L 342.34 319.94
  A 0.54 0.54 0.0 0 1 341.99 320.60
  L 303.15 333.04
  Z"
/>
<path fill="#6a4537" d="
  M 286.77 279.23
  Q 287.66 279.12 288.00 280.25
  Q 292.65 295.87 303.15 333.04
  Q 303.21 333.11 303.28 333.17
  L 266.21 345.08
  Q 266.19 345.15 266.17 345.21
  L 250.89 292.57
  L 286.77 279.23
  Z"
/>
<path fill="#79583f" d="
  M 473.96 298.83
  L 474.01 362.10
  L 441.09 368.89
  Q 440.04 369.11 440.04 370.19
  L 440.20 429.52
  L 334.45 443.09
  L 320.78 394.54
  L 408.40 375.86
  Q 408.92 375.76 408.92 375.23
  L 408.87 318.06
  L 473.96 298.83
  Z"
/>
<path fill="#a27554" d="
  M 473.96 298.83
  L 572.45 314.11
  L 572.07 322.11
  L 486.54 324.87
  A 1.55 1.54 -90.0 0 0 485.04 326.38
  L 484.01 363.00
  L 474.01 362.10
  L 473.96 298.83
  Z"
/>
<path fill="#78624d" d="
  M 215.94 305.49
  L 230.51 354.39
  Q 231.08 356.31 232.98 355.70
  L 266.17 345.21
  Q 266.19 345.15 266.21 345.08
  L 281.05 396.59
  L 266.21 400.99
  L 247.41 406.19
  A 1.52 1.52 0.0 0 1 245.55 405.17
  L 231.38 357.40
  A 0.91 0.90 73.2 0 0 230.25 356.79
  L 199.20 366.68
  A 1.29 1.29 0.0 0 1 197.58 365.83
  L 183.16 318.27
  Q 183.27 318.16 183.28 317.95
  Q 183.29 317.67 183.56 317.57
  L 215.94 305.49
  Z"
/>
<path fill="#be8963" d="
  M 572.45 314.11
  L 731.10 338.81
  L 731.05 389.11
  A 1.21 1.21 0.0 0 1 729.71 390.31
  L 574.42 373.02
  L 576.50 322.65
  Q 576.52 322.08 575.94 322.08
  L 572.07 322.11
  L 572.45 314.11
  Z"
/>
<path fill="#8e674a" d="
  M 408.87 318.06
  L 408.92 375.23
  Q 408.92 375.76 408.40 375.86
  L 320.78 394.54
  L 307.52 347.73
  L 408.87 318.06
  Z"
/>
<path fill="#1a191d" d="
  M 572.07 322.11
  L 575.94 322.08
  Q 576.52 322.08 576.50 322.65
  L 574.42 373.02
  L 573.84 381.79
  Q 573.75 383.20 575.15 383.08
  L 613.04 379.97
  Q 614.02 379.89 613.97 380.87
  L 611.42 434.74
  Q 611.40 436.89 609.25 437.25
  Q 596.15 439.43 571.40 442.83
  L 573.95 383.82
  Q 573.97 383.36 573.50 383.40
  L 530.77 387.15
  Q 530.27 387.20 530.25 387.70
  L 528.30 449.25
  L 527.16 483.50
  Q 526.74 484.01 525.25 484.00
  Q 503.12 483.85 480.99 483.16
  Q 482.07 479.45 482.05 477.75
  Q 481.69 452.74 482.77 427.75
  Q 482.82 426.56 482.50 426.11
  L 484.01 363.00
  L 485.04 326.38
  A 1.55 1.54 -90.0 0 1 486.54 324.87
  L 572.07 322.11
  Z"
/>
<path fill="#3d1f1c" d="
  M 303.28 333.17
  L 307.52 347.73
  L 320.78 394.54
  L 334.45 443.09
  L 346.83 486.74
  L 330.97 487.62
  L 307.86 488.87
  Q 307.01 484.84 305.97 481.09
  C 304.99 477.56 305.48 474.00 304.69 470.29
  Q 304.59 469.81 304.09 469.78
  Q 303.20 469.73 303.23 468.71
  Q 303.32 465.61 300.98 463.88
  Q 300.56 463.57 300.41 463.08
  L 295.89 447.93
  L 285.57 412.94
  L 282.74 402.15
  L 281.05 396.59
  L 266.21 345.08
  L 303.28 333.17
  Z"
/>
<path fill="#a27554" d="
  M 731.10 338.81
  L 795.44 348.93
  Q 795.95 349.01 795.94 349.53
  L 795.77 360.42
  L 765.85 350.47
  Q 765.41 350.33 765.29 350.78
  L 752.14 401.22
  Q 752.00 401.74 751.49 401.59
  L 714.29 390.97
  A 0.92 0.92 0.0 0 0 713.15 391.62
  L 700.55 440.45
  L 611.42 434.74
  L 613.97 380.87
  Q 614.02 379.89 613.04 379.97
  L 575.15 383.08
  Q 573.75 383.20 573.84 381.79
  L 574.42 373.02
  L 729.71 390.31
  A 1.21 1.21 0.0 0 0 731.05 389.11
  L 731.10 338.81
  Z"
/>
<path fill="#1a191d" d="
  M 795.77 360.42
  L 835.06 373.51
  A 1.24 1.23 16.8 0 1 835.86 375.00
  L 805.14 489.57
  Q 804.93 490.37 804.10 490.29
  L 801.36 490.02
  A 0.72 0.71 -53.6 0 0 801.05 490.07
  Q 799.96 490.55 800.26 491.63
  L 768.14 490.64
  L 775.64 461.98
  L 788.61 412.74
  Q 788.71 412.33 788.30 412.22
  L 753.23 402.25
  Q 751.98 401.89 751.65 403.15
  L 738.73 452.71
  Q 720.50 448.07 702.34 443.35
  Q 698.86 442.45 700.55 440.45
  L 713.15 391.62
  A 0.92 0.92 0.0 0 1 714.29 390.97
  L 751.49 401.59
  Q 752.00 401.74 752.14 401.22
  L 765.29 350.78
  Q 765.41 350.33 765.85 350.47
  L 795.77 360.42
  Z"
/>
<path fill="#8e5c49" d="
  M 484.01 363.00
  L 482.50 426.11
  L 473.92 425.43
  L 474.01 362.10
  L 484.01 363.00
  Z"
/>
<path fill="#6a4537" d="
  M 474.01 362.10
  L 473.92 425.43
  L 440.20 429.52
  L 440.04 370.19
  Q 440.04 369.11 441.09 368.89
  L 474.01 362.10
  Z"
/>
<path fill="#6b4f3d" d="
  M 212.58 415.42
  A 0.20 0.20 0.0 0 1 212.44 415.67
  L 185.75 423.73
  A 4.82 0.94 -16.8 0 1 180.87 424.22
  L 166.86 377.81
  A 4.82 0.94 -16.8 0 1 171.20 375.52
  L 197.89 367.46
  A 0.20 0.20 0.0 0 1 198.14 367.59
  L 212.58 415.42
  Z"
/>
<path fill="#8d839f" d="
  M 571.40 442.83
  Q 571.33 442.85 571.26 442.87
  L 529.59 448.73
  A 0.40 0.39 -27.9 0 1 529.26 448.63
  Q 529.03 448.42 528.72 448.51
  Q 528.56 448.55 528.54 448.72
  Q 528.51 449.18 528.30 449.25
  L 530.25 387.70
  Q 530.27 387.20 530.77 387.15
  L 573.50 383.40
  Q 573.97 383.36 573.95 383.82
  L 571.40 442.83
  Z"
/>
<path fill="#79583f" d="
  M 281.05 396.59
  L 282.74 402.15
  L 266.02 405.68
  L 266.21 400.99
  L 281.05 396.59
  Z"
/>
<path fill="#8d839f" d="
  M 775.64 461.98
  L 738.89 452.72
  Q 738.81 452.72 738.73 452.71
  L 751.65 403.15
  Q 751.98 401.89 753.23 402.25
  L 788.30 412.22
  Q 788.71 412.33 788.61 412.74
  L 775.64 461.98
  Z"
/>
<path fill="#6a4537" d="
  M 282.74 402.15
  L 285.57 412.94
  Q 284.48 431.46 285.12 449.08
  L 266.06 451.04
  L 266.02 405.68
  L 282.74 402.15
  Z"
/>
<path fill="#79583f" d="
  M 285.57 412.94
  L 295.89 447.93
  L 285.12 449.08
  Q 284.48 431.46 285.57 412.94
  Z"
/>
<path fill="#262626" d="
  M 473.92 425.43
  L 482.50 426.11
  Q 482.82 426.56 482.77 427.75
  Q 481.69 452.74 482.05 477.75
  Q 482.07 479.45 480.99 483.16
  L 436.12 481.95
  L 346.83 486.74
  L 334.45 443.09
  L 440.20 429.52
  L 473.92 425.43
  Z"
/>
<path fill="#262626" d="
  M 611.42 434.74
  L 700.55 440.45
  Q 698.86 442.45 702.34 443.35
  Q 720.50 448.07 738.73 452.71
  Q 738.81 452.72 738.89 452.72
  L 732.09 478.59
  Q 731.96 479.11 732.29 479.52
  Q 736.86 485.16 743.40 489.94
  L 606.95 486.31
  L 555.67 484.41
  L 569.25 474.19
  Q 569.69 473.85 569.72 473.30
  L 571.26 442.87
  Q 571.33 442.85 571.40 442.83
  Q 596.15 439.43 609.25 437.25
  Q 611.40 436.89 611.42 434.74
  Z"
/>
<path fill="#bcb2cc" d="
  M 571.26 442.87
  L 569.72 473.30
  Q 569.69 473.85 569.25 474.19
  L 555.67 484.41
  Q 555.05 485.02 554.43 484.97
  Q 541.49 483.93 528.50 484.06
  Q 527.77 484.07 527.16 483.50
  L 528.30 449.25
  Q 528.51 449.18 528.54 448.72
  Q 528.56 448.55 528.72 448.51
  Q 529.03 448.42 529.26 448.63
  A 0.40 0.39 -27.9 0 0 529.59 448.73
  L 571.26 442.87
  Z"
/>
<path fill="#262626" d="
  M 295.89 447.93
  L 300.41 463.08
  Q 300.56 463.57 300.98 463.88
  Q 303.32 465.61 303.23 468.71
  Q 303.20 469.73 304.09 469.78
  Q 304.59 469.81 304.69 470.29
  C 305.48 474.00 304.99 477.56 305.97 481.09
  Q 307.01 484.84 307.86 488.87
  L 266.11 491.38
  L 266.06 451.04
  L 285.12 449.08
  L 295.89 447.93
  Z"
/>
<path fill="#bcb2cc" d="
  M 738.89 452.72
  L 775.64 461.98
  L 768.14 490.64
  L 743.40 489.94
  Q 736.86 485.16 732.29 479.52
  Q 731.96 479.11 732.09 478.59
  L 738.89 452.72
  Z"
/>
<path fill="#6a4537" d="
  M 436.12 481.95
  Q 435.51 519.82 436.76 557.49
  L 331.07 552.05
  L 330.97 487.62
  L 346.83 486.74
  L 436.12 481.95
  Z"
/>
<path fill="#8e5c49" d="
  M 436.12 481.95
  L 480.99 483.16
  Q 503.12 483.85 525.25 484.00
  Q 526.74 484.01 527.16 483.50
  Q 527.77 484.07 528.50 484.06
  Q 541.49 483.93 554.43 484.97
  Q 555.05 485.02 555.67 484.41
  L 606.95 486.31
  Q 607.04 519.00 607.00 551.75
  Q 607.00 553.29 607.98 553.43
  L 571.04 554.28
  L 525.00 555.48
  L 436.76 557.49
  Q 435.51 519.82 436.12 481.95
  Z"
/>
<path fill="#a27554" d="
  M 606.95 486.31
  L 743.40 489.94
  L 768.14 490.64
  L 800.26 491.63
  L 850.06 493.28
  L 850.05 546.98
  L 795.92 548.45
  L 764.03 549.23
  L 730.02 550.25
  L 694.14 551.22
  L 615.04 553.17
  L 607.98 553.43
  Q 607.00 553.29 607.00 551.75
  Q 607.04 519.00 606.95 486.31
  Z"
/>
<path fill="#79583f" d="
  M 330.97 487.62
  L 331.07 552.05
  L 266.72 548.66
  L 191.92 544.78
  L 191.93 495.45
  L 266.11 491.38
  L 307.86 488.87
  L 330.97 487.62
  Z"
/>
<path fill="#8e5c49" d="
  M 850.06 493.28
  L 938.63 495.61
  A 1.41 1.41 0.0 0 1 940.00 497.02
  L 940.00 544.24
  Q 940.00 544.85 939.40 544.86
  L 850.05 546.98
  L 850.06 493.28
  Z"
/>
<path fill="#6a4537" d="
  M 191.93 495.45
  L 191.92 544.78
  L 145.01 542.32
  A 1.07 1.06 -88.6 0 1 144.00 541.25
  L 144.00 498.76
  A 0.72 0.72 0.0 0 1 144.68 498.04
  L 191.93 495.45
  Z"
/>
<path fill="#1a191d" d="
  M 266.72 548.66
  L 331.07 552.05
  L 436.76 557.49
  L 525.00 555.48
  L 525.01 611.04
  L 525.01 671.19
  A 0.97 0.96 86.8 0 0 526.08 672.15
  L 571.03 667.16
  L 613.78 662.54
  Q 614.99 662.41 614.99 661.19
  L 615.00 605.81
  L 615.04 553.17
  L 694.14 551.22
  L 694.04 600.00
  L 694.03 652.91
  Q 694.03 653.41 694.53 653.36
  L 730.19 649.71
  L 763.26 645.99
  A 0.83 0.82 86.9 0 0 763.99 645.17
  L 764.00 595.82
  L 764.03 549.23
  L 795.92 548.45
  Q 796.13 602.93 795.93 657.19
  C 795.88 671.42 795.14 686.15 795.05 699.82
  Q 794.98 709.89 794.80 720.02
  L 788.96 719.87
  L 791.91 719.70
  A 0.60 0.60 0.0 0 0 792.41 718.83
  L 790.96 715.91
  Q 790.67 715.33 790.03 715.45
  Q 788.76 715.69 788.03 717.33
  L 782.50 670.00
  Q 782.43 669.47 781.91 669.44
  L 748.58 667.19
  L 713.83 664.97
  A 0.93 0.93 0.0 0 0 712.84 665.98
  L 715.99 703.65
  L 693.94 706.92
  L 693.96 655.12
  Q 693.96 653.65 692.50 653.81
  L 615.32 662.32
  A 0.30 0.30 0.0 0 0 615.05 662.62
  L 615.07 719.01
  L 605.22 720.72
  L 593.65 679.54
  Q 593.51 679.03 593.01 679.18
  L 550.06 692.44
  L 504.64 706.23
  A 1.11 1.11 0.0 0 0 503.89 707.57
  L 519.63 767.29
  Q 519.92 767.10 519.73 767.57
  A 0.42 0.40 1.2 0 1 519.48 767.80
  L 470.74 785.09
  A 0.87 0.86 -17.3 0 0 470.20 786.11
  L 474.52 802.81
  L 266.97 725.46
  A 1.49 1.48 10.2 0 1 266.00 724.07
  Q 265.99 638.59 266.02 552.69
  Q 266.02 550.81 266.72 548.66
  Z"
/>
<path fill="#a498b7" d="
  M 764.03 549.23
  L 764.00 595.82
  L 730.07 597.92
  L 730.02 550.25
  L 764.03 549.23
  Z"
/>
<path fill="#2a3295" d="
  M 730.02 550.25
  L 730.07 597.92
  Q 730.07 597.85 730.06 597.78
  L 694.04 600.00
  L 694.14 551.22
  L 730.02 550.25
  Z"
/>
<path fill="#2a3295" d="
  M 607.98 553.43
  L 615.04 553.17
  L 615.00 605.81
  L 571.02 608.26
  L 571.04 554.28
  L 607.98 553.43
  Z"
/>
<path fill="#a498b7" d="
  M 571.04 554.28
  L 571.02 608.26
  Q 571.01 608.44 571.01 608.62
  L 525.01 611.04
  L 525.00 555.48
  L 571.04 554.28
  Z"
/>
<path fill="#cccccc" d="
  M 764.00 595.82
  L 763.99 645.17
  A 0.83 0.82 86.9 0 1 763.26 645.99
  L 730.19 649.71
  L 730.06 597.78
  Q 730.07 597.85 730.07 597.92
  L 764.00 595.82
  Z"
/>
<path fill="#2e4da3" d="
  M 730.06 597.78
  L 730.19 649.71
  L 694.53 653.36
  Q 694.03 653.41 694.03 652.91
  L 694.04 600.00
  L 730.06 597.78
  Z"
/>
<path fill="#2e4da3" d="
  M 615.00 605.81
  L 614.99 661.19
  Q 614.99 662.41 613.78 662.54
  L 571.03 667.16
  L 571.01 608.62
  Q 571.01 608.44 571.02 608.26
  L 615.00 605.81
  Z"
/>
<path fill="#cccccc" d="
  M 571.01 608.62
  L 571.03 667.16
  L 526.08 672.15
  A 0.97 0.96 86.8 0 1 525.01 671.19
  L 525.01 611.04
  L 571.01 608.62
  Z"
/>
<path fill="#995b91" d="
  M 693.94 706.92
  L 615.07 719.01
  L 615.05 662.62
  A 0.30 0.30 0.0 0 1 615.32 662.32
  L 692.50 653.81
  Q 693.96 653.65 693.96 655.12
  L 693.94 706.92
  Z"
/>
<path fill="#a498b7" d="
  M 748.58 667.19
  L 754.18 717.82
  A 0.21 0.21 0.0 0 1 754.12 717.99
  Q 754.01 718.10 754.00 718.26
  Q 753.98 718.73 754.44 718.74
  L 788.04 719.58
  Q 787.63 719.05 788.96 719.87
  L 794.80 720.02
  L 819.92 720.04
  Q 820.38 720.05 820.44 720.50
  L 826.65 768.86
  Q 826.79 769.94 825.71 769.96
  L 760.51 771.19
  Q 759.97 771.20 759.91 770.66
  L 757.28 746.84
  L 754.16 719.47
  A 0.61 0.61 0.0 0 0 753.58 718.93
  L 730.00 717.92
  L 718.92 718.02
  A 1.09 1.09 0.0 0 1 717.82 717.03
  Q 717.28 711.09 716.76 704.75
  Q 716.72 704.25 715.99 703.65
  L 712.84 665.98
  A 0.93 0.93 0.0 0 1 713.83 664.97
  L 748.58 667.19
  Z"
/>
<path fill="#bcb2cc" d="
  M 748.58 667.19
  L 781.91 669.44
  Q 782.43 669.47 782.50 670.00
  L 788.03 717.33
  L 788.04 719.58
  L 754.44 718.74
  Q 753.98 718.73 754.00 718.26
  Q 754.01 718.10 754.12 717.99
  A 0.21 0.21 0.0 0 0 754.18 717.82
  L 748.58 667.19
  Z"
/>
<path fill="#a498b7" d="
  M 605.22 720.72
  L 608.84 735.30
  Q 609.02 736.00 608.33 736.25
  L 570.92 749.63
  L 566.06 751.46
  L 550.06 692.44
  L 593.01 679.18
  Q 593.51 679.03 593.65 679.54
  L 605.22 720.72
  Z"
/>
<path fill="#bcb2cc" d="
  M 550.06 692.44
  L 566.06 751.46
  L 519.63 767.29
  L 503.89 707.57
  A 1.11 1.11 0.0 0 1 504.64 706.23
  L 550.06 692.44
  Z"
/>
<path fill="#bcb2cc" d="
  M 715.99 703.65
  Q 716.72 704.25 716.76 704.75
  Q 717.28 711.09 717.82 717.03
  A 1.09 1.09 0.0 0 0 718.92 718.02
  L 730.00 717.92
  L 729.99 752.62
  L 574.81 783.36
  L 571.15 770.73
  L 570.92 749.63
  L 608.33 736.25
  Q 609.02 736.00 608.84 735.30
  L 605.22 720.72
  L 615.07 719.01
  L 693.94 706.92
  L 715.99 703.65
  Z"
/>
<path fill="#000000" d="
  M 788.96 719.87
  Q 787.63 719.05 788.04 719.58
  L 788.03 717.33
  Q 788.76 715.69 790.03 715.45
  Q 790.67 715.33 790.96 715.91
  L 792.41 718.83
  A 0.60 0.60 0.0 0 1 791.91 719.70
  L 788.96 719.87
  Z"
/>
<path fill="#1a191d" d="
  M 730.00 717.92
  L 753.58 718.93
  A 0.61 0.61 0.0 0 1 754.16 719.47
  L 757.28 746.84
  L 729.99 752.62
  L 730.00 717.92
  Z"
/>
<path fill="#1a191d" d="
  M 570.92 749.63
  L 571.15 770.73
  L 566.06 751.46
  L 570.92 749.63
  Z"
/>
<path fill="#a498b7" d="
  M 566.06 751.46
  L 571.15 770.73
  L 574.81 783.36
  L 581.91 810.02
  A 0.47 0.47 0.0 0 1 581.64 810.57
  L 487.32 849.10
  A 0.71 0.71 0.0 0 1 486.36 848.62
  L 474.52 802.81
  L 470.20 786.11
  A 0.87 0.86 -17.3 0 1 470.74 785.09
  L 519.48 767.80
  A 0.42 0.40 1.2 0 0 519.73 767.57
  Q 519.92 767.10 519.63 767.29
  L 566.06 751.46
  Z"
/>
</svg>
