<?xml version="1.0" encoding="UTF-8" standalone="no"?>
<!DOCTYPE svg PUBLIC "-//W3C//DTD SVG 1.1//EN" "http://www.w3.org/Graphics/SVG/1.1/DTD/svg11.dtd">
<svg xmlns="http://www.w3.org/2000/svg" version="1.1" viewBox="0.00 0.00 1024.00 640.00">
<g stroke-width="2.00" fill="none" stroke-linecap="butt">
<path stroke="#9090a8" vector-effect="non-scaling-stroke" d="
  M 130.80 0.00
  L 417.88 183.15
  A 0.38 0.38 0.0 0 0 418.47 182.83
  L 418.47 0.00"
/>
<path stroke="#e89696" vector-effect="non-scaling-stroke" d="
  M 451.76 0.00
  L 451.76 256.87
  Q 451.76 257.31 451.32 257.37
  C 446.78 258.04 441.32 257.39 438.08 257.40
  C 290.94 258.03 157.37 257.77 17.15 257.74
  C 12.78 257.74 5.82 257.24 0.00 257.91"
/>
<path stroke="#9090a8" vector-effect="non-scaling-stroke" d="
  M 0.00 233.75
  L 259.25 233.77
  Q 261.28 233.77 259.56 232.68
  Q 129.27 149.73 1.71 68.57
  Q 1.23 68.26 0.68 68.29
  Q 0.27 68.30 0.27 67.90
  Q 0.26 67.25 0.00 66.94"
/>
<path stroke="#e89696" vector-effect="non-scaling-stroke" d="
  M 4.20 45.91
  L 300.52 233.57
  A 6.08 6.03 60.9 0 0 303.74 234.50
  L 364.27 234.50
  A 0.41 0.41 0.0 0 0 364.49 233.75
  L 23.44 17.72"
/>
<path stroke="#e89696" vector-effect="non-scaling-stroke" d="
  M 574.05 0.00
  L 574.02 256.92
  Q 574.02 257.42 574.52 257.42
  C 686.64 258.10 797.69 257.53 911.00 257.74
  Q 965.50 257.85 1020.00 257.42
  Q 1022.08 257.40 1024.00 258.07"
/>
<path stroke="#e89696" vector-effect="non-scaling-stroke" d="
  M 1024.00 377.45
  L 764.60 377.63
  Q 764.32 377.63 764.11 377.44
  Q 763.97 377.31 763.75 377.31
  Q 669.04 377.22 574.69 377.28
  A 0.70 0.70 0.0 0 0 573.99 377.98
  L 573.99 640.00"
/>
<path stroke="#e89696" vector-effect="non-scaling-stroke" d="
  M 451.78 640.00
  L 451.78 377.91
  A 0.66 0.66 0.0 0 0 451.12 377.25
  Q 232.56 377.25 13.90 377.25
  C 10.55 377.25 4.73 377.81 0.00 377.19"
/>
<path stroke="#9090a8" vector-effect="non-scaling-stroke" d="
  M 605.56 0.00
  L 605.70 177.25
  A 0.33 0.33 0.0 0 0 606.21 177.53
  L 880.63 0.00"
/>
<path stroke="#e89696" vector-effect="non-scaling-stroke" d="
  M 947.04 0.00
  L 948.39 0.32
  A 0.37 0.37 0.0 0 1 948.52 0.98
  Q 948.03 1.34 947.44 1.24
  A 1.06 1.04 -56.1 0 0 946.66 1.40
  L 600.21 233.30
  Q 598.42 234.50 600.58 234.50
  L 659.24 234.50
  A 1.64 1.63 -61.6 0 0 660.14 234.23
  L 992.64 11.72"
/>
<path stroke="#9090a8" vector-effect="non-scaling-stroke" d="
  M 1023.25 59.24
  Q 1022.24 59.88 1021.98 59.71
  Q 887.68 146.52 753.56 233.32
  A 0.23 0.23 0.0 0 0 753.69 233.75
  L 1024.00 233.76"
/>
<path stroke="#9090a8" vector-effect="non-scaling-stroke" d="
  M 418.42 640.00
  L 418.42 450.67
  Q 418.42 450.06 417.91 450.39
  L 125.19 640.00"
/>
<path stroke="#e89696" vector-effect="non-scaling-stroke" d="
  M 67.86 640.00
  L 417.73 405.97
  Q 418.80 405.25 417.51 405.25
  L 359.51 405.25
  A 5.90 5.87 -61.8 0 0 356.23 406.25
  L 27.94 625.95"
/>
<path stroke="#9090a8" vector-effect="non-scaling-stroke" d="
  M 0.00 569.46
  L 254.17 405.24
  Q 255.32 404.49 253.95 404.49
  L 0.00 404.50"
/>
<path stroke="#9090a8" vector-effect="non-scaling-stroke" d="
  M 1024.00 404.47
  L 766.68 404.47
  A 0.33 0.33 0.0 0 0 766.50 405.08
  L 1024.00 569.01"
/>
<path stroke="#e89696" vector-effect="non-scaling-stroke" d="
  M 1018.42 597.92
  L 714.89 406.11
  A 5.06 5.00 60.7 0 0 712.17 405.33
  C 696.69 405.38 681.17 405.56 665.63 405.20
  Q 658.59 405.04 651.45 405.58
  Q 650.59 405.65 651.31 406.11
  L 997.17 625.17"
/>
<path stroke="#9090a8" vector-effect="non-scaling-stroke" d="
  M 898.69 640.00
  C 897.79 639.49 897.43 638.72 896.60 638.19
  Q 751.40 545.74 606.05 453.25
  A 0.19 0.19 0.0 0 0 605.76 453.41
  L 605.61 640.00"
/>
</g>
<path fill="#ffffff" d="
  M 65.79 0.00
  L 130.80 0.00
  L 417.88 183.15
  A 0.38 0.38 0.0 0 0 418.47 182.83
  L 418.47 0.00
  L 451.76 0.00
  L 451.76 256.87
  Q 451.76 257.31 451.32 257.37
  C 446.78 258.04 441.32 257.39 438.08 257.40
  C 290.94 258.03 157.37 257.77 17.15 257.74
  C 12.78 257.74 5.82 257.24 0.00 257.91
  L 0.00 233.75
  L 259.25 233.77
  Q 261.28 233.77 259.56 232.68
  Q 129.27 149.73 1.71 68.57
  Q 1.23 68.26 0.68 68.29
  Q 0.27 68.30 0.27 67.90
  Q 0.26 67.25 0.00 66.94
  L 0.00 65.50
  Q 0.99 55.68 4.20 45.91
  L 300.52 233.57
  A 6.08 6.03 60.9 0 0 303.74 234.50
  L 364.27 234.50
  A 0.41 0.41 0.0 0 0 364.49 233.75
  L 23.44 17.72
  Q 41.40 2.06 65.79 0.00
  Z"
/>
<path fill="#212051" d="
  M 130.80 0.00
  L 418.47 0.00
  L 418.47 182.83
  A 0.38 0.38 0.0 0 1 417.88 183.15
  L 130.80 0.00
  Z"
/>
<path fill="#d12d2c" d="
  M 451.76 0.00
  L 574.05 0.00
  L 574.02 256.92
  Q 574.02 257.42 574.52 257.42
  C 686.64 258.10 797.69 257.53 911.00 257.74
  Q 965.50 257.85 1020.00 257.42
  Q 1022.08 257.40 1024.00 258.07
  L 1024.00 377.45
  L 764.60 377.63
  Q 764.32 377.63 764.11 377.44
  Q 763.97 377.31 763.75 377.31
  Q 669.04 377.22 574.69 377.28
  A 0.70 0.70 0.0 0 0 573.99 377.98
  L 573.99 640.00
  L 451.78 640.00
  L 451.78 377.91
  A 0.66 0.66 0.0 0 0 451.12 377.25
  Q 232.56 377.25 13.90 377.25
  C 10.55 377.25 4.73 377.81 0.00 377.19
  L 0.00 257.91
  C 5.82 257.24 12.78 257.74 17.15 257.74
  C 157.37 257.77 290.94 258.03 438.08 257.40
  C 441.32 257.39 446.78 258.04 451.32 257.37
  Q 451.76 257.31 451.76 256.87
  L 451.76 0.00
  Z"
/>
<path fill="#ffffff" d="
  M 574.05 0.00
  L 605.56 0.00
  L 605.70 177.25
  A 0.33 0.33 0.0 0 0 606.21 177.53
  L 880.63 0.00
  L 947.04 0.00
  L 948.39 0.32
  A 0.37 0.37 0.0 0 1 948.52 0.98
  Q 948.03 1.34 947.44 1.24
  A 1.06 1.04 -56.1 0 0 946.66 1.40
  L 600.21 233.30
  Q 598.42 234.50 600.58 234.50
  L 659.24 234.50
  A 1.64 1.63 -61.6 0 0 660.14 234.23
  L 992.64 11.72
  Q 1018.15 29.32 1023.25 59.24
  Q 1022.24 59.88 1021.98 59.71
  Q 887.68 146.52 753.56 233.32
  A 0.23 0.23 0.0 0 0 753.69 233.75
  L 1024.00 233.76
  L 1024.00 258.07
  Q 1022.08 257.40 1020.00 257.42
  Q 965.50 257.85 911.00 257.74
  C 797.69 257.53 686.64 258.10 574.52 257.42
  Q 574.02 257.42 574.02 256.92
  L 574.05 0.00
  Z"
/>
<path fill="#212051" d="
  M 605.56 0.00
  L 880.63 0.00
  L 606.21 177.53
  A 0.33 0.33 0.0 0 1 605.70 177.25
  L 605.56 0.00
  Z"
/>
<path fill="#d12d2c" d="
  M 947.04 0.00
  L 958.28 0.00
  Q 977.32 1.54 992.64 11.72
  L 660.14 234.23
  A 1.64 1.63 -61.6 0 1 659.24 234.50
  L 600.58 234.50
  Q 598.42 234.50 600.21 233.30
  L 946.66 1.40
  A 1.06 1.04 -56.1 0 1 947.44 1.24
  Q 948.03 1.34 948.52 0.98
  A 0.37 0.37 0.0 0 0 948.39 0.32
  L 947.04 0.00
  Z"
/>
<path fill="#d12d2c" d="
  M 23.44 17.72
  L 364.49 233.75
  A 0.41 0.41 0.0 0 1 364.27 234.50
  L 303.74 234.50
  A 6.08 6.03 60.9 0 1 300.52 233.57
  L 4.20 45.91
  Q 10.17 30.18 23.44 17.72
  Z"
/>
<path fill="#212051" d="
  M 1023.25 59.24
  L 1024.00 66.07
  L 1024.00 233.76
  L 753.69 233.75
  A 0.23 0.23 0.0 0 1 753.56 233.32
  Q 887.68 146.52 1021.98 59.71
  Q 1022.24 59.88 1023.25 59.24
  Z"
/>
<path fill="#212051" d="
  M 0.00 66.94
  Q 0.26 67.25 0.27 67.90
  Q 0.27 68.30 0.68 68.29
  Q 1.23 68.26 1.71 68.57
  Q 129.27 149.73 259.56 232.68
  Q 261.28 233.77 259.25 233.77
  L 0.00 233.75
  L 0.00 66.94
  Z"
/>
<path fill="#ffffff" d="
  M 0.00 377.19
  C 4.73 377.81 10.55 377.25 13.90 377.25
  Q 232.56 377.25 451.12 377.25
  A 0.66 0.66 0.0 0 1 451.78 377.91
  L 451.78 640.00
  L 418.42 640.00
  L 418.42 450.67
  Q 418.42 450.06 417.91 450.39
  L 125.19 640.00
  L 67.86 640.00
  L 417.73 405.97
  Q 418.80 405.25 417.51 405.25
  L 359.51 405.25
  A 5.90 5.87 -61.8 0 0 356.23 406.25
  L 27.94 625.95
  Q 3.28 606.73 0.00 575.11
  L 0.00 569.46
  L 254.17 405.24
  Q 255.32 404.49 253.95 404.49
  L 0.00 404.50
  L 0.00 377.19
  Z"
/>
<path fill="#ffffff" d="
  M 1024.00 377.45
  L 1024.00 404.47
  L 766.68 404.47
  A 0.33 0.33 0.0 0 0 766.50 405.08
  L 1024.00 569.01
  L 1024.00 575.03
  Q 1022.83 586.85 1018.42 597.92
  L 714.89 406.11
  A 5.06 5.00 60.7 0 0 712.17 405.33
  C 696.69 405.38 681.17 405.56 665.63 405.20
  Q 658.59 405.04 651.45 405.58
  Q 650.59 405.65 651.31 406.11
  L 997.17 625.17
  Q 980.22 638.51 958.11 640.00
  L 898.69 640.00
  C 897.79 639.49 897.43 638.72 896.60 638.19
  Q 751.40 545.74 606.05 453.25
  A 0.19 0.19 0.0 0 0 605.76 453.41
  L 605.61 640.00
  L 573.99 640.00
  L 573.99 377.98
  A 0.70 0.70 0.0 0 1 574.69 377.28
  Q 669.04 377.22 763.75 377.31
  Q 763.97 377.31 764.11 377.44
  Q 764.32 377.63 764.60 377.63
  L 1024.00 377.45
  Z"
/>
<path fill="#212051" d="
  M 1024.00 404.47
  L 1024.00 569.01
  L 766.50 405.08
  A 0.33 0.33 0.0 0 1 766.68 404.47
  L 1024.00 404.47
  Z"
/>
<path fill="#212051" d="
  M 0.00 404.50
  L 253.95 404.49
  Q 255.32 404.49 254.17 405.24
  L 0.00 569.46
  L 0.00 404.50
  Z"
/>
<path fill="#d12d2c" d="
  M 67.86 640.00
  L 66.00 640.00
  Q 44.54 638.61 27.94 625.95
  L 356.23 406.25
  A 5.90 5.87 -61.8 0 1 359.51 405.25
  L 417.51 405.25
  Q 418.80 405.25 417.73 405.97
  L 67.86 640.00
  Z"
/>
<path fill="#d12d2c" d="
  M 1018.42 597.92
  Q 1010.98 614.04 997.17 625.17
  L 651.31 406.11
  Q 650.59 405.65 651.45 405.58
  Q 658.59 405.04 665.63 405.20
  C 681.17 405.56 696.69 405.38 712.17 405.33
  A 5.06 5.00 60.7 0 1 714.89 406.11
  L 1018.42 597.92
  Z"
/>
<path fill="#212051" d="
  M 418.42 640.00
  L 125.19 640.00
  L 417.91 450.39
  Q 418.42 450.06 418.42 450.67
  L 418.42 640.00
  Z"
/>
<path fill="#212051" d="
  M 898.69 640.00
  L 605.61 640.00
  L 605.76 453.41
  A 0.19 0.19 0.0 0 1 606.05 453.25
  Q 751.40 545.74 896.60 638.19
  C 897.43 638.72 897.79 639.49 898.69 640.00
  Z"
/>
</svg>
