<?xml version="1.0" encoding="UTF-8" standalone="no"?>
<!DOCTYPE svg PUBLIC "-//W3C//DTD SVG 1.1//EN" "http://www.w3.org/Graphics/SVG/1.1/DTD/svg11.dtd">
<svg xmlns="http://www.w3.org/2000/svg" version="1.1" viewBox="0.00 0.00 1062.00 1062.00">
<g stroke-width="2.00" fill="none" stroke-linecap="butt">
<path stroke="#808080" vector-effect="non-scaling-stroke" d="
  M 156.26 457.03
  Q 141.59 457.62 137.51 458.49
  Q 115.32 463.25 107.06 483.04
  C 102.65 493.62 104.12 504.25 104.00 515.30
  C 103.87 527.24 102.66 542.38 105.50 552.56
  C 110.76 571.37 127.81 582.18 146.75 582.99
  Q 185.89 584.66 225.00 586.97
  A 1.06 1.06 0.0 0 1 226.00 588.03
  Q 226.01 654.09 226.00 720.58
  Q 225.99 729.65 227.33 734.68
  C 232.28 753.33 245.07 760.57 262.26 766.98
  Q 351.41 800.22 440.60 833.46
  Q 441.10 833.65 441.23 834.16
  C 443.96 844.85 446.33 858.91 450.50 867.31
  C 458.24 882.91 476.47 891.21 493.29 888.81
  Q 499.21 887.97 510.70 883.28
  Q 549.49 867.46 588.26 851.59
  Q 601.58 846.14 606.13 842.74
  Q 618.90 833.21 621.62 816.07
  A 1.10 1.09 88.9 0 1 622.48 815.17
  L 727.30 794.30
  Q 727.79 794.21 728.05 794.62
  C 734.93 805.43 748.95 811.12 761.25 811.05
  Q 791.65 810.88 822.03 810.01
  Q 833.75 809.67 838.81 808.13
  C 852.94 803.84 863.54 791.74 866.26 777.24
  C 867.31 771.67 866.93 764.95 866.20 759.21
  Q 863.60 738.73 860.99 718.24
  Q 857.95 694.36 836.52 683.62
  Q 836.00 683.36 836.00 682.77
  L 836.00 587.50
  A 0.39 0.39 0.0 0 1 836.39 587.11
  Q 881.82 586.54 927.31 585.10
  C 933.97 584.89 941.43 585.56 947.48 584.17
  C 968.47 579.35 980.23 563.41 980.04 541.90
  Q 979.90 524.85 980.04 507.83
  Q 980.16 493.36 979.01 487.91
  C 974.09 464.58 954.45 455.44 932.25 455.08
  Q 895.91 454.48 858.57 453.16
  Q 856.83 453.10 857.28 451.42
  Q 865.93 418.75 874.80 385.20
  C 879.64 366.88 871.17 348.60 855.96 339.10
  C 849.22 334.90 839.82 332.31 831.60 329.85
  Q 831.12 329.70 830.85 329.27
  Q 819.75 311.72 799.43 308.55
  Q 648.91 285.06 498.39 261.54
  Q 482.76 259.09 478.57 258.99
  Q 467.18 258.72 455.07 262.31
  Q 415.40 274.06 375.37 285.74
  A 0.58 0.57 73.9 0 1 374.66 285.34
  Q 370.79 271.55 366.85 257.58
  C 360.42 234.74 341.20 221.51 316.96 225.58
  Q 314.35 226.02 313.89 223.06
  C 311.59 208.29 303.44 195.81 290.63 188.73
  Q 290.19 188.49 290.44 188.05
  C 297.70 175.26 297.01 164.76 292.96 150.09
  Q 287.10 128.88 280.95 107.75
  Q 277.73 96.68 274.75 91.77
  C 265.87 77.14 247.81 69.22 230.87 72.64
  Q 225.22 73.78 214.60 79.14
  Q 188.15 92.50 161.96 106.41
  Q 161.53 106.64 161.41 106.16
  C 154.99 80.68 128.81 65.91 104.02 76.04
  Q 101.58 77.03 87.03 85.17
  C 69.75 94.83 54.97 101.79 51.56 123.60
  Q 49.80 134.88 53.56 147.20
  Q 62.76 177.35 72.03 207.49
  Q 72.60 209.31 71.16 210.07
  C 58.36 216.82 51.73 232.38 52.09 245.88
  Q 52.22 251.05 54.54 258.91
  Q 60.85 280.31 67.75 301.54
  C 74.27 321.63 87.83 333.20 110.07 333.12
  A 1.02 1.02 0.0 0 1 111.07 333.93
  Q 114.81 351.58 129.43 361.94
  Q 129.88 362.26 129.70 362.78
  Q 124.98 376.22 127.96 388.51
  Q 130.92 400.72 142.61 436.84
  Q 145.55 445.92 153.35 453.99
  C 154.18 454.85 155.58 455.50 156.51 456.39
  Q 157.13 457.00 156.26 457.03"
/>
<path stroke="#3c3127" vector-effect="non-scaling-stroke" d="
  M 169.26 147.98
  L 137.08 164.43"
/>
<path stroke="#2e1f18" vector-effect="non-scaling-stroke" d="
  M 137.08 164.43
  Q 137.03 164.24 136.66 164.20"
/>
<path stroke="#36281f" vector-effect="non-scaling-stroke" d="
  M 136.66 164.20
  L 121.32 113.50
  A 0.88 0.88 0.0 0 0 120.04 112.99
  L 91.71 129.17
  Q 90.54 129.84 90.94 131.13
  L 106.08 180.37"
/>
<path stroke="#2e1f18" vector-effect="non-scaling-stroke" d="
  M 106.08 180.37
  Q 113.53 204.94 121.17 229.77
  Q 121.27 230.11 121.05 230.87"
/>
<path stroke="#36281f" vector-effect="non-scaling-stroke" d="
  M 121.05 230.87
  L 92.94 244.27
  A 0.82 0.81 68.9 0 0 92.51 245.25
  L 107.18 292.23
  Q 107.33 292.73 107.82 292.52
  L 135.71 280.81
  A 1.03 1.02 -19.8 0 1 137.08 281.45
  L 151.48 327.97
  Q 151.86 329.22 153.08 328.75
  Q 166.86 323.54 181.56 318.30
  Q 181.98 318.15 183.16 318.27"
/>
<path stroke="#3c3127" vector-effect="non-scaling-stroke" d="
  M 183.16 318.27
  L 197.58 365.83
  A 1.29 1.29 0.0 0 0 199.20 366.68
  L 230.25 356.79
  A 0.91 0.90 73.2 0 1 231.38 357.40
  L 245.55 405.17
  A 1.52 1.52 0.0 0 0 247.41 406.19
  L 266.21 400.99"
/>
<path stroke="#3d2c20" vector-effect="non-scaling-stroke" d="
  M 266.21 400.99
  L 266.02 405.68"
/>
<path stroke="#35231c" vector-effect="non-scaling-stroke" d="
  M 266.02 405.68
  L 266.05 451.04"
/>
<path stroke="#101010" vector-effect="non-scaling-stroke" d="
  M 266.05 451.04
  L 266.10 491.40"
/>
<path stroke="#3d2c20" vector-effect="non-scaling-stroke" d="
  M 266.10 491.40
  L 191.92 495.46"
/>
<path stroke="#35231c" vector-effect="non-scaling-stroke" d="
  M 191.92 495.46
  L 144.68 498.04
  A 0.72 0.72 0.0 0 0 144.00 498.76
  L 144.00 541.25
  A 1.07 1.06 -88.6 0 0 145.01 542.32
  L 191.92 544.78"
/>
<path stroke="#3d2c20" vector-effect="non-scaling-stroke" d="
  M 191.92 544.78
  L 266.32 548.64"
/>
<path stroke="#09090b" vector-effect="non-scaling-stroke" d="
  M 266.32 548.64
  L 266.04 588.95"
/>
<path stroke="#0d0d0f" vector-effect="non-scaling-stroke" d="
  M 266.04 588.95
  L 266.01 724.07
  Q 266.01 725.10 266.98 725.47
  L 474.52 802.81"
/>
<path stroke="#524c5c" vector-effect="non-scaling-stroke" d="
  M 474.52 802.81
  L 486.36 848.62
  A 0.71 0.71 0.0 0 0 487.32 849.10
  L 581.64 810.57
  A 0.47 0.47 0.0 0 0 581.91 810.02
  L 574.81 783.35"
/>
<path stroke="#65606e" vector-effect="non-scaling-stroke" d="
  M 574.81 783.35
  L 730.03 752.60"
/>
<path stroke="#121113" vector-effect="non-scaling-stroke" d="
  M 730.03 752.60
  L 757.28 746.83"
/>
<path stroke="#524c5c" vector-effect="non-scaling-stroke" d="
  M 757.28 746.83
  L 759.91 770.67
  Q 759.97 771.21 760.51 771.20
  L 825.71 769.96
  Q 826.79 769.94 826.65 768.86
  L 820.44 720.50
  Q 820.38 720.04 819.91 720.04
  L 794.80 720.02"
/>
<path stroke="#121113" vector-effect="non-scaling-stroke" d="
  M 794.80 720.02
  C 795.54 677.97 796.11 636.04 795.96 593.96"
/>
<path stroke="#0d0d0f" vector-effect="non-scaling-stroke" d="
  M 795.96 593.96
  L 795.87 548.45"
/>
<path stroke="#513b2a" vector-effect="non-scaling-stroke" d="
  M 795.87 548.45
  L 850.04 546.98"
/>
<path stroke="#472e25" vector-effect="non-scaling-stroke" d="
  M 850.04 546.98
  L 939.40 544.86
  Q 940.00 544.85 940.00 544.24
  L 940.00 497.02
  A 1.41 1.41 0.0 0 0 938.63 495.61
  L 850.06 493.27"
/>
<path stroke="#513b2a" vector-effect="non-scaling-stroke" d="
  M 850.06 493.27
  L 804.49 491.76"
/>
<path stroke="#0d0d0f" vector-effect="non-scaling-stroke" d="
  M 804.49 491.76
  L 835.91 374.93
  A 1.17 1.16 16.9 0 0 835.15 373.52
  L 795.78 360.40"
/>
<path stroke="#513b2a" vector-effect="non-scaling-stroke" d="
  M 795.78 360.40
  L 795.94 349.53
  Q 795.95 349.01 795.44 348.93
  L 731.11 338.81"
/>
<path stroke="#5f4532" vector-effect="non-scaling-stroke" d="
  M 731.11 338.81
  L 572.52 314.12"
/>
<path stroke="#513b2a" vector-effect="non-scaling-stroke" d="
  M 572.52 314.12
  L 473.96 298.83"
/>
<path stroke="#3d2c20" vector-effect="non-scaling-stroke" d="
  M 473.96 298.83
  L 408.87 318.06"
/>
<path stroke="#473425" vector-effect="non-scaling-stroke" d="
  M 408.87 318.06
  L 307.51 347.74"
/>
<path stroke="#1f100e" vector-effect="non-scaling-stroke" d="
  M 307.51 347.74
  L 303.28 333.17"
/>
<path stroke="#2e1f18" vector-effect="non-scaling-stroke" d="
  M 303.28 333.17
  Q 303.21 333.10 303.15 333.04"
/>
<path stroke="#36281f" vector-effect="non-scaling-stroke" d="
  M 303.15 333.04
  L 341.99 320.60
  A 0.54 0.54 0.0 0 0 342.34 319.94
  L 327.20 265.70
  A 1.09 1.09 0.0 0 0 325.78 264.97
  Q 307.11 271.84 288.51 278.79
  Q 288.11 278.94 287.54 278.51"
/>
<path stroke="#3c3127" vector-effect="non-scaling-stroke" d="
  M 287.54 278.51
  L 272.46 224.91
  Q 272.19 223.97 271.28 224.34
  L 235.60 239.15"
/>
<path stroke="#2e1f18" vector-effect="non-scaling-stroke" d="
  M 235.60 239.15
  Q 235.52 238.96 235.43 238.82
  Q 235.11 238.32 235.08 238.21
  L 219.72 185.50"
/>
<path stroke="#36281f" vector-effect="non-scaling-stroke" d="
  M 219.72 185.50
  C 219.92 185.18 220.21 184.83 220.57 184.66
  Q 237.96 176.64 255.14 168.52
  A 1.32 1.32 0.0 0 0 255.85 166.96
  L 240.36 112.72
  A 1.09 1.09 0.0 0 0 238.81 112.04
  L 169.26 147.98"
/>
<path stroke="#644636" vector-effect="non-scaling-stroke" d="
  M 219.72 185.50
  Q 218.83 185.44 218.56 185.56
  Q 202.09 193.25 185.15 201.21"
/>
<path stroke="#725945" vector-effect="non-scaling-stroke" d="
  M 185.15 201.21
  L 169.26 147.98"
/>
<path stroke="#6a503e" vector-effect="non-scaling-stroke" d="
  M 185.15 201.21
  Q 184.62 201.94 184.63 201.49"
/>
<path stroke="#5b4135" vector-effect="non-scaling-stroke" d="
  M 184.63 201.49
  Q 169.25 208.56 153.94 215.94
  Q 153.58 216.11 152.45 215.96"
/>
<path stroke="#6a503e" vector-effect="non-scaling-stroke" d="
  M 152.45 215.96
  L 136.85 164.79
  Q 136.80 164.64 136.87 164.50
  Q 137.01 164.19 137.08 164.43"
/>
<path stroke="#6a503e" vector-effect="non-scaling-stroke" d="
  M 235.60 239.15
  Q 234.92 239.69 235.13 239.31"
/>
<path stroke="#4d2e26" vector-effect="non-scaling-stroke" d="
  M 235.13 239.31
  L 200.69 253.69"
/>
<path stroke="#644636" vector-effect="non-scaling-stroke" d="
  M 200.69 253.69
  Q 199.93 253.70 200.32 253.89"
/>
<path stroke="#4d2e26" vector-effect="non-scaling-stroke" d="
  M 200.32 253.89
  Q 200.32 253.64 200.35 253.48
  A 1.34 1.30 44.0 0 0 200.33 252.88
  Q 193.28 228.94 186.21 205.01
  Q 185.48 202.54 184.63 201.49"
/>
<path stroke="#4d2e26" vector-effect="non-scaling-stroke" d="
  M 152.45 215.96
  L 152.12 216.56"
/>
<path stroke="#6a503e" vector-effect="non-scaling-stroke" d="
  M 152.12 216.56
  L 121.72 230.86"
/>
<path stroke="#644636" vector-effect="non-scaling-stroke" d="
  M 121.72 230.86
  Q 120.79 230.53 121.05 230.87"
/>
<path stroke="#54372d" vector-effect="non-scaling-stroke" d="
  M 200.32 253.89
  Q 184.54 260.68 168.56 267.06
  Q 168.46 267.34 168.03 267.00"
/>
<path stroke="#5b4135" vector-effect="non-scaling-stroke" d="
  M 168.03 267.00
  L 152.12 216.56"
/>
<path stroke="#725945" vector-effect="non-scaling-stroke" d="
  M 287.54 278.51
  Q 287.70 278.81 286.77 279.23"
/>
<path stroke="#6a503e" vector-effect="non-scaling-stroke" d="
  M 286.77 279.23
  L 250.89 292.57"
/>
<path stroke="#5b4135" vector-effect="non-scaling-stroke" d="
  M 250.89 292.57
  Q 243.27 267.06 236.30 241.99
  Q 235.96 240.79 235.13 239.31"
/>
<path stroke="#4d2e26" vector-effect="non-scaling-stroke" d="
  M 250.89 292.57
  L 266.17 345.21"
/>
<path stroke="#5b4135" vector-effect="non-scaling-stroke" d="
  M 266.17 345.21
  L 232.98 355.70
  Q 231.08 356.31 230.51 354.39
  L 215.94 305.49"
/>
<path stroke="#54372d" vector-effect="non-scaling-stroke" d="
  M 200.69 253.69
  L 215.94 305.49"
/>
<path stroke="#725945" vector-effect="non-scaling-stroke" d="
  M 215.94 305.49
  L 183.56 317.57
  Q 183.29 317.67 183.28 317.95
  Q 183.27 318.16 183.16 318.27"
/>
<path stroke="#644636" vector-effect="non-scaling-stroke" d="
  M 136.66 164.20
  Q 136.23 164.79 135.97 164.93
  Q 121.28 173.07 106.08 180.37"
/>
<path stroke="#725945" vector-effect="non-scaling-stroke" d="
  M 168.03 267.00
  Q 168.01 267.13 167.99 267.29
  A 0.37 0.36 -7.5 0 1 167.77 267.57
  L 138.39 279.59
  A 1.52 1.51 70.2 0 1 136.36 278.63
  L 121.72 230.86"
/>
<path stroke="#4d2e26" vector-effect="non-scaling-stroke" d="
  M 303.28 333.17
  L 266.21 345.08"
/>
<path stroke="#6a503e" vector-effect="non-scaling-stroke" d="
  M 266.21 345.08
  Q 266.19 345.15 266.17 345.21"
/>
<path stroke="#644636" vector-effect="non-scaling-stroke" d="
  M 303.15 333.04
  Q 292.61 295.73 288.00 280.25
  Q 287.66 279.11 286.77 279.23"
/>
<path stroke="#5b4135" vector-effect="non-scaling-stroke" d="
  M 266.21 345.08
  L 281.05 396.59"
/>
<path stroke="#795d46" vector-effect="non-scaling-stroke" d="
  M 281.05 396.59
  L 266.21 400.99"
/>
<path stroke="#332423" vector-effect="non-scaling-stroke" d="
  M 334.73 443.04
  L 346.77 486.76"
/>
<path stroke="#54322a" vector-effect="non-scaling-stroke" d="
  M 346.77 486.76
  L 330.97 487.61"
/>
<path stroke="#5b3c2e" vector-effect="non-scaling-stroke" d="
  M 330.97 487.61
  L 307.81 488.81"
/>
<path stroke="#332423" vector-effect="non-scaling-stroke" d="
  M 307.81 488.81
  L 295.88 447.92"
/>
<path stroke="#5b3c2e" vector-effect="non-scaling-stroke" d="
  M 295.88 447.92
  L 285.60 413.13"
/>
<path stroke="#54322a" vector-effect="non-scaling-stroke" d="
  M 285.60 413.13
  L 282.73 402.15"
/>
<path stroke="#5b3c2e" vector-effect="non-scaling-stroke" d="
  M 282.73 402.15
  L 281.05 396.59"
/>
<path stroke="#724f3b" vector-effect="non-scaling-stroke" d="
  M 282.73 402.15
  L 266.02 405.68"
/>
<path stroke="#514134" vector-effect="non-scaling-stroke" d="
  M 307.81 488.81
  L 284.94 490.08"
/>
<path stroke="#242424" vector-effect="non-scaling-stroke" d="
  M 284.94 490.08
  L 284.78 449.14"
/>
<path stroke="#8e674a" vector-effect="non-scaling-stroke" d="
  M 473.96 298.83
  L 474.01 362.13"
/>
<path stroke="#724f3b" vector-effect="non-scaling-stroke" d="
  M 474.01 362.13
  L 440.71 368.99
  A 0.81 0.81 0.0 0 0 440.06 369.78
  L 440.16 429.53"
/>
<path stroke="#4c3c2f" vector-effect="non-scaling-stroke" d="
  M 440.16 429.53
  Q 439.70 429.39 439.50 429.63"
/>
<path stroke="#514134" vector-effect="non-scaling-stroke" d="
  M 439.50 429.63
  L 334.73 443.04"
/>
<path stroke="#5b3c2e" vector-effect="non-scaling-stroke" d="
  M 334.73 443.04
  L 320.78 394.55"
/>
<path stroke="#846045" vector-effect="non-scaling-stroke" d="
  M 320.78 394.55
  L 408.40 375.87
  Q 408.92 375.76 408.92 375.23
  L 408.87 318.06"
/>
<path stroke="#724f3b" vector-effect="non-scaling-stroke" d="
  M 285.60 413.13
  Q 284.44 431.59 285.13 449.12"
/>
<path stroke="#4a3730" vector-effect="non-scaling-stroke" d="
  M 285.13 449.12
  Q 284.95 449.13 284.78 449.14"
/>
<path stroke="#45322b" vector-effect="non-scaling-stroke" d="
  M 284.78 449.14
  L 266.05 451.04"
/>
<path stroke="#7c5140" vector-effect="non-scaling-stroke" d="
  M 436.12 481.96
  Q 435.52 519.80 436.76 557.50"
/>
<path stroke="#3e2b26" vector-effect="non-scaling-stroke" d="
  M 436.76 557.50
  L 331.07 552.06"
/>
<path stroke="#724f3b" vector-effect="non-scaling-stroke" d="
  M 331.07 552.06
  L 330.97 487.61"
/>
<path stroke="#664333" vector-effect="non-scaling-stroke" d="
  M 320.78 394.55
  L 307.51 347.74"
/>
<path stroke="#5c4339" vector-effect="non-scaling-stroke" d="
  M 440.00 481.94
  L 436.12 481.96"
/>
<path stroke="#4a3730" vector-effect="non-scaling-stroke" d="
  M 436.12 481.96
  L 346.77 486.76"
/>
<path stroke="#45352a" vector-effect="non-scaling-stroke" d="
  M 331.07 552.06
  L 266.32 548.64"
/>
<path stroke="#724f3b" vector-effect="non-scaling-stroke" d="
  M 191.92 544.78
  L 191.92 495.46"
/>
<path stroke="#514134" vector-effect="non-scaling-stroke" d="
  M 295.88 447.92
  L 285.13 449.12"
/>
<path stroke="#4c3c2f" vector-effect="non-scaling-stroke" d="
  M 284.94 490.08
  L 266.10 491.40"
/>
<path stroke="#5c4339" vector-effect="non-scaling-stroke" d="
  M 482.47 426.06
  L 473.91 425.23"
/>
<path stroke="#7c5140" vector-effect="non-scaling-stroke" d="
  M 473.91 425.23
  L 474.01 362.13"
/>
<path stroke="#573e34" vector-effect="non-scaling-stroke" d="
  M 473.98 482.84
  L 440.00 481.94"
/>
<path stroke="#242424" vector-effect="non-scaling-stroke" d="
  M 440.00 481.94
  Q 440.00 457.56 440.00 433.14
  C 440.00 431.88 439.45 430.89 439.50 429.63"
/>
<path stroke="#b07f5c" vector-effect="non-scaling-stroke" d="
  M 572.52 314.12
  Q 571.93 314.80 572.00 315.75
  Q 572.18 318.28 571.82 322.12"
/>
<path stroke="#5e4739" vector-effect="non-scaling-stroke" d="
  M 571.82 322.12
  L 486.72 324.85
  A 1.76 1.76 0.0 0 0 485.02 326.56
  L 484.01 363.01"
/>
<path stroke="#98694f" vector-effect="non-scaling-stroke" d="
  M 484.01 363.01
  L 474.01 362.13"
/>
<path stroke="#4a3730" vector-effect="non-scaling-stroke" d="
  M 473.91 425.23
  Q 473.95 425.35 473.99 425.48"
/>
<path stroke="#45322b" vector-effect="non-scaling-stroke" d="
  M 473.99 425.48
  L 440.16 429.53"
/>
<path stroke="#161519" vector-effect="non-scaling-stroke" d="
  M 475.24 556.67
  L 474.99 614.90"
/>
<path stroke="#161519" vector-effect="non-scaling-stroke" d="
  M 474.99 614.90
  L 266.04 588.95"
/>
<path stroke="#98694f" vector-effect="non-scaling-stroke" d="
  M 606.95 486.30
  Q 607.04 519.01 607.00 551.75
  Q 607.00 553.29 607.98 553.42"
/>
<path stroke="#5c476f" vector-effect="non-scaling-stroke" d="
  M 607.98 553.42
  L 571.04 554.27"
/>
<path stroke="#947776" vector-effect="non-scaling-stroke" d="
  M 571.04 554.27
  L 525.00 555.43"
/>
<path stroke="#543b33" vector-effect="non-scaling-stroke" d="
  M 525.00 555.43
  L 475.24 556.67"
/>
<path stroke="#50372f" vector-effect="non-scaling-stroke" d="
  M 475.24 556.67
  L 436.76 557.50"
/>
<path stroke="#5c4339" vector-effect="non-scaling-stroke" d="
  M 481.45 483.17
  L 473.98 482.84"
/>
<path stroke="#242424" vector-effect="non-scaling-stroke" d="
  M 473.98 482.84
  L 473.99 425.48"
/>
<path stroke="#5e4739" vector-effect="non-scaling-stroke" d="
  M 574.45 372.70
  L 573.85 382.01
  Q 573.78 383.19 574.96 383.09
  L 613.05 379.99
  Q 614.00 379.91 613.96 380.86
  L 611.45 434.74"
/>
<path stroke="#272628" vector-effect="non-scaling-stroke" d="
  M 611.45 434.74
  Q 611.43 437.07 608.26 437.53
  Q 590.31 440.14 572.36 442.69
  Q 572.04 442.73 571.74 442.61
  Q 571.60 442.55 571.39 442.49"
/>
<path stroke="#5f596a" vector-effect="non-scaling-stroke" d="
  M 571.39 442.49
  L 573.94 383.81
  Q 573.96 383.34 573.50 383.38
  L 530.78 387.15
  Q 530.27 387.20 530.26 387.70
  L 528.31 449.26"
/>
<path stroke="#726c7d" vector-effect="non-scaling-stroke" d="
  M 528.31 449.26
  L 527.16 483.99"
/>
<path stroke="#543b33" vector-effect="non-scaling-stroke" d="
  M 527.16 483.99
  L 481.45 483.17"
/>
<path stroke="#222123" vector-effect="non-scaling-stroke" d="
  M 481.45 483.17
  C 481.01 481.31 482.09 478.91 482.05 476.93
  Q 481.59 451.98 482.92 427.06
  Q 482.94 426.68 482.47 426.06"
/>
<path stroke="#543b33" vector-effect="non-scaling-stroke" d="
  M 482.47 426.06
  L 484.01 363.01"
/>
<path stroke="#b07f5c" vector-effect="non-scaling-stroke" d="
  M 731.11 338.81
  L 731.05 389.12
  A 1.22 1.21 3.2 0 1 729.70 390.32
  C 679.71 384.81 630.03 379.11 580.23 373.89
  C 578.37 373.70 576.45 372.99 574.45 372.70"
/>
<path stroke="#6c5140" vector-effect="non-scaling-stroke" d="
  M 574.45 372.70
  L 576.53 322.83
  A 0.78 0.77 -90.0 0 0 575.73 322.02
  L 571.82 322.12"
/>
<path stroke="#1f1d22" vector-effect="non-scaling-stroke" d="
  M 474.99 614.90
  L 474.99 783.58"
/>
<path stroke="#5f596a" vector-effect="non-scaling-stroke" d="
  M 474.99 783.58
  L 470.93 784.90
  Q 469.97 785.22 470.22 786.20
  L 474.52 802.81"
/>
<path stroke="#645d6f" vector-effect="non-scaling-stroke" d="
  M 794.80 720.02
  L 788.97 719.84"
/>
<path stroke="#121113" vector-effect="non-scaling-stroke" d="
  M 788.97 719.84
  L 791.88 719.63
  A 0.62 0.62 0.0 0 0 792.40 718.76
  L 791.22 716.18
  A 0.77 0.77 0.0 0 0 790.09 715.86
  Q 788.34 717.03 788.17 719.27"
/>
<path stroke="#645d6f" vector-effect="non-scaling-stroke" d="
  M 788.17 719.27
  Q 788.21 719.43 788.24 719.59"
/>
<path stroke="#777081" vector-effect="non-scaling-stroke" d="
  M 788.24 719.59
  L 782.49 670.00
  Q 782.43 669.47 781.89 669.44
  L 748.59 667.19"
/>
<path stroke="#645d6f" vector-effect="non-scaling-stroke" d="
  M 748.59 667.19
  L 713.80 664.97
  A 0.88 0.88 0.0 0 0 712.86 665.93
  L 716.00 703.62"
/>
<path stroke="#777081" vector-effect="non-scaling-stroke" d="
  M 716.00 703.62
  L 693.93 706.92"
/>
<path stroke="#5e3e5c" vector-effect="non-scaling-stroke" d="
  M 693.93 706.92
  L 693.96 655.12
  Q 693.96 653.65 692.50 653.81
  L 615.32 662.32
  A 0.30 0.30 0.0 0 0 615.05 662.62
  L 615.09 719.01"
/>
<path stroke="#777081" vector-effect="non-scaling-stroke" d="
  M 615.09 719.01
  L 605.00 720.79"
/>
<path stroke="#645d6f" vector-effect="non-scaling-stroke" d="
  M 605.00 720.79
  L 593.66 679.54
  Q 593.52 679.03 593.01 679.18
  L 550.06 692.44"
/>
<path stroke="#777081" vector-effect="non-scaling-stroke" d="
  M 550.06 692.44
  L 504.64 706.23
  A 1.10 1.10 0.0 0 0 503.90 707.57
  L 519.63 767.30"
/>
<path stroke="#645d6f" vector-effect="non-scaling-stroke" d="
  M 519.63 767.30
  Q 520.07 767.58 519.32 767.85
  Q 497.24 775.77 474.99 783.58"
/>
<path stroke="#787779" vector-effect="non-scaling-stroke" d="
  M 524.99 612.18
  L 525.00 671.14
  Q 525.00 672.27 526.12 672.15
  L 571.03 667.16"
/>
<path stroke="#293765" vector-effect="non-scaling-stroke" d="
  M 571.03 667.16
  L 613.78 662.54
  Q 614.99 662.41 614.99 661.19
  L 614.99 605.81"
/>
<path stroke="#293765" vector-effect="non-scaling-stroke" d="
  M 694.02 599.96
  L 694.03 652.91
  Q 694.03 653.41 694.53 653.36
  L 730.19 649.71"
/>
<path stroke="#787779" vector-effect="non-scaling-stroke" d="
  M 730.19 649.71
  L 763.26 645.99
  A 0.83 0.82 86.9 0 0 763.99 645.17
  L 763.99 595.82"
/>
<path stroke="#737375" vector-effect="non-scaling-stroke" d="
  M 525.00 611.04
  L 524.99 612.18"
/>
<path stroke="#1f1d22" vector-effect="non-scaling-stroke" d="
  M 524.99 612.18
  C 517.05 611.64 510.01 612.68 502.54 612.98
  C 496.36 613.23 489.94 614.25 483.49 614.01
  C 480.53 613.90 478.22 615.36 474.99 614.90"
/>
<path stroke="#7f7988" vector-effect="non-scaling-stroke" d="
  M 738.89 452.80
  L 732.09 478.57
  Q 731.96 479.08 732.29 479.49
  Q 736.88 485.27 743.47 489.87"
/>
<path stroke="#6b5444" vector-effect="non-scaling-stroke" d="
  M 743.47 489.87
  L 606.95 486.30"
/>
<path stroke="#61483e" vector-effect="non-scaling-stroke" d="
  M 606.95 486.30
  L 555.26 484.91"
/>
<path stroke="#7f7988" vector-effect="non-scaling-stroke" d="
  M 555.26 484.91
  L 569.04 474.48
  A 2.01 1.98 -17.4 0 0 569.84 472.97
  L 571.28 442.99"
/>
<path stroke="#98694f" vector-effect="non-scaling-stroke" d="
  M 850.06 493.27
  L 850.04 546.98"
/>
<path stroke="#5e4739" vector-effect="non-scaling-stroke" d="
  M 795.87 548.45
  L 764.04 549.23"
/>
<path stroke="#9e847c" vector-effect="non-scaling-stroke" d="
  M 764.04 549.23
  L 730.02 550.25"
/>
<path stroke="#665475" vector-effect="non-scaling-stroke" d="
  M 730.02 550.25
  L 694.15 551.22"
/>
<path stroke="#5e4739" vector-effect="non-scaling-stroke" d="
  M 694.15 551.22
  L 615.04 553.17"
/>
<path stroke="#665475" vector-effect="non-scaling-stroke" d="
  M 615.04 553.17
  L 607.98 553.42"
/>
<path stroke="#272a5e" vector-effect="non-scaling-stroke" d="
  M 615.01 605.31
  Q 615.00 605.56 614.99 605.81"
/>
<path stroke="#2c409c" vector-effect="non-scaling-stroke" d="
  M 614.99 605.81
  L 571.02 608.26"
/>
<path stroke="#62629c" vector-effect="non-scaling-stroke" d="
  M 571.02 608.26
  L 571.04 554.27"
/>
<path stroke="#ac8e93" vector-effect="non-scaling-stroke" d="
  M 555.26 484.91
  L 527.16 483.99"
/>
<path stroke="#6470a3" vector-effect="non-scaling-stroke" d="
  M 571.02 608.26
  Q 571.01 608.44 571.01 608.62"
/>
<path stroke="#b3afb8" vector-effect="non-scaling-stroke" d="
  M 571.01 608.62
  L 525.00 611.04"
/>
<path stroke="#5a5660" vector-effect="non-scaling-stroke" d="
  M 525.00 611.04
  L 525.00 555.43"
/>
<path stroke="#5e4739" vector-effect="non-scaling-stroke" d="
  M 795.78 360.40
  L 765.86 350.49
  Q 765.41 350.34 765.29 350.80
  L 752.16 401.08
  Q 752.00 401.72 751.36 401.54
  L 714.44 391.02
  A 1.08 1.08 0.0 0 0 713.10 391.79
  L 700.54 440.44"
/>
<path stroke="#6b5444" vector-effect="non-scaling-stroke" d="
  M 700.54 440.44
  L 611.45 434.74"
/>
<path stroke="#6c6675" vector-effect="non-scaling-stroke" d="
  M 571.39 442.49
  Q 571.68 442.30 571.28 442.99"
/>
<path stroke="#b7acca" vector-effect="non-scaling-stroke" d="
  M 571.28 442.99
  L 528.98 448.62
  Q 528.60 448.67 528.42 449.02
  L 528.31 449.26"
/>
<path stroke="#b7acca" vector-effect="non-scaling-stroke" d="
  M 566.06 751.51
  L 519.63 767.30"
/>
<path stroke="#7d8db8" vector-effect="non-scaling-stroke" d="
  M 571.03 667.16
  L 571.01 608.62"
/>
<path stroke="#b7acca" vector-effect="non-scaling-stroke" d="
  M 748.59 667.19
  L 754.19 718.25
  Q 754.24 718.73 754.72 718.74
  L 788.24 719.59"
/>
<path stroke="#524c5c" vector-effect="non-scaling-stroke" d="
  M 788.17 719.27
  Q 788.16 719.79 788.97 719.84"
/>
<path stroke="#645d6f" vector-effect="non-scaling-stroke" d="
  M 757.28 746.83
  L 754.21 719.94
  Q 754.10 718.93 753.09 718.89
  L 730.01 717.92"
/>
<path stroke="#b7acca" vector-effect="non-scaling-stroke" d="
  M 730.01 717.92
  L 718.46 717.95
  Q 717.92 717.96 717.86 717.42
  C 717.51 714.00 717.62 706.14 716.00 703.62"
/>
<path stroke="#b28db7" vector-effect="non-scaling-stroke" d="
  M 693.93 706.92
  L 615.09 719.01"
/>
<path stroke="#7d8db8" vector-effect="non-scaling-stroke" d="
  M 730.19 649.71
  L 730.06 597.79"
/>
<path stroke="#b7acca" vector-effect="non-scaling-stroke" d="
  M 605.00 720.79
  L 608.83 735.28
  Q 609.00 735.95 608.36 736.18
  Q 590.82 742.47 573.22 748.67
  Q 571.14 749.40 571.01 750.28"
/>
<path stroke="#645d6f" vector-effect="non-scaling-stroke" d="
  M 571.01 750.28
  Q 568.61 749.77 566.06 751.51"
/>
<path stroke="#b7acca" vector-effect="non-scaling-stroke" d="
  M 566.06 751.51
  L 550.06 692.44"
/>
<path stroke="#243360" vector-effect="non-scaling-stroke" d="
  M 694.05 600.01
  Q 694.03 599.98 694.02 599.96"
/>
<path stroke="#1f1d22" vector-effect="non-scaling-stroke" d="
  M 694.02 599.96
  C 687.78 601.34 679.68 601.08 675.35 601.42
  Q 645.20 603.75 615.01 605.31"
/>
<path stroke="#222659" vector-effect="non-scaling-stroke" d="
  M 615.01 605.31
  L 615.04 553.17"
/>
<path stroke="#777081" vector-effect="non-scaling-stroke" d="
  M 730.01 717.92
  L 730.03 752.60"
/>
<path stroke="#b7acca" vector-effect="non-scaling-stroke" d="
  M 574.81 783.35
  L 571.14 770.51"
/>
<path stroke="#777081" vector-effect="non-scaling-stroke" d="
  M 571.14 770.51
  L 571.01 750.28"
/>
<path stroke="#5f5a65" vector-effect="non-scaling-stroke" d="
  M 764.02 595.23
  L 763.99 595.82"
/>
<path stroke="#b3afb8" vector-effect="non-scaling-stroke" d="
  M 763.99 595.82
  L 730.07 597.92"
/>
<path stroke="#62629c" vector-effect="non-scaling-stroke" d="
  M 730.07 597.92
  L 730.02 550.25"
/>
<path stroke="#1f1d22" vector-effect="non-scaling-stroke" d="
  M 795.96 593.96
  C 789.14 593.69 782.37 594.81 775.71 594.90
  Q 770.37 594.97 765.05 595.68
  Q 764.82 596.51 764.02 595.23"
/>
<path stroke="#5a5660" vector-effect="non-scaling-stroke" d="
  M 764.02 595.23
  L 764.04 549.23"
/>
<path stroke="#5e4739" vector-effect="non-scaling-stroke" d="
  M 804.49 491.76
  L 768.13 490.65"
/>
<path stroke="#726c7d" vector-effect="non-scaling-stroke" d="
  M 768.13 490.65
  L 775.61 462.09"
/>
<path stroke="#5f596a" vector-effect="non-scaling-stroke" d="
  M 775.61 462.09
  L 788.61 412.74
  Q 788.72 412.33 788.30 412.21
  L 753.00 402.18
  A 1.04 1.04 0.0 0 0 751.72 402.91
  L 738.73 452.66"
/>
<path stroke="#272628" vector-effect="non-scaling-stroke" d="
  M 738.73 452.66
  Q 720.14 448.03 701.75 443.25
  Q 698.76 442.47 700.54 440.44"
/>
<path stroke="#b7acca" vector-effect="non-scaling-stroke" d="
  M 775.61 462.09
  L 738.89 452.80"
/>
<path stroke="#6c6675" vector-effect="non-scaling-stroke" d="
  M 738.89 452.80
  Q 738.78 453.27 738.73 452.66"
/>
<path stroke="#b69a98" vector-effect="non-scaling-stroke" d="
  M 768.13 490.65
  L 743.47 489.87"
/>
<path stroke="#7b7fb1" vector-effect="non-scaling-stroke" d="
  M 730.07 597.92
  Q 730.07 597.86 730.06 597.79"
/>
<path stroke="#2c409c" vector-effect="non-scaling-stroke" d="
  M 730.06 597.79
  L 694.05 600.01"
/>
<path stroke="#222659" vector-effect="non-scaling-stroke" d="
  M 694.05 600.01
  L 694.15 551.22"
/>
<path stroke="#645d6f" vector-effect="non-scaling-stroke" d="
  M 571.14 770.51
  L 566.06 751.51"
/>
<path stroke="#36281f" vector-effect="non-scaling-stroke" d="
  M 212.58 415.42
  L 198.14 367.59
  A 0.20 0.20 0.0 0 0 197.89 367.46
  L 171.20 375.52
  A 4.82 0.94 -16.8 0 0 166.86 377.81
  L 180.87 424.22
  A 4.82 0.94 -16.8 0 0 185.75 423.73
  L 212.44 415.67
  A 0.20 0.20 0.0 0 0 212.58 415.42"
/>
</g>
<path fill="#000000" fill-opacity="0.004" d="
  M 0.00 0.00
  L 1062.00 0.00
  L 1062.00 1062.00
  L 0.00 1062.00
  L 0.00 0.00
  Z
  M 128.41 444.89
  Q 101.26 454.26 91.73 480.46
  C 88.06 490.56 88.91 500.37 88.96 510.87
  Q 89.04 525.82 89.00 540.77
  C 88.91 571.68 112.61 596.62 143.50 597.98
  Q 177.04 599.45 210.27 601.18
  Q 211.01 601.22 211.01 601.96
  Q 210.98 662.29 211.02 722.80
  Q 211.03 732.56 212.37 737.95
  C 216.29 753.65 227.23 767.09 241.31 774.75
  Q 245.13 776.83 259.80 782.30
  Q 343.30 813.43 426.88 844.55
  A 3.10 3.10 0.0 0 1 428.83 846.80
  C 432.32 862.73 435.40 876.55 447.17 888.09
  C 462.91 903.53 487.83 909.10 508.94 900.45
  Q 551.94 882.82 594.95 865.27
  Q 607.73 860.05 612.88 856.52
  Q 627.68 846.39 634.27 828.78
  Q 634.43 828.37 634.86 828.28
  L 721.64 810.95
  A 1.04 1.03 -28.4 0 1 722.57 811.22
  Q 733.17 821.32 746.86 824.59
  Q 753.03 826.06 766.76 826.00
  C 785.67 825.93 803.82 825.34 823.43 825.02
  Q 835.07 824.83 840.32 823.55
  C 864.02 817.79 880.69 796.34 882.06 772.80
  Q 882.42 766.63 880.75 752.88
  Q 878.59 735.02 876.13 717.17
  C 873.64 699.12 866.56 685.56 851.32 674.85
  A 0.77 0.74 18.6 0 1 851.00 674.24
  L 851.00 602.50
  A 0.41 0.41 0.0 0 1 851.40 602.09
  Q 891.48 601.24 927.69 600.19
  C 935.41 599.96 944.10 600.47 950.96 599.08
  C 973.47 594.52 990.93 575.74 994.45 553.47
  Q 995.27 548.28 995.06 533.50
  Q 994.86 519.88 995.09 506.26
  Q 995.34 491.56 994.37 486.31
  C 989.78 461.47 969.87 444.58 945.68 440.77
  C 937.73 439.52 927.36 440.21 919.82 439.91
  Q 898.31 439.06 876.86 438.95
  Q 876.38 438.95 876.50 438.48
  Q 882.77 414.71 889.27 391.01
  C 897.37 361.46 881.91 331.83 853.18 320.83
  Q 850.41 319.77 841.07 317.05
  Q 840.60 316.91 840.30 316.52
  C 830.27 303.04 816.22 295.67 799.68 293.10
  Q 647.61 269.42 495.56 245.63
  C 480.29 243.24 467.49 242.68 452.65 247.09
  Q 419.25 257.02 385.77 266.93
  Q 385.24 267.09 385.10 266.56
  C 382.25 255.60 379.65 244.60 373.23 235.04
  Q 356.94 210.82 326.97 209.71
  Q 326.46 209.69 326.24 209.22
  C 321.39 198.98 318.19 191.49 309.29 183.85
  Q 308.89 183.51 309.03 183.01
  C 313.56 166.92 310.60 156.27 305.62 138.54
  Q 301.83 125.08 297.97 111.61
  Q 293.40 95.66 292.09 92.49
  C 281.18 66.20 253.10 51.39 225.27 58.37
  Q 218.76 60.00 206.85 66.00
  Q 188.82 75.10 170.65 84.81
  A 1.34 1.32 -34.2 0 1 169.01 84.51
  Q 165.71 80.63 161.92 76.34
  C 148.01 60.57 126.66 54.48 106.42 59.26
  C 99.30 60.94 92.65 64.47 86.00 68.23
  Q 71.56 76.41 65.17 80.11
  C 39.94 94.70 30.12 122.43 38.50 149.99
  Q 46.55 176.50 54.80 202.91
  Q 54.95 203.39 54.59 203.73
  Q 35.23 222.31 36.90 248.26
  Q 37.30 254.48 40.30 264.50
  Q 46.02 283.56 52.10 302.50
  Q 56.17 315.17 59.62 320.97
  Q 72.28 342.24 98.60 347.76
  Q 99.73 348.00 100.15 349.07
  Q 104.24 359.34 112.34 366.89
  Q 112.73 367.25 112.64 367.77
  Q 110.15 382.72 114.15 396.07
  Q 121.36 420.16 128.89 443.93
  A 0.77 0.76 71.8 0 1 128.41 444.89
  Z"
/>
<path fill="#ffffff" d="
  M 128.41 444.89
  A 0.77 0.76 71.8 0 0 128.89 443.93
  Q 121.36 420.16 114.15 396.07
  Q 110.15 382.72 112.64 367.77
  Q 112.73 367.25 112.34 366.89
  Q 104.24 359.34 100.15 349.07
  Q 99.73 348.00 98.60 347.76
  Q 72.28 342.24 59.62 320.97
  Q 56.17 315.17 52.10 302.50
  Q 46.02 283.56 40.30 264.50
  Q 37.30 254.48 36.90 248.26
  Q 35.23 222.31 54.59 203.73
  Q 54.95 203.39 54.80 202.91
  Q 46.55 176.50 38.50 149.99
  C 30.12 122.43 39.94 94.70 65.17 80.11
  Q 71.56 76.41 86.00 68.23
  C 92.65 64.47 99.30 60.94 106.42 59.26
  C 126.66 54.48 148.01 60.57 161.92 76.34
  Q 165.71 80.63 169.01 84.51
  A 1.34 1.32 -34.2 0 0 170.65 84.81
  Q 188.82 75.10 206.85 66.00
  Q 218.76 60.00 225.27 58.37
  C 253.10 51.39 281.18 66.20 292.09 92.49
  Q 293.40 95.66 297.97 111.61
  Q 301.83 125.08 305.62 138.54
  C 310.60 156.27 313.56 166.92 309.03 183.01
  Q 308.89 183.51 309.29 183.85
  C 318.19 191.49 321.39 198.98 326.24 209.22
  Q 326.46 209.69 326.97 209.71
  Q 356.94 210.82 373.23 235.04
  C 379.65 244.60 382.25 255.60 385.10 266.56
  Q 385.24 267.09 385.77 266.93
  Q 419.25 257.02 452.65 247.09
  C 467.49 242.68 480.29 243.24 495.56 245.63
  Q 647.61 269.42 799.68 293.10
  C 816.22 295.67 830.27 303.04 840.30 316.52
  Q 840.60 316.91 841.07 317.05
  Q 850.41 319.77 853.18 320.83
  C 881.91 331.83 897.37 361.46 889.27 391.01
  Q 882.77 414.71 876.50 438.48
  Q 876.38 438.95 876.86 438.95
  Q 898.31 439.06 919.82 439.91
  C 927.36 440.21 937.73 439.52 945.68 440.77
  C 969.87 444.58 989.78 461.47 994.37 486.31
  Q 995.34 491.56 995.09 506.26
  Q 994.86 519.88 995.06 533.50
  Q 995.27 548.28 994.45 553.47
  C 990.93 575.74 973.47 594.52 950.96 599.08
  C 944.10 600.47 935.41 599.96 927.69 600.19
  Q 891.48 601.24 851.40 602.09
  A 0.41 0.41 0.0 0 0 851.00 602.50
  L 851.00 674.24
  A 0.77 0.74 18.6 0 0 851.32 674.85
  C 866.56 685.56 873.64 699.12 876.13 717.17
  Q 878.59 735.02 880.75 752.88
  Q 882.42 766.63 882.06 772.80
  C 880.69 796.34 864.02 817.79 840.32 823.55
  Q 835.07 824.83 823.43 825.02
  C 803.82 825.34 785.67 825.93 766.76 826.00
  Q 753.03 826.06 746.86 824.59
  Q 733.17 821.32 722.57 811.22
  A 1.04 1.03 -28.4 0 0 721.64 810.95
  L 634.86 828.28
  Q 634.43 828.37 634.27 828.78
  Q 627.68 846.39 612.88 856.52
  Q 607.73 860.05 594.95 865.27
  Q 551.94 882.82 508.94 900.45
  C 487.83 909.10 462.91 903.53 447.17 888.09
  C 435.40 876.55 432.32 862.73 428.83 846.80
  A 3.10 3.10 0.0 0 0 426.88 844.55
  Q 343.30 813.43 259.80 782.30
  Q 245.13 776.83 241.31 774.75
  C 227.23 767.09 216.29 753.65 212.37 737.95
  Q 211.03 732.56 211.02 722.80
  Q 210.98 662.29 211.01 601.96
  Q 211.01 601.22 210.27 601.18
  Q 177.04 599.45 143.50 597.98
  C 112.61 596.62 88.91 571.68 89.00 540.77
  Q 89.04 525.82 88.96 510.87
  C 88.91 500.37 88.06 490.56 91.73 480.46
  Q 101.26 454.26 128.41 444.89
  Z
  M 156.26 457.03
  Q 141.59 457.62 137.51 458.49
  Q 115.32 463.25 107.06 483.04
  C 102.65 493.62 104.12 504.25 104.00 515.30
  C 103.87 527.24 102.66 542.38 105.50 552.56
  C 110.76 571.37 127.81 582.18 146.75 582.99
  Q 185.89 584.66 225.00 586.97
  A 1.06 1.06 0.0 0 1 226.00 588.03
  Q 226.01 654.09 226.00 720.58
  Q 225.99 729.65 227.33 734.68
  C 232.28 753.33 245.07 760.57 262.26 766.98
  Q 351.41 800.22 440.60 833.46
  Q 441.10 833.65 441.23 834.16
  C 443.96 844.85 446.33 858.91 450.50 867.31
  C 458.24 882.91 476.47 891.21 493.29 888.81
  Q 499.21 887.97 510.70 883.28
  Q 549.49 867.46 588.26 851.59
  Q 601.58 846.14 606.13 842.74
  Q 618.90 833.21 621.62 816.07
  A 1.10 1.09 88.9 0 1 622.48 815.17
  L 727.30 794.30
  Q 727.79 794.21 728.05 794.62
  C 734.93 805.43 748.95 811.12 761.25 811.05
  Q 791.65 810.88 822.03 810.01
  Q 833.75 809.67 838.81 808.13
  C 852.94 803.84 863.54 791.74 866.26 777.24
  C 867.31 771.67 866.93 764.95 866.20 759.21
  Q 863.60 738.73 860.99 718.24
  Q 857.95 694.36 836.52 683.62
  Q 836.00 683.36 836.00 682.77
  L 836.00 587.50
  A 0.39 0.39 0.0 0 1 836.39 587.11
  Q 881.82 586.54 927.31 585.10
  C 933.97 584.89 941.43 585.56 947.48 584.17
  C 968.47 579.35 980.23 563.41 980.04 541.90
  Q 979.90 524.85 980.04 507.83
  Q 980.16 493.36 979.01 487.91
  C 974.09 464.58 954.45 455.44 932.25 455.08
  Q 895.91 454.48 858.57 453.16
  Q 856.83 453.10 857.28 451.42
  Q 865.93 418.75 874.80 385.20
  C 879.64 366.88 871.17 348.60 855.96 339.10
  C 849.22 334.90 839.82 332.31 831.60 329.85
  Q 831.12 329.70 830.85 329.27
  Q 819.75 311.72 799.43 308.55
  Q 648.91 285.06 498.39 261.54
  Q 482.76 259.09 478.57 258.99
  Q 467.18 258.72 455.07 262.31
  Q 415.40 274.06 375.37 285.74
  A 0.58 0.57 73.9 0 1 374.66 285.34
  Q 370.79 271.55 366.85 257.58
  C 360.42 234.74 341.20 221.51 316.96 225.58
  Q 314.35 226.02 313.89 223.06
  C 311.59 208.29 303.44 195.81 290.63 188.73
  Q 290.19 188.49 290.44 188.05
  C 297.70 175.26 297.01 164.76 292.96 150.09
  Q 287.10 128.88 280.95 107.75
  Q 277.73 96.68 274.75 91.77
  C 265.87 77.14 247.81 69.22 230.87 72.64
  Q 225.22 73.78 214.60 79.14
  Q 188.15 92.50 161.96 106.41
  Q 161.53 106.64 161.41 106.16
  C 154.99 80.68 128.81 65.91 104.02 76.04
  Q 101.58 77.03 87.03 85.17
  C 69.75 94.83 54.97 101.79 51.56 123.60
  Q 49.80 134.88 53.56 147.20
  Q 62.76 177.35 72.03 207.49
  Q 72.60 209.31 71.16 210.07
  C 58.36 216.82 51.73 232.38 52.09 245.88
  Q 52.22 251.05 54.54 258.91
  Q 60.85 280.31 67.75 301.54
  C 74.27 321.63 87.83 333.20 110.07 333.12
  A 1.02 1.02 0.0 0 1 111.07 333.93
  Q 114.81 351.58 129.43 361.94
  Q 129.88 362.26 129.70 362.78
  Q 124.98 376.22 127.96 388.51
  Q 130.92 400.72 142.61 436.84
  Q 145.55 445.92 153.35 453.99
  C 154.18 454.85 155.58 455.50 156.51 456.39
  Q 157.13 457.00 156.26 457.03
  Z"
/>
<path fill="#000000" d="
  M 156.51 456.39
  C 155.58 455.50 154.18 454.85 153.35 453.99
  Q 145.55 445.92 142.61 436.84
  Q 130.92 400.72 127.96 388.51
  Q 124.98 376.22 129.70 362.78
  Q 129.88 362.26 129.43 361.94
  Q 114.81 351.58 111.07 333.93
  A 1.02 1.02 0.0 0 0 110.07 333.12
  C 87.83 333.20 74.27 321.63 67.75 301.54
  Q 60.85 280.31 54.54 258.91
  Q 52.22 251.05 52.09 245.88
  C 51.73 232.38 58.36 216.82 71.16 210.07
  Q 72.60 209.31 72.03 207.49
  Q 62.76 177.35 53.56 147.20
  Q 49.80 134.88 51.56 123.60
  C 54.97 101.79 69.75 94.83 87.03 85.17
  Q 101.58 77.03 104.02 76.04
  C 128.81 65.91 154.99 80.68 161.41 106.16
  Q 161.53 106.64 161.96 106.41
  Q 188.15 92.50 214.60 79.14
  Q 225.22 73.78 230.87 72.64
  C 247.81 69.22 265.87 77.14 274.75 91.77
  Q 277.73 96.68 280.95 107.75
  Q 287.10 128.88 292.96 150.09
  C 297.01 164.76 297.70 175.26 290.44 188.05
  Q 290.19 188.49 290.63 188.73
  C 303.44 195.81 311.59 208.29 313.89 223.06
  Q 314.35 226.02 316.96 225.58
  C 341.20 221.51 360.42 234.74 366.85 257.58
  Q 370.79 271.55 374.66 285.34
  A 0.58 0.57 73.9 0 0 375.37 285.74
  Q 415.40 274.06 455.07 262.31
  Q 467.18 258.72 478.57 258.99
  Q 482.76 259.09 498.39 261.54
  Q 648.91 285.06 799.43 308.55
  Q 819.75 311.72 830.85 329.27
  Q 831.12 329.70 831.60 329.85
  C 839.82 332.31 849.22 334.90 855.96 339.10
  C 871.17 348.60 879.64 366.88 874.80 385.20
  Q 865.93 418.75 857.28 451.42
  Q 856.83 453.10 858.57 453.16
  Q 895.91 454.48 932.25 455.08
  C 954.45 455.44 974.09 464.58 979.01 487.91
  Q 980.16 493.36 980.04 507.83
  Q 979.90 524.85 980.04 541.90
  C 980.23 563.41 968.47 579.35 947.48 584.17
  C 941.43 585.56 933.97 584.89 927.31 585.10
  Q 881.82 586.54 836.39 587.11
  A 0.39 0.39 0.0 0 0 836.00 587.50
  L 836.00 682.77
  Q 836.00 683.36 836.52 683.62
  Q 857.95 694.36 860.99 718.24
  Q 863.60 738.73 866.20 759.21
  C 866.93 764.95 867.31 771.67 866.26 777.24
  C 863.54 791.74 852.94 803.84 838.81 808.13
  Q 833.75 809.67 822.03 810.01
  Q 791.65 810.88 761.25 811.05
  C 748.95 811.12 734.93 805.43 728.05 794.62
  Q 727.79 794.21 727.30 794.30
  L 622.48 815.17
  A 1.10 1.09 88.9 0 0 621.62 816.07
  Q 618.90 833.21 606.13 842.74
  Q 601.58 846.14 588.26 851.59
  Q 549.49 867.46 510.70 883.28
  Q 499.21 887.97 493.29 888.81
  C 476.47 891.21 458.24 882.91 450.50 867.31
  C 446.33 858.91 443.96 844.85 441.23 834.16
  Q 441.10 833.65 440.60 833.46
  Q 351.41 800.22 262.26 766.98
  C 245.07 760.57 232.28 753.33 227.33 734.68
  Q 225.99 729.65 226.00 720.58
  Q 226.01 654.09 226.00 588.03
  A 1.06 1.06 0.0 0 0 225.00 586.97
  Q 185.89 584.66 146.75 582.99
  C 127.81 582.18 110.76 571.37 105.50 552.56
  C 102.66 542.38 103.87 527.24 104.00 515.30
  C 104.12 504.25 102.65 493.62 107.06 483.04
  Q 115.32 463.25 137.51 458.49
  Q 141.59 457.62 156.26 457.03
  Q 157.13 457.00 156.51 456.39
  Z
  M 169.26 147.98
  L 137.08 164.43
  Q 137.03 164.24 136.66 164.20
  L 121.32 113.50
  A 0.88 0.88 0.0 0 0 120.04 112.99
  L 91.71 129.17
  Q 90.54 129.84 90.94 131.13
  L 106.08 180.37
  Q 113.53 204.94 121.17 229.77
  Q 121.27 230.11 121.05 230.87
  L 92.94 244.27
  A 0.82 0.81 68.9 0 0 92.51 245.25
  L 107.18 292.23
  Q 107.33 292.73 107.82 292.52
  L 135.71 280.81
  A 1.03 1.02 -19.8 0 1 137.08 281.45
  L 151.48 327.97
  Q 151.86 329.22 153.08 328.75
  Q 166.86 323.54 181.56 318.30
  Q 181.98 318.15 183.16 318.27
  L 197.58 365.83
  A 1.29 1.29 0.0 0 0 199.20 366.68
  L 230.25 356.79
  A 0.91 0.90 73.2 0 1 231.38 357.40
  L 245.55 405.17
  A 1.52 1.52 0.0 0 0 247.41 406.19
  L 266.21 400.99
  L 266.02 405.68
  L 266.05 451.04
  L 266.10 491.40
  L 191.92 495.46
  L 144.68 498.04
  A 0.72 0.72 0.0 0 0 144.00 498.76
  L 144.00 541.25
  A 1.07 1.06 -88.6 0 0 145.01 542.32
  L 191.92 544.78
  L 266.32 548.64
  L 266.04 588.95
  L 266.01 724.07
  Q 266.01 725.10 266.98 725.47
  L 474.52 802.81
  L 486.36 848.62
  A 0.71 0.71 0.0 0 0 487.32 849.10
  L 581.64 810.57
  A 0.47 0.47 0.0 0 0 581.91 810.02
  L 574.81 783.35
  L 730.03 752.60
  L 757.28 746.83
  L 759.91 770.67
  Q 759.97 771.21 760.51 771.20
  L 825.71 769.96
  Q 826.79 769.94 826.65 768.86
  L 820.44 720.50
  Q 820.38 720.04 819.91 720.04
  L 794.80 720.02
  C 795.54 677.97 796.11 636.04 795.96 593.96
  L 795.87 548.45
  L 850.04 546.98
  L 939.40 544.86
  Q 940.00 544.85 940.00 544.24
  L 940.00 497.02
  A 1.41 1.41 0.0 0 0 938.63 495.61
  L 850.06 493.27
  L 804.49 491.76
  L 835.91 374.93
  A 1.17 1.16 16.9 0 0 835.15 373.52
  L 795.78 360.40
  L 795.94 349.53
  Q 795.95 349.01 795.44 348.93
  L 731.11 338.81
  L 572.52 314.12
  L 473.96 298.83
  L 408.87 318.06
  L 307.51 347.74
  L 303.28 333.17
  Q 303.21 333.10 303.15 333.04
  L 341.99 320.60
  A 0.54 0.54 0.0 0 0 342.34 319.94
  L 327.20 265.70
  A 1.09 1.09 0.0 0 0 325.78 264.97
  Q 307.11 271.84 288.51 278.79
  Q 288.11 278.94 287.54 278.51
  L 272.46 224.91
  Q 272.19 223.97 271.28 224.34
  L 235.60 239.15
  Q 235.52 238.96 235.43 238.82
  Q 235.11 238.32 235.08 238.21
  L 219.72 185.50
  C 219.92 185.18 220.21 184.83 220.57 184.66
  Q 237.96 176.64 255.14 168.52
  A 1.32 1.32 0.0 0 0 255.85 166.96
  L 240.36 112.72
  A 1.09 1.09 0.0 0 0 238.81 112.04
  L 169.26 147.98
  Z
  M 212.58 415.42
  L 198.14 367.59
  A 0.20 0.20 0.0 0 0 197.89 367.46
  L 171.20 375.52
  A 4.82 0.94 -16.8 0 0 166.86 377.81
  L 180.87 424.22
  A 4.82 0.94 -16.8 0 0 185.75 423.73
  L 212.44 415.67
  A 0.20 0.20 0.0 0 0 212.58 415.42
  Z"
/>
<path fill="#6b4f3d" d="
  M 219.72 185.50
  Q 218.83 185.44 218.56 185.56
  Q 202.09 193.25 185.15 201.21
  L 169.26 147.98
  L 238.81 112.04
  A 1.09 1.09 0.0 0 1 240.36 112.72
  L 255.85 166.96
  A 1.32 1.32 0.0 0 1 255.14 168.52
  Q 237.96 176.64 220.57 184.66
  C 220.21 184.83 219.92 185.18 219.72 185.50
  Z"
/>
<path fill="#6b4f3d" d="
  M 136.66 164.20
  Q 136.23 164.79 135.97 164.93
  Q 121.28 173.07 106.08 180.37
  L 90.94 131.13
  Q 90.54 129.84 91.71 129.17
  L 120.04 112.99
  A 0.88 0.88 0.0 0 1 121.32 113.50
  L 136.66 164.20
  Z"
/>
<path fill="#78624d" d="
  M 169.26 147.98
  L 185.15 201.21
  Q 184.62 201.94 184.63 201.49
  Q 169.25 208.56 153.94 215.94
  Q 153.58 216.11 152.45 215.96
  L 136.85 164.79
  Q 136.80 164.64 136.87 164.50
  Q 137.01 164.19 137.08 164.43
  L 169.26 147.98
  Z"
/>
<path fill="#5c3d2f" d="
  M 136.66 164.20
  Q 137.03 164.24 137.08 164.43
  Q 137.01 164.19 136.87 164.50
  Q 136.80 164.64 136.85 164.79
  L 152.45 215.96
  L 152.12 216.56
  L 121.72 230.86
  Q 120.79 230.53 121.05 230.87
  Q 121.27 230.11 121.17 229.77
  Q 113.53 204.94 106.08 180.37
  Q 121.28 173.07 135.97 164.93
  Q 136.23 164.79 136.66 164.20
  Z"
/>
<path fill="#5c3d2f" d="
  M 219.72 185.50
  L 235.08 238.21
  Q 235.11 238.32 235.43 238.82
  Q 235.52 238.96 235.60 239.15
  Q 234.92 239.69 235.13 239.31
  L 200.69 253.69
  Q 199.93 253.70 200.32 253.89
  Q 200.32 253.64 200.35 253.48
  A 1.34 1.30 44.0 0 0 200.33 252.88
  Q 193.28 228.94 186.21 205.01
  Q 185.48 202.54 184.63 201.49
  Q 184.62 201.94 185.15 201.21
  Q 202.09 193.25 218.56 185.56
  Q 218.83 185.44 219.72 185.50
  Z"
/>
<path fill="#3d1f1c" d="
  M 184.63 201.49
  Q 185.48 202.54 186.21 205.01
  Q 193.28 228.94 200.33 252.88
  A 1.34 1.30 44.0 0 1 200.35 253.48
  Q 200.32 253.64 200.32 253.89
  Q 184.54 260.68 168.56 267.06
  Q 168.46 267.34 168.03 267.00
  L 152.12 216.56
  L 152.45 215.96
  Q 153.58 216.11 153.94 215.94
  Q 169.25 208.56 184.63 201.49
  Z"
/>
<path fill="#78624d" d="
  M 152.12 216.56
  L 168.03 267.00
  Q 168.01 267.13 167.99 267.29
  A 0.37 0.36 -7.5 0 1 167.77 267.57
  L 138.39 279.59
  A 1.52 1.51 70.2 0 1 136.36 278.63
  L 121.72 230.86
  L 152.12 216.56
  Z"
/>
<path fill="#78624d" d="
  M 287.54 278.51
  Q 287.70 278.81 286.77 279.23
  L 250.89 292.57
  Q 243.27 267.06 236.30 241.99
  Q 235.96 240.79 235.13 239.31
  Q 234.92 239.69 235.60 239.15
  L 271.28 224.34
  Q 272.19 223.97 272.46 224.91
  L 287.54 278.51
  Z"
/>
<path fill="#6b4f3d" d="
  M 121.05 230.87
  Q 120.79 230.53 121.72 230.86
  L 136.36 278.63
  A 1.52 1.51 70.2 0 0 138.39 279.59
  L 167.77 267.57
  A 0.37 0.36 -7.5 0 0 167.99 267.29
  Q 168.01 267.13 168.03 267.00
  Q 168.46 267.34 168.56 267.06
  Q 184.54 260.68 200.32 253.89
  Q 199.93 253.70 200.69 253.69
  L 215.94 305.49
  L 183.56 317.57
  Q 183.29 317.67 183.28 317.95
  Q 183.27 318.16 183.16 318.27
  Q 181.98 318.15 181.56 318.30
  Q 166.86 323.54 153.08 328.75
  Q 151.86 329.22 151.48 327.97
  L 137.08 281.45
  A 1.03 1.02 -19.8 0 0 135.71 280.81
  L 107.82 292.52
  Q 107.33 292.73 107.18 292.23
  L 92.51 245.25
  A 0.82 0.81 68.9 0 1 92.94 244.27
  L 121.05 230.87
  Z"
/>
<path fill="#3d1f1c" d="
  M 235.13 239.31
  Q 235.96 240.79 236.30 241.99
  Q 243.27 267.06 250.89 292.57
  L 266.17 345.21
  L 232.98 355.70
  Q 231.08 356.31 230.51 354.39
  L 215.94 305.49
  L 200.69 253.69
  L 235.13 239.31
  Z"
/>
<path fill="#6b4f3d" d="
  M 303.15 333.04
  Q 292.61 295.73 288.00 280.25
  Q 287.66 279.11 286.77 279.23
  Q 287.70 278.81 287.54 278.51
  Q 288.11 278.94 288.51 278.79
  Q 307.11 271.84 325.78 264.97
  A 1.09 1.09 0.0 0 1 327.20 265.70
  L 342.34 319.94
  A 0.54 0.54 0.0 0 1 341.99 320.60
  L 303.15 333.04
  Z"
/>
<path fill="#5c3d2f" d="
  M 286.77 279.23
  Q 287.66 279.11 288.00 280.25
  Q 292.61 295.73 303.15 333.04
  Q 303.21 333.10 303.28 333.17
  L 266.21 345.08
  Q 266.19 345.15 266.17 345.21
  L 250.89 292.57
  L 286.77 279.23
  Z"
/>
<path fill="#79583f" d="
  M 473.96 298.83
  L 474.01 362.13
  L 440.71 368.99
  A 0.81 0.81 0.0 0 0 440.06 369.78
  L 440.16 429.53
  Q 439.70 429.39 439.50 429.63
  L 334.73 443.04
  L 320.78 394.55
  L 408.40 375.87
  Q 408.92 375.76 408.92 375.23
  L 408.87 318.06
  L 473.96 298.83
  Z"
/>
<path fill="#a27554" d="
  M 473.96 298.83
  L 572.52 314.12
  Q 571.93 314.80 572.00 315.75
  Q 572.18 318.28 571.82 322.12
  L 486.72 324.85
  A 1.76 1.76 0.0 0 0 485.02 326.56
  L 484.01 363.01
  L 474.01 362.13
  L 473.96 298.83
  Z"
/>
<path fill="#78624d" d="
  M 215.94 305.49
  L 230.51 354.39
  Q 231.08 356.31 232.98 355.70
  L 266.17 345.21
  Q 266.19 345.15 266.21 345.08
  L 281.05 396.59
  L 266.21 400.99
  L 247.41 406.19
  A 1.52 1.52 0.0 0 1 245.55 405.17
  L 231.38 357.40
  A 0.91 0.90 73.2 0 0 230.25 356.79
  L 199.20 366.68
  A 1.29 1.29 0.0 0 1 197.58 365.83
  L 183.16 318.27
  Q 183.27 318.16 183.28 317.95
  Q 183.29 317.67 183.56 317.57
  L 215.94 305.49
  Z"
/>
<path fill="#be8963" d="
  M 572.52 314.12
  L 731.11 338.81
  L 731.05 389.12
  A 1.22 1.21 3.2 0 1 729.70 390.32
  C 679.71 384.81 630.03 379.11 580.23 373.89
  C 578.37 373.70 576.45 372.99 574.45 372.70
  L 576.53 322.83
  A 0.78 0.77 -90.0 0 0 575.73 322.02
  L 571.82 322.12
  Q 572.18 318.28 572.00 315.75
  Q 571.93 314.80 572.52 314.12
  Z"
/>
<path fill="#8e674a" d="
  M 408.87 318.06
  L 408.92 375.23
  Q 408.92 375.76 408.40 375.87
  L 320.78 394.55
  L 307.51 347.74
  L 408.87 318.06
  Z"
/>
<path fill="#1a191d" d="
  M 571.82 322.12
  L 575.73 322.02
  A 0.78 0.77 -90.0 0 1 576.53 322.83
  L 574.45 372.70
  L 573.85 382.01
  Q 573.78 383.19 574.96 383.09
  L 613.05 379.99
  Q 614.00 379.91 613.96 380.86
  L 611.45 434.74
  Q 611.43 437.07 608.26 437.53
  Q 590.31 440.14 572.36 442.69
  Q 572.04 442.73 571.74 442.61
  Q 571.60 442.55 571.39 442.49
  L 573.94 383.81
  Q 573.96 383.34 573.50 383.38
  L 530.78 387.15
  Q 530.27 387.20 530.26 387.70
  L 528.31 449.26
  L 527.16 483.99
  L 481.45 483.17
  C 481.01 481.31 482.09 478.91 482.05 476.93
  Q 481.59 451.98 482.92 427.06
  Q 482.94 426.68 482.47 426.06
  L 484.01 363.01
  L 485.02 326.56
  A 1.76 1.76 0.0 0 1 486.72 324.85
  L 571.82 322.12
  Z"
/>
<path fill="#3d1f1c" d="
  M 303.28 333.17
  L 307.51 347.74
  L 320.78 394.55
  L 334.73 443.04
  L 346.77 486.76
  L 330.97 487.61
  L 307.81 488.81
  L 295.88 447.92
  L 285.60 413.13
  L 282.73 402.15
  L 281.05 396.59
  L 266.21 345.08
  L 303.28 333.17
  Z"
/>
<path fill="#a27554" d="
  M 731.11 338.81
  L 795.44 348.93
  Q 795.95 349.01 795.94 349.53
  L 795.78 360.40
  L 765.86 350.49
  Q 765.41 350.34 765.29 350.80
  L 752.16 401.08
  Q 752.00 401.72 751.36 401.54
  L 714.44 391.02
  A 1.08 1.08 0.0 0 0 713.10 391.79
  L 700.54 440.44
  L 611.45 434.74
  L 613.96 380.86
  Q 614.00 379.91 613.05 379.99
  L 574.96 383.09
  Q 573.78 383.19 573.85 382.01
  L 574.45 372.70
  C 576.45 372.99 578.37 373.70 580.23 373.89
  C 630.03 379.11 679.71 384.81 729.70 390.32
  A 1.22 1.21 3.2 0 0 731.05 389.12
  L 731.11 338.81
  Z"
/>
<path fill="#1a191d" d="
  M 795.78 360.40
  L 835.15 373.52
  A 1.17 1.16 16.9 0 1 835.91 374.93
  L 804.49 491.76
  L 768.13 490.65
  L 775.61 462.09
  L 788.61 412.74
  Q 788.72 412.33 788.30 412.21
  L 753.00 402.18
  A 1.04 1.04 0.0 0 0 751.72 402.91
  L 738.73 452.66
  Q 720.14 448.03 701.75 443.25
  Q 698.76 442.47 700.54 440.44
  L 713.10 391.79
  A 1.08 1.08 0.0 0 1 714.44 391.02
  L 751.36 401.54
  Q 752.00 401.72 752.16 401.08
  L 765.29 350.80
  Q 765.41 350.34 765.86 350.49
  L 795.78 360.40
  Z"
/>
<path fill="#8e5c49" d="
  M 484.01 363.01
  L 482.47 426.06
  L 473.91 425.23
  L 474.01 362.13
  L 484.01 363.01
  Z"
/>
<path fill="#6a4537" d="
  M 474.01 362.13
  L 473.91 425.23
  Q 473.95 425.35 473.99 425.48
  L 440.16 429.53
  L 440.06 369.78
  A 0.81 0.81 0.0 0 1 440.71 368.99
  L 474.01 362.13
  Z"
/>
<path fill="#6b4f3d" d="
  M 212.58 415.42
  A 0.20 0.20 0.0 0 1 212.44 415.67
  L 185.75 423.73
  A 4.82 0.94 -16.8 0 1 180.87 424.22
  L 166.86 377.81
  A 4.82 0.94 -16.8 0 1 171.20 375.52
  L 197.89 367.46
  A 0.20 0.20 0.0 0 1 198.14 367.59
  L 212.58 415.42
  Z"
/>
<path fill="#a498b7" d="
  M 571.39 442.49
  Q 571.68 442.30 571.28 442.99
  L 528.98 448.62
  Q 528.60 448.67 528.42 449.02
  L 528.31 449.26
  L 530.26 387.70
  Q 530.27 387.20 530.78 387.15
  L 573.50 383.38
  Q 573.96 383.34 573.94 383.81
  L 571.39 442.49
  Z"
/>
<path fill="#79583f" d="
  M 281.05 396.59
  L 282.73 402.15
  L 266.02 405.68
  L 266.21 400.99
  L 281.05 396.59
  Z"
/>
<path fill="#6a4537" d="
  M 282.73 402.15
  L 285.60 413.13
  Q 284.44 431.59 285.13 449.12
  Q 284.95 449.13 284.78 449.14
  L 266.05 451.04
  L 266.02 405.68
  L 282.73 402.15
  Z"
/>
<path fill="#a498b7" d="
  M 775.61 462.09
  L 738.89 452.80
  Q 738.78 453.27 738.73 452.66
  L 751.72 402.91
  A 1.04 1.04 0.0 0 1 753.00 402.18
  L 788.30 412.21
  Q 788.72 412.33 788.61 412.74
  L 775.61 462.09
  Z"
/>
<path fill="#79583f" d="
  M 285.60 413.13
  L 295.88 447.92
  L 285.13 449.12
  Q 284.44 431.59 285.60 413.13
  Z"
/>
<path fill="#292929" d="
  M 473.91 425.23
  L 482.47 426.06
  Q 482.94 426.68 482.92 427.06
  Q 481.59 451.98 482.05 476.93
  C 482.09 478.91 481.01 481.31 481.45 483.17
  L 473.98 482.84
  L 473.99 425.48
  Q 473.95 425.35 473.91 425.23
  Z"
/>
<path fill="#1f1f1f" d="
  M 473.99 425.48
  L 473.98 482.84
  L 440.00 481.94
  Q 440.00 457.56 440.00 433.14
  C 440.00 431.88 439.45 430.89 439.50 429.63
  Q 439.70 429.39 440.16 429.53
  L 473.99 425.48
  Z"
/>
<path fill="#292929" d="
  M 439.50 429.63
  C 439.45 430.89 440.00 431.88 440.00 433.14
  Q 440.00 457.56 440.00 481.94
  L 436.12 481.96
  L 346.77 486.76
  L 334.73 443.04
  L 439.50 429.63
  Z"
/>
<path fill="#333333" d="
  M 611.45 434.74
  L 700.54 440.44
  Q 698.76 442.47 701.75 443.25
  Q 720.14 448.03 738.73 452.66
  Q 738.78 453.27 738.89 452.80
  L 732.09 478.57
  Q 731.96 479.08 732.29 479.49
  Q 736.88 485.27 743.47 489.87
  L 606.95 486.30
  L 555.26 484.91
  L 569.04 474.48
  A 2.01 1.98 -17.4 0 0 569.84 472.97
  L 571.28 442.99
  Q 571.68 442.30 571.39 442.49
  Q 571.60 442.55 571.74 442.61
  Q 572.04 442.73 572.36 442.69
  Q 590.31 440.14 608.26 437.53
  Q 611.43 437.07 611.45 434.74
  Z"
/>
<path fill="#cabfdc" d="
  M 571.28 442.99
  L 569.84 472.97
  A 2.01 1.98 -17.4 0 1 569.04 474.48
  L 555.26 484.91
  L 527.16 483.99
  L 528.31 449.26
  L 528.42 449.02
  Q 528.60 448.67 528.98 448.62
  L 571.28 442.99
  Z"
/>
<path fill="#292929" d="
  M 295.88 447.92
  L 307.81 488.81
  L 284.94 490.08
  L 284.78 449.14
  Q 284.95 449.13 285.13 449.12
  L 295.88 447.92
  Z"
/>
<path fill="#1f1f1f" d="
  M 284.78 449.14
  L 284.94 490.08
  L 266.10 491.40
  L 266.05 451.04
  L 284.78 449.14
  Z"
/>
<path fill="#cabfdc" d="
  M 738.89 452.80
  L 775.61 462.09
  L 768.13 490.65
  L 743.47 489.87
  Q 736.88 485.27 732.29 479.49
  Q 731.96 479.08 732.09 478.57
  L 738.89 452.80
  Z"
/>
<path fill="#6a4537" d="
  M 436.12 481.96
  Q 435.52 519.80 436.76 557.50
  L 331.07 552.06
  L 330.97 487.61
  L 346.77 486.76
  L 436.12 481.96
  Z"
/>
<path fill="#8e5c49" d="
  M 436.12 481.96
  L 440.00 481.94
  L 473.98 482.84
  L 481.45 483.17
  L 527.16 483.99
  L 555.26 484.91
  L 606.95 486.30
  Q 607.04 519.01 607.00 551.75
  Q 607.00 553.29 607.98 553.42
  L 571.04 554.27
  L 525.00 555.43
  L 475.24 556.67
  L 436.76 557.50
  Q 435.52 519.80 436.12 481.96
  Z"
/>
<path fill="#a27554" d="
  M 606.95 486.30
  L 743.47 489.87
  L 768.13 490.65
  L 804.49 491.76
  L 850.06 493.27
  L 850.04 546.98
  L 795.87 548.45
  L 764.04 549.23
  L 730.02 550.25
  L 694.15 551.22
  L 615.04 553.17
  L 607.98 553.42
  Q 607.00 553.29 607.00 551.75
  Q 607.04 519.01 606.95 486.30
  Z"
/>
<path fill="#79583f" d="
  M 330.97 487.61
  L 331.07 552.06
  L 266.32 548.64
  L 191.92 544.78
  L 191.92 495.46
  L 266.10 491.40
  L 284.94 490.08
  L 307.81 488.81
  L 330.97 487.61
  Z"
/>
<path fill="#8e5c49" d="
  M 850.06 493.27
  L 938.63 495.61
  A 1.41 1.41 0.0 0 1 940.00 497.02
  L 940.00 544.24
  Q 940.00 544.85 939.40 544.86
  L 850.04 546.98
  L 850.06 493.27
  Z"
/>
<path fill="#6a4537" d="
  M 191.92 495.46
  L 191.92 544.78
  L 145.01 542.32
  A 1.07 1.06 -88.6 0 1 144.00 541.25
  L 144.00 498.76
  A 0.72 0.72 0.0 0 1 144.68 498.04
  L 191.92 495.46
  Z"
/>
<path fill="#111115" d="
  M 266.32 548.64
  L 331.07 552.06
  L 436.76 557.50
  L 475.24 556.67
  L 474.99 614.90
  L 266.04 588.95
  L 266.32 548.64
  Z"
/>
<path fill="#1a191d" d="
  M 795.87 548.45
  L 795.96 593.96
  C 789.14 593.69 782.37 594.81 775.71 594.90
  Q 770.37 594.97 765.05 595.68
  Q 764.82 596.51 764.02 595.23
  L 764.04 549.23
  L 795.87 548.45
  Z"
/>
<path fill="#9a92a3" d="
  M 764.04 549.23
  L 764.02 595.23
  L 763.99 595.82
  L 730.07 597.92
  L 730.02 550.25
  L 764.04 549.23
  Z"
/>
<path fill="#2a3295" d="
  M 730.02 550.25
  L 730.07 597.92
  Q 730.07 597.86 730.06 597.79
  L 694.05 600.01
  L 694.15 551.22
  L 730.02 550.25
  Z"
/>
<path fill="#1a191d" d="
  M 694.15 551.22
  L 694.05 600.01
  Q 694.03 599.98 694.02 599.96
  C 687.78 601.34 679.68 601.08 675.35 601.42
  Q 645.20 603.75 615.01 605.31
  L 615.04 553.17
  L 694.15 551.22
  Z"
/>
<path fill="#2a3295" d="
  M 607.98 553.42
  L 615.04 553.17
  L 615.01 605.31
  Q 615.00 605.56 614.99 605.81
  L 571.02 608.26
  L 571.04 554.27
  L 607.98 553.42
  Z"
/>
<path fill="#9a92a3" d="
  M 571.04 554.27
  L 571.02 608.26
  Q 571.01 608.44 571.01 608.62
  L 525.00 611.04
  L 525.00 555.43
  L 571.04 554.27
  Z"
/>
<path fill="#1a191d" d="
  M 525.00 555.43
  L 525.00 611.04
  L 524.99 612.18
  C 517.05 611.64 510.01 612.68 502.54 612.98
  C 496.36 613.23 489.94 614.25 483.49 614.01
  C 480.53 613.90 478.22 615.36 474.99 614.90
  L 475.24 556.67
  L 525.00 555.43
  Z"
/>
<path fill="#1a191d" d="
  M 266.04 588.95
  L 474.99 614.90
  L 474.99 783.58
  L 470.93 784.90
  Q 469.97 785.22 470.22 786.20
  L 474.52 802.81
  L 266.98 725.47
  Q 266.01 725.10 266.01 724.07
  L 266.04 588.95
  Z"
/>
<path fill="#232126" d="
  M 795.96 593.96
  C 796.11 636.04 795.54 677.97 794.80 720.02
  L 788.97 719.84
  L 791.88 719.63
  A 0.62 0.62 0.0 0 0 792.40 718.76
  L 791.22 716.18
  A 0.77 0.77 0.0 0 0 790.09 715.86
  Q 788.34 717.03 788.17 719.27
  Q 788.21 719.43 788.24 719.59
  L 782.49 670.00
  Q 782.43 669.47 781.89 669.44
  L 748.59 667.19
  L 713.80 664.97
  A 0.88 0.88 0.0 0 0 712.86 665.93
  L 716.00 703.62
  L 693.93 706.92
  L 693.96 655.12
  Q 693.96 653.65 692.50 653.81
  L 615.32 662.32
  A 0.30 0.30 0.0 0 0 615.05 662.62
  L 615.09 719.01
  L 605.00 720.79
  L 593.66 679.54
  Q 593.52 679.03 593.01 679.18
  L 550.06 692.44
  L 504.64 706.23
  A 1.10 1.10 0.0 0 0 503.90 707.57
  L 519.63 767.30
  Q 520.07 767.58 519.32 767.85
  Q 497.24 775.77 474.99 783.58
  L 474.99 614.90
  C 478.22 615.36 480.53 613.90 483.49 614.01
  C 489.94 614.25 496.36 613.23 502.54 612.98
  C 510.01 612.68 517.05 611.64 524.99 612.18
  L 525.00 671.14
  Q 525.00 672.27 526.12 672.15
  L 571.03 667.16
  L 613.78 662.54
  Q 614.99 662.41 614.99 661.19
  L 614.99 605.81
  Q 615.00 605.56 615.01 605.31
  Q 645.20 603.75 675.35 601.42
  C 679.68 601.08 687.78 601.34 694.02 599.96
  L 694.03 652.91
  Q 694.03 653.41 694.53 653.36
  L 730.19 649.71
  L 763.26 645.99
  A 0.83 0.82 86.9 0 0 763.99 645.17
  L 763.99 595.82
  L 764.02 595.23
  Q 764.82 596.51 765.05 595.68
  Q 770.37 594.97 775.71 594.90
  C 782.37 594.81 789.14 593.69 795.96 593.96
  Z"
/>
<path fill="#cccccc" d="
  M 763.99 595.82
  L 763.99 645.17
  A 0.83 0.82 86.9 0 1 763.26 645.99
  L 730.19 649.71
  L 730.06 597.79
  Q 730.07 597.86 730.07 597.92
  L 763.99 595.82
  Z"
/>
<path fill="#2e4da3" d="
  M 730.06 597.79
  L 730.19 649.71
  L 694.53 653.36
  Q 694.03 653.41 694.03 652.91
  L 694.02 599.96
  Q 694.03 599.98 694.05 600.01
  L 730.06 597.79
  Z"
/>
<path fill="#2e4da3" d="
  M 614.99 605.81
  L 614.99 661.19
  Q 614.99 662.41 613.78 662.54
  L 571.03 667.16
  L 571.01 608.62
  Q 571.01 608.44 571.02 608.26
  L 614.99 605.81
  Z"
/>
<path fill="#cccccc" d="
  M 571.01 608.62
  L 571.03 667.16
  L 526.12 672.15
  Q 525.00 672.27 525.00 671.14
  L 524.99 612.18
  L 525.00 611.04
  L 571.01 608.62
  Z"
/>
<path fill="#995b91" d="
  M 693.93 706.92
  L 615.09 719.01
  L 615.05 662.62
  A 0.30 0.30 0.0 0 1 615.32 662.32
  L 692.50 653.81
  Q 693.96 653.65 693.96 655.12
  L 693.93 706.92
  Z"
/>
<path fill="#a498b7" d="
  M 748.59 667.19
  L 754.19 718.25
  Q 754.24 718.73 754.72 718.74
  L 788.24 719.59
  Q 788.21 719.43 788.17 719.27
  Q 788.16 719.79 788.97 719.84
  L 794.80 720.02
  L 819.91 720.04
  Q 820.38 720.04 820.44 720.50
  L 826.65 768.86
  Q 826.79 769.94 825.71 769.96
  L 760.51 771.20
  Q 759.97 771.21 759.91 770.67
  L 757.28 746.83
  L 754.21 719.94
  Q 754.10 718.93 753.09 718.89
  L 730.01 717.92
  L 718.46 717.95
  Q 717.92 717.96 717.86 717.42
  C 717.51 714.00 717.62 706.14 716.00 703.62
  L 712.86 665.93
  A 0.88 0.88 0.0 0 1 713.80 664.97
  L 748.59 667.19
  Z"
/>
<path fill="#cabfdc" d="
  M 748.59 667.19
  L 781.89 669.44
  Q 782.43 669.47 782.49 670.00
  L 788.24 719.59
  L 754.72 718.74
  Q 754.24 718.73 754.19 718.25
  L 748.59 667.19
  Z"
/>
<path fill="#a498b7" d="
  M 605.00 720.79
  L 608.83 735.28
  Q 609.00 735.95 608.36 736.18
  Q 590.82 742.47 573.22 748.67
  Q 571.14 749.40 571.01 750.28
  Q 568.61 749.77 566.06 751.51
  L 550.06 692.44
  L 593.01 679.18
  Q 593.52 679.03 593.66 679.54
  L 605.00 720.79
  Z"
/>
<path fill="#cabfdc" d="
  M 550.06 692.44
  L 566.06 751.51
  L 519.63 767.30
  L 503.90 707.57
  A 1.10 1.10 0.0 0 1 504.64 706.23
  L 550.06 692.44
  Z"
/>
<path fill="#cabfdc" d="
  M 716.00 703.62
  C 717.62 706.14 717.51 714.00 717.86 717.42
  Q 717.92 717.96 718.46 717.95
  L 730.01 717.92
  L 730.03 752.60
  L 574.81 783.35
  L 571.14 770.51
  L 571.01 750.28
  Q 571.14 749.40 573.22 748.67
  Q 590.82 742.47 608.36 736.18
  Q 609.00 735.95 608.83 735.28
  L 605.00 720.79
  L 615.09 719.01
  L 693.93 706.92
  L 716.00 703.62
  Z"
/>
<path fill="#000000" d="
  M 788.97 719.84
  Q 788.16 719.79 788.17 719.27
  Q 788.34 717.03 790.09 715.86
  A 0.77 0.77 0.0 0 1 791.22 716.18
  L 792.40 718.76
  A 0.62 0.62 0.0 0 1 791.88 719.63
  L 788.97 719.84
  Z"
/>
<path fill="#232126" d="
  M 730.01 717.92
  L 753.09 718.89
  Q 754.10 718.93 754.21 719.94
  L 757.28 746.83
  L 730.03 752.60
  L 730.01 717.92
  Z"
/>
<path fill="#232126" d="
  M 571.01 750.28
  L 571.14 770.51
  L 566.06 751.51
  Q 568.61 749.77 571.01 750.28
  Z"
/>
<path fill="#a498b7" d="
  M 566.06 751.51
  L 571.14 770.51
  L 574.81 783.35
  L 581.91 810.02
  A 0.47 0.47 0.0 0 1 581.64 810.57
  L 487.32 849.10
  A 0.71 0.71 0.0 0 1 486.36 848.62
  L 474.52 802.81
  L 470.22 786.20
  Q 469.97 785.22 470.93 784.90
  L 474.99 783.58
  Q 497.24 775.77 519.32 767.85
  Q 520.07 767.58 519.63 767.30
  L 566.06 751.51
  Z"
/>
</svg>
