<?xml version="1.0" encoding="UTF-8" standalone="no"?>
<!DOCTYPE svg PUBLIC "-//W3C//DTD SVG 1.1//EN" "http://www.w3.org/Graphics/SVG/1.1/DTD/svg11.dtd">
<svg xmlns="http://www.w3.org/2000/svg" version="1.1" viewBox="0.00 0.00 1400.00 1000.00">
<g stroke-width="2.00" fill="none" stroke-linecap="butt">
<path stroke="#684a47" vector-effect="non-scaling-stroke" d="
  M 300.02 900.00
  L 399.96 900.00"
/>
<path stroke="#74544c" vector-effect="non-scaling-stroke" d="
  M 399.96 900.00
  L 599.96 900.00"
/>
<path stroke="#7b6456" vector-effect="non-scaling-stroke" d="
  M 599.96 900.00
  L 699.97 900.00"
/>
<path stroke="#797d85" vector-effect="non-scaling-stroke" d="
  M 699.97 900.00
  L 800.03 900.00"
/>
<path stroke="#757684" vector-effect="non-scaling-stroke" d="
  M 800.03 900.00
  L 900.03 900.00"
/>
<path stroke="#74544c" vector-effect="non-scaling-stroke" d="
  M 900.03 900.00
  L 999.94 900.00"
/>
<path stroke="#684a47" vector-effect="non-scaling-stroke" d="
  M 999.94 900.00
  L 1099.43 899.99
  A 0.56 0.56 0.0 0 0 1099.99 899.43
  L 1100.00 800.03"
/>
<path stroke="#757684" vector-effect="non-scaling-stroke" d="
  M 1100.00 800.03
  L 1100.00 700.04"
/>
<path stroke="#797d85" vector-effect="non-scaling-stroke" d="
  M 1100.00 700.04
  L 1100.00 599.98"
/>
<path stroke="#72717f" vector-effect="non-scaling-stroke" d="
  M 1100.00 599.98
  L 1100.00 500.13"
/>
<path stroke="#757684" vector-effect="non-scaling-stroke" d="
  M 1100.00 500.13
  L 1100.00 300.05"
/>
<path stroke="#797d85" vector-effect="non-scaling-stroke" d="
  M 1100.00 300.05
  L 1099.99 199.99"
/>
<path stroke="#191112" vector-effect="non-scaling-stroke" d="
  M 1099.99 199.99
  L 1100.00 101.99
  A 1.99 1.99 0.0 0 0 1098.01 100.00
  L 301.74 100.00
  Q 300.01 100.00 300.01 101.73
  L 300.00 700.00"
/>
<path stroke="#74544c" vector-effect="non-scaling-stroke" d="
  M 300.00 700.00
  L 300.00 800.02"
/>
<path stroke="#684a47" vector-effect="non-scaling-stroke" d="
  M 300.00 800.02
  L 300.02 900.00"
/>
<path stroke="#89868c" vector-effect="non-scaling-stroke" d="
  M 1099.99 199.99
  L 1000.62 199.99
  A 0.63 0.63 0.0 0 0 999.99 200.62
  L 999.99 300.04"
/>
<path stroke="#847f8b" vector-effect="non-scaling-stroke" d="
  M 999.99 300.04
  Q 999.75 299.96 999.48 300.00"
/>
<path stroke="#89868c" vector-effect="non-scaling-stroke" d="
  M 999.48 300.00
  L 899.89 300.00"
/>
<path stroke="#847f8b" vector-effect="non-scaling-stroke" d="
  M 899.89 300.00
  L 800.50 300.00"
/>
<path stroke="#2d1e1d" vector-effect="non-scaling-stroke" d="
  M 800.50 300.00
  Q 800.50 299.81 800.20 299.73
  Q 800.01 299.68 800.01 299.48
  L 800.00 200.53
  Q 800.00 200.00 799.47 200.00
  L 500.50 200.00
  Q 500.00 200.00 500.00 200.50
  L 500.00 298.75
  A 1.25 1.25 0.0 0 1 498.75 300.00
  L 400.98 300.00
  A 0.98 0.98 0.0 0 0 400.00 300.98
  L 400.02 500.00"
/>
<path stroke="#878080" vector-effect="non-scaling-stroke" d="
  M 400.02 500.00
  L 399.99 599.89"
/>
<path stroke="#948d8c" vector-effect="non-scaling-stroke" d="
  M 399.99 599.89
  L 399.94 699.76
  Q 399.94 699.91 399.84 700.02
  Q 399.77 700.11 399.74 700.26"
/>
<path stroke="#835d53" vector-effect="non-scaling-stroke" d="
  M 399.74 700.26
  L 300.00 700.00"
/>
<path stroke="#89838f" vector-effect="non-scaling-stroke" d="
  M 800.50 300.00
  Q 799.78 300.47 799.98 300.12"
/>
<path stroke="#2d1e1d" vector-effect="non-scaling-stroke" d="
  M 799.98 300.12
  Q 763.52 299.86 727.00 300.07
  Q 724.51 300.08 722.14 297.61
  Q 721.78 297.24 721.28 297.15
  C 718.55 296.66 716.21 295.75 713.46 296.19
  Q 707.13 297.19 701.45 300.08
  A 1.46 1.44 2.3 0 0 700.89 300.59
  Q 697.83 305.47 698.89 311.06
  Q 698.99 311.63 698.67 312.10
  Q 696.61 315.19 697.81 318.75
  Q 697.97 319.22 698.36 319.54
  Q 700.32 321.15 700.30 323.56
  Q 700.05 361.04 700.00 398.51
  Q 699.99 398.84 700.28 398.99
  Q 700.64 399.18 700.49 400.00"
/>
<path stroke="#8e8a90" vector-effect="non-scaling-stroke" d="
  M 700.49 400.00
  Q 700.13 399.98 699.98 400.11"
/>
<path stroke="#2d1e1d" vector-effect="non-scaling-stroke" d="
  M 699.98 400.11
  L 600.57 400.06
  Q 600.07 400.06 600.07 400.56
  L 599.89 500.02"
/>
<path stroke="#2f535e" vector-effect="non-scaling-stroke" d="
  M 599.89 500.02
  L 501.17 500.06
  Q 500.88 500.06 500.64 500.20
  Q 500.48 500.29 500.26 500.30"
/>
<path stroke="#8c8483" vector-effect="non-scaling-stroke" d="
  M 500.26 500.30
  L 400.02 500.00"
/>
<path stroke="#e5ebfe" vector-effect="non-scaling-stroke" d="
  M 1100.00 300.05
  L 999.99 300.04"
/>
<path stroke="#847f8b" vector-effect="non-scaling-stroke" d="
  M 799.98 300.12
  L 799.94 399.56
  Q 799.94 399.67 799.86 399.74
  Q 799.78 399.83 799.75 400.00"
/>
<path stroke="#89868c" vector-effect="non-scaling-stroke" d="
  M 799.75 400.00
  L 700.49 400.00"
/>
<path stroke="#e5ebfe" vector-effect="non-scaling-stroke" d="
  M 899.89 300.00
  L 899.95 399.70"
/>
<path stroke="#dddff8" vector-effect="non-scaling-stroke" d="
  M 899.95 399.70
  L 800.03 400.03"
/>
<path stroke="#e5ebfe" vector-effect="non-scaling-stroke" d="
  M 800.03 400.03
  Q 800.32 400.46 799.75 400.00"
/>
<path stroke="#e5ebfe" vector-effect="non-scaling-stroke" d="
  M 999.48 300.00
  C 999.79 300.69 1000.00 300.91 1000.00 301.71
  Q 1000.00 350.56 1000.00 399.41
  Q 1000.00 399.67 999.74 399.75
  Q 999.49 399.82 999.50 399.98"
/>
<path stroke="#e2e6f9" vector-effect="non-scaling-stroke" d="
  M 999.50 399.98
  L 900.25 399.97
  Q 900.11 399.97 900.00 399.90
  Q 899.53 399.57 899.95 399.70"
/>
<path stroke="#dddff8" vector-effect="non-scaling-stroke" d="
  M 1100.00 500.13
  L 1092.70 499.68
  Q 1092.19 499.65 1091.85 499.26
  Q 1088.78 495.65 1084.11 497.18
  Q 1083.61 497.34 1083.10 497.18
  Q 1079.75 496.08 1076.78 497.84
  A 1.33 1.33 0.0 0 0 1076.23 498.51
  L 1075.95 499.27
  Q 1075.75 499.79 1075.19 499.80
  Q 1039.22 500.17 1003.25 499.95
  Q 1001.94 499.94 1000.00 500.48"
/>
<path stroke="#757684" vector-effect="non-scaling-stroke" d="
  M 1000.00 500.48
  L 999.96 500.00"
/>
<path stroke="#dddff8" vector-effect="non-scaling-stroke" d="
  M 999.96 500.00
  L 1000.00 400.91
  Q 1000.00 400.52 999.74 400.23
  L 999.50 399.98"
/>
<path stroke="#89868c" vector-effect="non-scaling-stroke" d="
  M 699.98 400.11
  L 699.94 499.76
  Q 699.94 499.92 699.84 500.03
  Q 699.75 500.13 699.70 500.26"
/>
<path stroke="#8a6d5d" vector-effect="non-scaling-stroke" d="
  M 699.70 500.26
  L 600.01 500.00"
/>
<path stroke="#2a505a" vector-effect="non-scaling-stroke" d="
  M 600.01 500.00
  Q 599.95 500.01 599.89 500.02"
/>
<path stroke="#72717f" vector-effect="non-scaling-stroke" d="
  M 999.96 500.00
  L 899.96 500.00"
/>
<path stroke="#787789" vector-effect="non-scaling-stroke" d="
  M 899.96 500.00
  L 800.08 500.00"
/>
<path stroke="#e2e6f9" vector-effect="non-scaling-stroke" d="
  M 800.08 500.00
  L 800.03 400.03"
/>
<path stroke="#7f848f" vector-effect="non-scaling-stroke" d="
  M 800.08 500.00
  L 800.01 600.11"
/>
<path stroke="#e5ebfe" vector-effect="non-scaling-stroke" d="
  M 800.01 600.11
  L 700.00 600.07"
/>
<path stroke="#ede4d6" vector-effect="non-scaling-stroke" d="
  M 700.00 600.07
  Q 699.99 600.03 699.98 600.00"
/>
<path stroke="#ebd9d0" vector-effect="non-scaling-stroke" d="
  M 699.98 600.00
  L 699.94 500.70
  Q 699.94 500.57 699.85 500.48
  Q 699.76 500.38 699.70 500.26"
/>
<path stroke="#e2e6f9" vector-effect="non-scaling-stroke" d="
  M 1100.00 599.98
  L 999.99 599.95"
/>
<path stroke="#72717f" vector-effect="non-scaling-stroke" d="
  M 999.99 599.95
  L 1000.00 500.48"
/>
<path stroke="#89b6c1" vector-effect="non-scaling-stroke" d="
  M 500.26 500.30
  L 500.00 599.93"
/>
<path stroke="#f3f3f3" vector-effect="non-scaling-stroke" d="
  M 500.00 599.93
  L 399.99 599.89"
/>
<path stroke="#8ca29e" vector-effect="non-scaling-stroke" d="
  M 600.01 500.00
  L 599.99 600.00"
/>
<path stroke="#359ea3" vector-effect="non-scaling-stroke" d="
  M 599.99 600.00
  L 501.88 600.00
  Q 501.39 600.00 500.97 600.26
  Q 500.49 600.56 500.00 600.50"
/>
<path stroke="#96c2cd" vector-effect="non-scaling-stroke" d="
  M 500.00 600.50
  L 500.00 599.93"
/>
<path stroke="#eecaa7" vector-effect="non-scaling-stroke" d="
  M 699.98 600.00
  L 599.99 600.00"
/>
<path stroke="#0f0f15" vector-effect="non-scaling-stroke" d="
  M 899.96 500.00
  Q 900.03 598.69 900.00 697.29
  C 900.00 698.37 899.49 698.98 899.23 699.99"
/>
<path stroke="#787789" vector-effect="non-scaling-stroke" d="
  M 899.23 699.99
  L 800.01 699.97"
/>
<path stroke="#7b7d8e" vector-effect="non-scaling-stroke" d="
  M 800.01 699.97
  L 800.01 600.11"
/>
<path stroke="#797d85" vector-effect="non-scaling-stroke" d="
  M 999.99 599.95
  L 999.94 699.76
  Q 999.94 699.91 999.84 700.03
  Q 999.75 700.13 999.70 700.26"
/>
<path stroke="#7b6456" vector-effect="non-scaling-stroke" d="
  M 999.70 700.26
  L 900.04 700.00"
/>
<path stroke="#72717f" vector-effect="non-scaling-stroke" d="
  M 900.04 700.00
  L 899.23 699.99"
/>
<path stroke="#9fdbd5" vector-effect="non-scaling-stroke" d="
  M 500.00 600.50
  L 500.00 700.00"
/>
<path stroke="#f6dfd0" vector-effect="non-scaling-stroke" d="
  M 500.00 700.00
  L 399.74 700.26"
/>
<path stroke="#e5ebfe" vector-effect="non-scaling-stroke" d="
  M 1100.00 700.04
  L 1001.14 700.00
  A 1.31 1.30 -64.3 0 0 1000.32 700.29
  L 1000.00 700.54"
/>
<path stroke="#ebd9d0" vector-effect="non-scaling-stroke" d="
  M 1000.00 700.54
  Q 999.77 700.47 999.70 700.26"
/>
<path stroke="#97c6ac" vector-effect="non-scaling-stroke" d="
  M 599.99 600.00
  L 599.94 699.89
  Q 599.94 699.94 599.96 699.97
  Q 599.97 699.98 599.98 700.00"
/>
<path stroke="#95bba5" vector-effect="non-scaling-stroke" d="
  M 599.98 700.00
  L 500.00 700.00"
/>
<path stroke="#e8ddd5" vector-effect="non-scaling-stroke" d="
  M 700.00 600.07
  L 700.00 699.92"
/>
<path stroke="#ede4d6" vector-effect="non-scaling-stroke" d="
  M 700.00 699.92
  L 699.99 799.98"
/>
<path stroke="#eecaa7" vector-effect="non-scaling-stroke" d="
  M 699.99 799.98
  Q 650.36 800.02 600.81 800.00
  Q 600.68 800.36 599.99 800.25"
/>
<path stroke="#e7bb9d" vector-effect="non-scaling-stroke" d="
  M 599.99 800.25
  L 599.99 799.75"
/>
<path stroke="#eecaa7" vector-effect="non-scaling-stroke" d="
  M 599.99 799.75
  L 599.98 700.00"
/>
<path stroke="#e5ebfe" vector-effect="non-scaling-stroke" d="
  M 800.01 699.97
  L 700.00 699.92"
/>
<path stroke="#e2e6f9" vector-effect="non-scaling-stroke" d="
  M 800.01 699.97
  L 800.30 800.03"
/>
<path stroke="#e5ebfe" vector-effect="non-scaling-stroke" d="
  M 800.30 800.03
  L 800.03 900.00"
/>
<path stroke="#ebd9d0" vector-effect="non-scaling-stroke" d="
  M 699.97 900.00
  L 699.99 799.98"
/>
<path stroke="#e5b096" vector-effect="non-scaling-stroke" d="
  M 399.74 700.26
  L 399.99 800.00"
/>
<path stroke="#d39688" vector-effect="non-scaling-stroke" d="
  M 399.99 800.00
  L 300.00 800.02"
/>
<path stroke="#e5b096" vector-effect="non-scaling-stroke" d="
  M 599.99 799.75
  L 399.99 800.00"
/>
<path stroke="#e3ccca" vector-effect="non-scaling-stroke" d="
  M 900.04 700.00
  L 900.02 799.95"
/>
<path stroke="#dcbdc0" vector-effect="non-scaling-stroke" d="
  M 900.02 799.95
  Q 900.01 799.96 900.01 799.97"
/>
<path stroke="#dddff8" vector-effect="non-scaling-stroke" d="
  M 900.01 799.97
  L 800.30 800.03"
/>
<path stroke="#e6d2cf" vector-effect="non-scaling-stroke" d="
  M 1000.00 700.54
  L 1000.00 800.01"
/>
<path stroke="#daa592" vector-effect="non-scaling-stroke" d="
  M 1000.00 800.01
  Q 999.98 800.01 999.95 800.00"
/>
<path stroke="#e5b096" vector-effect="non-scaling-stroke" d="
  M 999.95 800.00
  L 900.02 799.95"
/>
<path stroke="#d4b8c0" vector-effect="non-scaling-stroke" d="
  M 1100.00 800.03
  L 1000.00 800.01"
/>
<path stroke="#d39688" vector-effect="non-scaling-stroke" d="
  M 399.99 800.00
  L 399.96 900.00"
/>
<path stroke="#e5b096" vector-effect="non-scaling-stroke" d="
  M 599.99 800.25
  L 599.96 900.00"
/>
<path stroke="#dfc2c5" vector-effect="non-scaling-stroke" d="
  M 900.01 799.97
  L 900.03 900.00"
/>
<path stroke="#d39688" vector-effect="non-scaling-stroke" d="
  M 999.95 800.00
  L 999.94 900.00"
/>
</g>
<path fill="#09080b" d="
  M 300.11 0.00
  L 1099.90 0.00
  L 1099.96 99.23
  A 0.77 0.77 0.0 0 0 1100.73 100.00
  L 1199.50 100.00
  A 0.50 0.50 0.0 0 1 1200.00 100.50
  L 1200.00 899.50
  A 0.50 0.50 0.0 0 1 1199.50 900.00
  L 1100.50 900.00
  A 0.53 0.52 90.0 0 0 1099.98 900.53
  L 1099.88 1000.00
  L 300.09 1000.00
  L 300.02 900.00
  L 399.96 900.00
  L 599.96 900.00
  L 699.97 900.00
  L 800.03 900.00
  L 900.03 900.00
  L 999.94 900.00
  L 1099.43 899.99
  A 0.56 0.56 0.0 0 0 1099.99 899.43
  L 1100.00 800.03
  L 1100.00 700.04
  L 1100.00 599.98
  L 1100.00 500.13
  L 1100.00 300.05
  L 1099.99 199.99
  L 1100.00 101.99
  A 1.99 1.99 0.0 0 0 1098.01 100.00
  L 301.74 100.00
  Q 300.01 100.00 300.01 101.73
  L 300.00 700.00
  L 300.00 800.02
  L 300.02 900.00
  L 200.51 900.00
  A 0.51 0.51 0.0 0 1 200.00 899.49
  L 200.00 100.75
  A 0.75 0.75 0.0 0 1 200.75 100.00
  L 299.54 100.01
  Q 300.01 100.01 300.01 99.54
  L 300.11 0.00
  Z"
/>
<path fill="#281a19" d="
  M 1099.99 199.99
  L 1000.62 199.99
  A 0.63 0.63 0.0 0 0 999.99 200.62
  L 999.99 300.04
  Q 999.75 299.96 999.48 300.00
  L 899.89 300.00
  L 800.50 300.00
  Q 800.50 299.81 800.20 299.73
  Q 800.01 299.68 800.01 299.48
  L 800.00 200.53
  Q 800.00 200.00 799.47 200.00
  L 500.50 200.00
  Q 500.00 200.00 500.00 200.50
  L 500.00 298.75
  A 1.25 1.25 0.0 0 1 498.75 300.00
  L 400.98 300.00
  A 0.98 0.98 0.0 0 0 400.00 300.98
  L 400.02 500.00
  L 399.99 599.89
  L 399.94 699.76
  Q 399.94 699.91 399.84 700.02
  Q 399.77 700.11 399.74 700.26
  L 300.00 700.00
  L 300.01 101.73
  Q 300.01 100.00 301.74 100.00
  L 1098.01 100.00
  A 1.99 1.99 0.0 0 1 1100.00 101.99
  L 1099.99 199.99
  Z"
/>
<path fill="#322120" d="
  M 800.50 300.00
  Q 799.78 300.47 799.98 300.12
  Q 763.52 299.86 727.00 300.07
  Q 724.51 300.08 722.14 297.61
  Q 721.78 297.24 721.28 297.15
  C 718.55 296.66 716.21 295.75 713.46 296.19
  Q 707.13 297.19 701.45 300.08
  A 1.46 1.44 2.3 0 0 700.89 300.59
  Q 697.83 305.47 698.89 311.06
  Q 698.99 311.63 698.67 312.10
  Q 696.61 315.19 697.81 318.75
  Q 697.97 319.22 698.36 319.54
  Q 700.32 321.15 700.30 323.56
  Q 700.05 361.04 700.00 398.51
  Q 699.99 398.84 700.28 398.99
  Q 700.64 399.18 700.49 400.00
  Q 700.13 399.98 699.98 400.11
  L 600.57 400.06
  Q 600.07 400.06 600.07 400.56
  L 599.89 500.02
  L 501.17 500.06
  Q 500.88 500.06 500.64 500.20
  Q 500.48 500.29 500.26 500.30
  L 400.02 500.00
  L 400.00 300.98
  A 0.98 0.98 0.0 0 1 400.98 300.00
  L 498.75 300.00
  A 1.25 1.25 0.0 0 0 500.00 298.75
  L 500.00 200.50
  Q 500.00 200.00 500.50 200.00
  L 799.47 200.00
  Q 800.00 200.00 800.00 200.53
  L 800.01 299.48
  Q 800.01 299.68 800.20 299.73
  Q 800.50 299.81 800.50 300.00
  Z"
/>
<path fill="#e9f2ff" d="
  M 1099.99 199.99
  L 1100.00 300.05
  L 999.99 300.04
  L 999.99 200.62
  A 0.63 0.63 0.0 0 1 1000.62 199.99
  L 1099.99 199.99
  Z"
/>
<path fill="#281a19" d="
  M 799.98 300.12
  L 799.94 399.56
  Q 799.94 399.67 799.86 399.74
  Q 799.78 399.83 799.75 400.00
  L 700.49 400.00
  Q 700.64 399.18 700.28 398.99
  Q 699.99 398.84 700.00 398.51
  Q 700.05 361.04 700.30 323.56
  Q 700.32 321.15 698.36 319.54
  Q 697.97 319.22 697.81 318.75
  Q 696.61 315.19 698.67 312.10
  Q 698.99 311.63 698.89 311.06
  Q 697.83 305.47 700.89 300.59
  A 1.46 1.44 2.3 0 1 701.45 300.08
  Q 707.13 297.19 713.46 296.19
  C 716.21 295.75 718.55 296.66 721.28 297.15
  Q 721.78 297.24 722.14 297.61
  Q 724.51 300.08 727.00 300.07
  Q 763.52 299.86 799.98 300.12
  Z"
/>
<path fill="#e0e4fd" d="
  M 800.50 300.00
  L 899.89 300.00
  L 899.95 399.70
  L 800.03 400.03
  Q 800.32 400.46 799.75 400.00
  Q 799.78 399.83 799.86 399.74
  Q 799.94 399.67 799.94 399.56
  L 799.98 300.12
  Q 799.78 300.47 800.50 300.00
  Z"
/>
<path fill="#e9f2ff" d="
  M 899.89 300.00
  L 999.48 300.00
  C 999.79 300.69 1000.00 300.91 1000.00 301.71
  Q 1000.00 350.56 1000.00 399.41
  Q 1000.00 399.67 999.74 399.75
  Q 999.49 399.82 999.50 399.98
  L 900.25 399.97
  Q 900.11 399.97 900.00 399.90
  Q 899.53 399.57 899.95 399.70
  L 899.89 300.00
  Z"
/>
<path fill="#e0e4fd" d="
  M 999.48 300.00
  Q 999.75 299.96 999.99 300.04
  L 1100.00 300.05
  L 1100.00 500.13
  L 1092.70 499.68
  Q 1092.19 499.65 1091.85 499.26
  Q 1088.78 495.65 1084.11 497.18
  Q 1083.61 497.34 1083.10 497.18
  Q 1079.75 496.08 1076.78 497.84
  A 1.33 1.33 0.0 0 0 1076.23 498.51
  L 1075.95 499.27
  Q 1075.75 499.79 1075.19 499.80
  Q 1039.22 500.17 1003.25 499.95
  Q 1001.94 499.94 1000.00 500.48
  L 999.96 500.00
  L 1000.00 400.91
  Q 1000.00 400.52 999.74 400.23
  L 999.50 399.98
  Q 999.49 399.82 999.74 399.75
  Q 1000.00 399.67 1000.00 399.41
  Q 1000.00 350.56 1000.00 301.71
  C 1000.00 300.91 999.79 300.69 999.48 300.00
  Z"
/>
<path fill="#281a19" d="
  M 699.98 400.11
  L 699.94 499.76
  Q 699.94 499.92 699.84 500.03
  Q 699.75 500.13 699.70 500.26
  L 600.01 500.00
  Q 599.95 500.01 599.89 500.02
  L 600.07 400.56
  Q 600.07 400.06 600.57 400.06
  L 699.98 400.11
  Z"
/>
<path fill="#dad9f3" d="
  M 899.95 399.70
  Q 899.53 399.57 900.00 399.90
  Q 900.11 399.97 900.25 399.97
  L 999.50 399.98
  L 999.74 400.23
  Q 1000.00 400.52 1000.00 400.91
  L 999.96 500.00
  L 899.96 500.00
  L 800.08 500.00
  L 800.03 400.03
  L 899.95 399.70
  Z"
/>
<path fill="#e9f2ff" d="
  M 700.49 400.00
  L 799.75 400.00
  Q 800.32 400.46 800.03 400.03
  L 800.08 500.00
  L 800.01 600.11
  L 700.00 600.07
  Q 699.99 600.03 699.98 600.00
  L 699.94 500.70
  Q 699.94 500.57 699.85 500.48
  Q 699.76 500.38 699.70 500.26
  Q 699.75 500.13 699.84 500.03
  Q 699.94 499.92 699.94 499.76
  L 699.98 400.11
  Q 700.13 399.98 700.49 400.00
  Z"
/>
<path fill="#dad9f3" d="
  M 1100.00 500.13
  L 1100.00 599.98
  L 999.99 599.95
  L 1000.00 500.48
  Q 1001.94 499.94 1003.25 499.95
  Q 1039.22 500.17 1075.19 499.80
  Q 1075.75 499.79 1075.95 499.27
  L 1076.23 498.51
  A 1.33 1.33 0.0 0 1 1076.78 497.84
  Q 1079.75 496.08 1083.10 497.18
  Q 1083.61 497.34 1084.11 497.18
  Q 1088.78 495.65 1091.85 499.26
  Q 1092.19 499.65 1092.70 499.68
  L 1100.00 500.13
  Z"
/>
<path fill="#e6e6e6" d="
  M 400.02 500.00
  L 500.26 500.30
  L 500.00 599.93
  L 399.99 599.89
  L 400.02 500.00
  Z"
/>
<path fill="#2c859b" d="
  M 599.89 500.02
  Q 599.95 500.01 600.01 500.00
  L 599.99 600.00
  L 501.88 600.00
  Q 501.39 600.00 500.97 600.26
  Q 500.49 600.56 500.00 600.50
  L 500.00 599.93
  L 500.26 500.30
  Q 500.48 500.29 500.64 500.20
  Q 500.88 500.06 501.17 500.06
  L 599.89 500.02
  Z"
/>
<path fill="#ecbfa0" d="
  M 600.01 500.00
  L 699.70 500.26
  Q 699.76 500.38 699.85 500.48
  Q 699.94 500.57 699.94 500.70
  L 699.98 600.00
  L 599.99 600.00
  L 600.01 500.00
  Z"
/>
<path fill="#15151e" d="
  M 800.08 500.00
  L 899.96 500.00
  Q 900.03 598.69 900.00 697.29
  C 900.00 698.37 899.49 698.98 899.23 699.99
  L 800.01 699.97
  L 800.01 600.11
  L 800.08 500.00
  Z"
/>
<path fill="#09080b" d="
  M 899.96 500.00
  L 999.96 500.00
  L 1000.00 500.48
  L 999.99 599.95
  L 999.94 699.76
  Q 999.94 699.91 999.84 700.03
  Q 999.75 700.13 999.70 700.26
  L 900.04 700.00
  L 899.23 699.99
  C 899.49 698.98 900.00 698.37 900.00 697.29
  Q 900.03 598.69 899.96 500.00
  Z"
/>
<path fill="#ffffff" d="
  M 399.99 599.89
  L 500.00 599.93
  L 500.00 600.50
  L 500.00 700.00
  L 399.74 700.26
  Q 399.77 700.11 399.84 700.02
  Q 399.94 699.91 399.94 699.76
  L 399.99 599.89
  Z"
/>
<path fill="#e9f2ff" d="
  M 999.99 599.95
  L 1100.00 599.98
  L 1100.00 700.04
  L 1001.14 700.00
  A 1.31 1.30 -64.3 0 0 1000.32 700.29
  L 1000.00 700.54
  Q 999.77 700.47 999.70 700.26
  Q 999.75 700.13 999.84 700.03
  Q 999.94 699.91 999.94 699.76
  L 999.99 599.95
  Z"
/>
<path fill="#3eb7aa" d="
  M 599.99 600.00
  L 599.94 699.89
  Q 599.94 699.94 599.96 699.97
  Q 599.97 699.98 599.98 700.00
  L 500.00 700.00
  L 500.00 600.50
  Q 500.49 600.56 500.97 600.26
  Q 501.39 600.00 501.88 600.00
  L 599.99 600.00
  Z"
/>
<path fill="#f0d5ad" d="
  M 599.99 600.00
  L 699.98 600.00
  Q 699.99 600.03 700.00 600.07
  L 700.00 699.92
  L 699.99 799.98
  Q 650.36 800.02 600.81 800.00
  Q 600.68 800.36 599.99 800.25
  L 599.99 799.75
  L 599.98 700.00
  Q 599.97 699.98 599.96 699.97
  Q 599.94 699.94 599.94 699.89
  L 599.99 600.00
  Z"
/>
<path fill="#e0e4fd" d="
  M 800.01 600.11
  L 800.01 699.97
  L 700.00 699.92
  L 700.00 600.07
  L 800.01 600.11
  Z"
/>
<path fill="#e9f2ff" d="
  M 700.00 699.92
  L 800.01 699.97
  L 800.30 800.03
  L 800.03 900.00
  L 699.97 900.00
  L 699.99 799.98
  L 700.00 699.92
  Z"
/>
<path fill="#dea08c" d="
  M 300.00 700.00
  L 399.74 700.26
  L 399.99 800.00
  L 300.00 800.02
  L 300.00 700.00
  Z"
/>
<path fill="#ecbfa0" d="
  M 500.00 700.00
  L 599.98 700.00
  L 599.99 799.75
  L 399.99 800.00
  L 399.74 700.26
  L 500.00 700.00
  Z"
/>
<path fill="#dad9f3" d="
  M 800.01 699.97
  L 899.23 699.99
  L 900.04 700.00
  L 900.02 799.95
  Q 900.01 799.96 900.01 799.97
  L 800.30 800.03
  L 800.01 699.97
  Z"
/>
<path fill="#ecbfa0" d="
  M 900.04 700.00
  L 999.70 700.26
  Q 999.77 700.47 1000.00 700.54
  L 1000.00 800.01
  Q 999.98 800.01 999.95 800.00
  L 900.02 799.95
  L 900.04 700.00
  Z"
/>
<path fill="#e0e4fd" d="
  M 1100.00 700.04
  L 1100.00 800.03
  L 1000.00 800.01
  L 1000.00 700.54
  L 1000.32 700.29
  A 1.31 1.30 -64.3 0 1 1001.14 700.00
  L 1100.00 700.04
  Z"
/>
<path fill="#c78b83" d="
  M 399.99 800.00
  L 399.96 900.00
  L 300.02 900.00
  L 300.00 800.02
  L 399.99 800.00
  Z"
/>
<path fill="#dea08c" d="
  M 599.99 799.75
  L 599.99 800.25
  L 599.96 900.00
  L 399.96 900.00
  L 399.99 800.00
  L 599.99 799.75
  Z"
/>
<path fill="#ecbfa0" d="
  M 699.99 799.98
  L 699.97 900.00
  L 599.96 900.00
  L 599.99 800.25
  Q 600.68 800.36 600.81 800.00
  Q 650.36 800.02 699.99 799.98
  Z"
/>
<path fill="#e0e4fd" d="
  M 900.01 799.97
  L 900.03 900.00
  L 800.03 900.00
  L 800.30 800.03
  L 900.01 799.97
  Z"
/>
<path fill="#dea08c" d="
  M 900.02 799.95
  L 999.95 800.00
  L 999.94 900.00
  L 900.03 900.00
  L 900.01 799.97
  Q 900.01 799.96 900.02 799.95
  Z"
/>
<path fill="#c78b83" d="
  M 999.95 800.00
  Q 999.98 800.01 1000.00 800.01
  L 1100.00 800.03
  L 1099.99 899.43
  A 0.56 0.56 0.0 0 1 1099.43 899.99
  L 999.94 900.00
  L 999.95 800.00
  Z"
/>
</svg>
