<?xml version="1.0" encoding="UTF-8" standalone="no"?>
<!DOCTYPE svg PUBLIC "-//W3C//DTD SVG 1.1//EN" "http://www.w3.org/Graphics/SVG/1.1/DTD/svg11.dtd">
<svg xmlns="http://www.w3.org/2000/svg" version="1.1" viewBox="0.00 0.00 1400.00 1300.00">
<g stroke-width="2.00" fill="none" stroke-linecap="butt">
<path stroke="#4c3c3b" vector-effect="non-scaling-stroke" d="
  M 400.25 199.71
  Q 400.03 199.80 399.94 200.05"
/>
<path stroke="#322123" vector-effect="non-scaling-stroke" d="
  M 399.94 200.05
  L 300.71 200.04
  A 0.71 0.70 90.0 0 0 300.01 200.75
  L 300.00 299.91"
/>
<path stroke="#4c3c3b" vector-effect="non-scaling-stroke" d="
  M 300.00 299.91
  L 300.00 400.01"
/>
<path stroke="#423031" vector-effect="non-scaling-stroke" d="
  M 300.00 400.01
  L 200.53 400.00
  A 0.53 0.53 0.0 0 0 200.00 400.53
  L 200.02 600.08"
/>
<path stroke="#3d151a" vector-effect="non-scaling-stroke" d="
  M 200.02 600.08
  L 100.65 600.07
  Q 100.00 600.07 100.00 600.72
  L 100.00 799.00
  A 1.00 1.00 0.0 0 0 101.00 800.00
  L 200.00 800.00"
/>
<path stroke="#543124" vector-effect="non-scaling-stroke" d="
  M 200.00 800.00
  L 200.00 899.95"
/>
<path stroke="#5d452f" vector-effect="non-scaling-stroke" d="
  M 200.00 899.95
  L 200.01 999.43
  A 0.57 0.57 0.0 0 0 200.58 1000.00
  L 400.00 1000.00"
/>
<path stroke="#636363" vector-effect="non-scaling-stroke" d="
  M 400.00 1000.00
  L 400.00 1100.00"
/>
<path stroke="#4e565c" vector-effect="non-scaling-stroke" d="
  M 400.00 1100.00
  L 300.51 1100.00
  A 0.51 0.51 0.0 0 0 300.00 1100.51
  L 300.00 1199.50
  Q 300.00 1200.00 300.50 1200.00
  L 399.49 1200.00
  A 0.51 0.51 0.0 0 0 400.00 1199.49
  L 400.00 1100.00"
/>
<path stroke="#636363" vector-effect="non-scaling-stroke" d="
  M 400.00 1100.00
  L 499.44 1100.00
  A 0.56 0.56 0.0 0 0 500.00 1099.44
  L 500.00 900.01"
/>
<path stroke="#79695c" vector-effect="non-scaling-stroke" d="
  M 500.00 900.01
  L 700.01 900.00"
/>
<path stroke="#755e51" vector-effect="non-scaling-stroke" d="
  M 700.01 900.00
  L 900.00 900.00"
/>
<path stroke="#636363" vector-effect="non-scaling-stroke" d="
  M 900.00 900.00
  L 900.00 1100.08"
/>
<path stroke="#4e565c" vector-effect="non-scaling-stroke" d="
  M 900.00 1100.08
  L 900.01 1199.48
  A 0.52 0.51 90.0 0 0 900.52 1200.00
  L 999.49 1200.00
  Q 999.98 1200.00 999.98 1199.50
  L 999.99 1100.02"
/>
<path stroke="#636363" vector-effect="non-scaling-stroke" d="
  M 999.99 1100.02
  L 1000.00 1000.00"
/>
<path stroke="#5d452f" vector-effect="non-scaling-stroke" d="
  M 1000.00 1000.00
  L 1199.47 1000.00
  A 0.53 0.52 90.0 0 0 1199.99 999.47
  L 1200.00 899.92"
/>
<path stroke="#543124" vector-effect="non-scaling-stroke" d="
  M 1200.00 899.92
  L 1200.00 800.01"
/>
<path stroke="#3d151a" vector-effect="non-scaling-stroke" d="
  M 1200.00 800.01
  L 1299.24 800.01
  A 0.76 0.76 0.0 0 0 1300.00 799.25
  L 1300.00 601.24
  A 1.24 1.24 0.0 0 0 1298.76 600.00
  L 1200.00 600.00"
/>
<path stroke="#534946" vector-effect="non-scaling-stroke" d="
  M 1200.00 600.00
  L 1200.00 499.96"
/>
<path stroke="#4c3c3b" vector-effect="non-scaling-stroke" d="
  M 1200.00 499.96
  L 1200.00 399.97"
/>
<path stroke="#423031" vector-effect="non-scaling-stroke" d="
  M 1200.00 399.97
  L 1199.99 301.13
  A 1.13 1.12 -90.0 0 0 1198.87 300.00
  Q 1149.94 300.00 1100.87 300.00
  Q 1100.87 300.00 1100.37 300.22
  Q 1100.23 300.28 1100.00 300.25"
/>
<path stroke="#4c3c3b" vector-effect="non-scaling-stroke" d="
  M 1100.00 300.25
  Q 1100.08 299.82 1099.74 299.69"
/>
<path stroke="#423031" vector-effect="non-scaling-stroke" d="
  M 1099.74 299.69
  L 1099.99 101.14
  A 1.14 1.13 0.0 0 0 1098.85 100.01
  L 1000.03 100.00"
/>
<path stroke="#534946" vector-effect="non-scaling-stroke" d="
  M 1000.03 100.00
  L 899.98 100.00"
/>
<path stroke="#322123" vector-effect="non-scaling-stroke" d="
  M 899.98 100.00
  L 800.04 100.00"
/>
<path stroke="#423031" vector-effect="non-scaling-stroke" d="
  M 800.04 100.00
  L 599.96 100.00"
/>
<path stroke="#322123" vector-effect="non-scaling-stroke" d="
  M 599.96 100.00
  L 400.75 100.01
  A 0.75 0.74 -0.0 0 0 400.00 100.75
  L 400.00 199.26
  Q 400.00 199.40 400.12 199.48
  Q 400.22 199.55 400.25 199.71"
/>
<path stroke="#735154" vector-effect="non-scaling-stroke" d="
  M 599.96 100.00
  L 600.00 199.28
  Q 600.00 199.41 600.12 199.48
  Q 600.22 199.55 600.25 199.70"
/>
<path stroke="#856a68" vector-effect="non-scaling-stroke" d="
  M 600.25 199.70
  L 500.00 199.99"
/>
<path stroke="#7d5d5d" vector-effect="non-scaling-stroke" d="
  M 500.00 199.99
  L 401.11 199.94
  Q 400.87 199.94 400.67 199.81
  Q 400.50 199.71 400.25 199.71"
/>
<path stroke="#735154" vector-effect="non-scaling-stroke" d="
  M 800.04 100.00
  L 800.02 199.71"
/>
<path stroke="#8d6b6c" vector-effect="non-scaling-stroke" d="
  M 800.02 199.71
  Q 799.49 199.72 799.50 199.98"
/>
<path stroke="#957877" vector-effect="non-scaling-stroke" d="
  M 799.50 199.98
  L 600.74 199.94
  Q 600.58 199.94 600.47 199.84
  Q 600.37 199.75 600.25 199.70"
/>
<path stroke="#9f8480" vector-effect="non-scaling-stroke" d="
  M 500.00 199.99
  L 500.00 300.00"
/>
<path stroke="#7d5d5d" vector-effect="non-scaling-stroke" d="
  M 500.00 300.00
  L 500.00 399.96"
/>
<path stroke="#6c4d51" vector-effect="non-scaling-stroke" d="
  M 500.00 399.96
  Q 500.00 399.98 500.00 400.00"
/>
<path stroke="#8d6b6c" vector-effect="non-scaling-stroke" d="
  M 500.00 400.00
  L 300.00 400.01"
/>
<path stroke="#7d5d5d" vector-effect="non-scaling-stroke" d="
  M 300.00 299.91
  L 399.31 299.91
  Q 399.92 299.91 399.92 299.31
  L 399.94 200.05"
/>
<path stroke="#9f8480" vector-effect="non-scaling-stroke" d="
  M 799.50 199.98
  Q 800.00 200.15 800.00 200.50
  Q 800.00 250.11 800.00 299.49
  A 0.51 0.51 0.0 0 0 800.51 300.00
  L 899.49 300.00
  Q 899.99 300.00 899.99 300.50
  L 900.00 400.00"
/>
<path stroke="#9f8480" vector-effect="non-scaling-stroke" d="
  M 900.00 400.00
  L 800.00 400.00"
/>
<path stroke="#c49b8b" vector-effect="non-scaling-stroke" d="
  M 800.00 400.00
  L 700.01 400.00"
/>
<path stroke="#c8a696" vector-effect="non-scaling-stroke" d="
  M 700.01 400.00
  L 600.00 399.99"
/>
<path stroke="#745a5c" vector-effect="non-scaling-stroke" d="
  M 600.00 399.99
  Q 600.00 399.98 599.99 399.96"
/>
<path stroke="#856a68" vector-effect="non-scaling-stroke" d="
  M 599.99 399.96
  L 599.99 300.53
  A 0.53 0.52 90.0 0 0 599.47 300.00
  L 500.00 300.00"
/>
<path stroke="#8d6b6c" vector-effect="non-scaling-stroke" d="
  M 1100.00 300.25
  L 1100.00 399.99"
/>
<path stroke="#9f8480" vector-effect="non-scaling-stroke" d="
  M 1100.00 399.99
  L 900.00 400.00"
/>
<path stroke="#856a68" vector-effect="non-scaling-stroke" d="
  M 899.98 100.00
  L 900.00 199.99"
/>
<path stroke="#7d5d5d" vector-effect="non-scaling-stroke" d="
  M 900.00 199.99
  L 800.45 199.94
  Q 800.32 199.94 800.24 199.85
  Q 800.14 199.76 800.02 199.71"
/>
<path stroke="#966f67" vector-effect="non-scaling-stroke" d="
  M 600.00 399.99
  L 600.00 500.01"
/>
<path stroke="#424735" vector-effect="non-scaling-stroke" d="
  M 600.00 500.01
  L 500.00 500.02"
/>
<path stroke="#9d8d94" vector-effect="non-scaling-stroke" d="
  M 500.00 500.02
  Q 500.36 500.55 499.53 499.69"
/>
<path stroke="#624147" vector-effect="non-scaling-stroke" d="
  M 499.53 499.69
  L 499.74 499.52
  Q 500.00 499.32 500.00 498.99
  L 500.00 400.00"
/>
<path stroke="#523239" vector-effect="non-scaling-stroke" d="
  M 599.99 399.96
  L 500.00 399.96"
/>
<path stroke="#beacaf" vector-effect="non-scaling-stroke" d="
  M 499.53 499.69
  Q 499.49 499.81 499.45 499.93
  Q 499.43 500.00 499.36 500.00
  Q 449.93 500.00 400.50 500.00
  Q 400.00 500.00 400.00 500.50
  L 400.00 599.25
  A 0.75 0.75 0.0 0 1 399.25 600.00
  L 300.51 600.00
  Q 300.01 600.00 300.01 600.50
  L 300.01 699.92"
/>
<path stroke="#7e454b" vector-effect="non-scaling-stroke" d="
  M 300.01 699.92
  L 200.68 699.91
  Q 200.07 699.91 200.07 699.30
  L 200.02 600.08"
/>
<path stroke="#9f8480" vector-effect="non-scaling-stroke" d="
  M 1100.01 400.01
  L 1100.04 498.33
  Q 1100.04 499.88 1101.58 499.88
  L 1200.00 499.96"
/>
<path stroke="#905e5f" vector-effect="non-scaling-stroke" d="
  M 1200.00 600.00
  L 1100.00 600.00"
/>
<path stroke="#745a5c" vector-effect="non-scaling-stroke" d="
  M 1100.00 600.00
  L 1000.03 600.00"
/>
<path stroke="#c8a696" vector-effect="non-scaling-stroke" d="
  M 1000.03 600.00
  L 1000.01 500.51
  A 0.52 0.51 0.0 0 0 999.49 500.00
  L 900.76 500.00
  Q 900.59 500.00 900.49 499.86
  Q 900.41 499.75 900.26 499.70"
/>
<path stroke="#9f8480" vector-effect="non-scaling-stroke" d="
  M 900.26 499.70
  L 900.00 400.00"
/>
<path stroke="#e6b096" vector-effect="non-scaling-stroke" d="
  M 700.01 400.00
  Q 699.99 499.77 700.00 599.44
  Q 699.71 599.46 699.71 599.96"
/>
<path stroke="#eec6ac" vector-effect="non-scaling-stroke" d="
  M 699.71 599.96
  L 600.00 599.95"
/>
<path stroke="#979370" vector-effect="non-scaling-stroke" d="
  M 600.00 599.95
  L 600.00 500.01"
/>
<path stroke="#c1998b" vector-effect="non-scaling-stroke" d="
  M 900.26 499.70
  L 800.00 500.00"
/>
<path stroke="#bd8e80" vector-effect="non-scaling-stroke" d="
  M 800.00 400.00
  L 800.00 500.00"
/>
<path stroke="#e6b096" vector-effect="non-scaling-stroke" d="
  M 800.00 500.00
  L 800.01 600.00"
/>
<path stroke="#92645c" vector-effect="non-scaling-stroke" d="
  M 800.01 600.00
  Q 799.99 649.67 800.00 699.44
  Q 799.74 699.43 799.76 699.88"
/>
<path stroke="#e6b096" vector-effect="non-scaling-stroke" d="
  M 799.76 699.88
  Q 761.44 700.33 723.14 699.68
  C 718.72 699.60 710.67 700.07 704.33 699.29
  Q 703.35 699.18 702.24 699.51
  Q 700.28 700.09 700.00 699.30"
/>
<path stroke="#eabba1" vector-effect="non-scaling-stroke" d="
  M 700.00 699.30
  L 699.98 600.24
  Q 699.98 600.12 699.90 600.01
  Q 699.56 599.51 699.71 599.96"
/>
<path stroke="#8d6b6c" vector-effect="non-scaling-stroke" d="
  M 1200.00 399.97
  L 1100.01 400.01"
/>
<path stroke="#957877" vector-effect="non-scaling-stroke" d="
  M 1100.01 400.01
  Q 1100.00 400.00 1100.00 399.99"
/>
<path stroke="#957877" vector-effect="non-scaling-stroke" d="
  M 1000.03 100.00
  L 1000.00 199.43
  A 0.57 0.56 -90.0 0 1 999.44 200.00
  L 900.00 199.99"
/>
<path stroke="#8d6b6c" vector-effect="non-scaling-stroke" d="
  M 1099.74 299.69
  L 901.17 299.81
  A 1.17 1.17 0.0 0 1 900.00 298.64
  L 900.00 199.99"
/>
<path stroke="#9eb29d" vector-effect="non-scaling-stroke" d="
  M 500.00 500.02
  L 500.00 600.05"
/>
<path stroke="#b6c3af" vector-effect="non-scaling-stroke" d="
  M 500.00 600.05
  L 500.00 699.99"
/>
<path stroke="#f5e5da" vector-effect="non-scaling-stroke" d="
  M 500.00 699.99
  L 301.48 700.00
  Q 301.09 700.00 300.73 700.15
  Q 300.40 700.30 300.00 700.25"
/>
<path stroke="#b99198" vector-effect="non-scaling-stroke" d="
  M 300.00 700.25
  Q 299.94 699.54 300.01 699.92"
/>
<path stroke="#9a9e7b" vector-effect="non-scaling-stroke" d="
  M 600.00 599.95
  L 599.98 600.51"
/>
<path stroke="#5b7c50" vector-effect="non-scaling-stroke" d="
  M 599.98 600.51
  L 500.00 600.05"
/>
<path stroke="#90463e" vector-effect="non-scaling-stroke" d="
  M 300.00 800.03
  L 200.00 800.00"
/>
<path stroke="#90463e" vector-effect="non-scaling-stroke" d="
  M 1200.00 800.01
  L 1100.00 800.04"
/>
<path stroke="#ae685f" vector-effect="non-scaling-stroke" d="
  M 1100.00 800.04
  Q 1100.00 800.17 1100.00 800.29"
/>
<path stroke="#b2736a" vector-effect="non-scaling-stroke" d="
  M 1100.00 800.29
  L 1100.00 700.02"
/>
<path stroke="#5d2630" vector-effect="non-scaling-stroke" d="
  M 1100.00 600.00
  L 1100.00 700.02"
/>
<path stroke="#966f67" vector-effect="non-scaling-stroke" d="
  M 1100.00 700.02
  L 1000.06 700.00"
/>
<path stroke="#997a72" vector-effect="non-scaling-stroke" d="
  M 1000.06 700.00
  L 800.00 700.00"
/>
<path stroke="#966f67" vector-effect="non-scaling-stroke" d="
  M 800.00 700.00
  Q 799.74 699.29 799.76 699.88"
/>
<path stroke="#966f67" vector-effect="non-scaling-stroke" d="
  M 1000.03 600.00
  L 800.01 600.00"
/>
<path stroke="#eec6ac" vector-effect="non-scaling-stroke" d="
  M 700.00 699.30
  L 700.01 900.00"
/>
<path stroke="#dcccbf" vector-effect="non-scaling-stroke" d="
  M 500.00 900.01
  L 399.99 900.00"
/>
<path stroke="#eec6ac" vector-effect="non-scaling-stroke" d="
  M 399.99 900.00
  L 399.97 800.56
  Q 399.97 800.03 399.44 800.03
  L 300.00 800.03"
/>
<path stroke="#b57e75" vector-effect="non-scaling-stroke" d="
  M 300.00 800.03
  L 300.00 700.25"
/>
<path stroke="#b2af8c" vector-effect="non-scaling-stroke" d="
  M 500.00 699.99
  L 599.43 699.98
  Q 599.97 699.97 599.97 699.43
  L 599.98 600.51"
/>
<path stroke="#eec6ac" vector-effect="non-scaling-stroke" d="
  M 800.00 700.00
  Q 799.51 699.93 799.50 700.25
  Q 799.48 700.79 799.73 701.22
  Q 800.00 701.69 800.00 702.24
  L 800.00 799.49
  A 0.51 0.51 0.0 0 0 800.51 800.00
  L 1000.00 800.00"
/>
<path stroke="#e6b096" vector-effect="non-scaling-stroke" d="
  M 1000.00 800.00
  L 1000.02 899.99"
/>
<path stroke="#d2a37f" vector-effect="non-scaling-stroke" d="
  M 1000.02 899.99
  Q 1000.01 899.98 1000.00 899.97"
/>
<path stroke="#d8c1b4" vector-effect="non-scaling-stroke" d="
  M 1000.00 899.97
  L 900.00 900.00"
/>
<path stroke="#c98f75" vector-effect="non-scaling-stroke" d="
  M 300.00 800.03
  L 300.00 900.00"
/>
<path stroke="#b07653" vector-effect="non-scaling-stroke" d="
  M 300.00 900.00
  L 200.00 899.95"
/>
<path stroke="#d2a37f" vector-effect="non-scaling-stroke" d="
  M 399.99 900.00
  L 300.00 900.00"
/>
<path stroke="#b07653" vector-effect="non-scaling-stroke" d="
  M 1200.00 899.92
  L 1100.00 899.99"
/>
<path stroke="#c5846a" vector-effect="non-scaling-stroke" d="
  M 1100.00 800.04
  L 1100.00 899.99"
/>
<path stroke="#ce9874" vector-effect="non-scaling-stroke" d="
  M 1100.00 899.99
  L 1000.02 899.99"
/>
<path stroke="#e6b096" vector-effect="non-scaling-stroke" d="
  M 1100.00 800.29
  L 1000.03 799.98"
/>
<path stroke="#eec6ac" vector-effect="non-scaling-stroke" d="
  M 1000.06 700.00
  L 1000.03 799.98"
/>
<path stroke="#eabba1" vector-effect="non-scaling-stroke" d="
  M 1000.03 799.98
  Q 1000.02 799.99 1000.00 800.00"
/>
<path stroke="#c0a892" vector-effect="non-scaling-stroke" d="
  M 399.99 900.00
  L 400.00 1000.00"
/>
<path stroke="#c0a892" vector-effect="non-scaling-stroke" d="
  M 1000.00 1000.00
  L 1000.00 899.97"
/>
<path stroke="#b1b9bf" vector-effect="non-scaling-stroke" d="
  M 999.99 1100.02
  L 900.00 1100.08"
/>
</g>
<path fill="#000000" d="
  M 400.12 0.00
  L 1100.03 0.00
  L 1100.01 99.49
  A 0.51 0.51 0.0 0 0 1100.52 100.00
  L 1199.50 100.00
  Q 1200.00 100.00 1200.00 100.50
  L 1200.00 299.25
  A 0.75 0.75 0.0 0 0 1200.75 300.00
  L 1299.50 300.00
  A 0.50 0.50 0.0 0 1 1300.00 300.50
  L 1300.00 599.49
  A 0.52 0.52 0.0 0 0 1300.52 600.01
  L 1400.00 600.03
  L 1400.00 799.92
  L 1300.76 799.96
  A 0.77 0.76 90.0 0 0 1300.00 800.73
  L 1300.00 999.50
  A 0.50 0.50 0.0 0 1 1299.50 1000.00
  L 1200.50 1000.00
  A 0.50 0.50 0.0 0 0 1200.00 1000.50
  L 1200.00 1099.50
  A 0.50 0.50 0.0 0 1 1199.50 1100.00
  L 1100.51 1100.00
  A 0.51 0.51 0.0 0 0 1100.00 1100.51
  L 1099.99 1300.00
  L 900.06 1300.00
  L 900.01 1200.52
  Q 900.01 1200.00 899.49 1200.00
  L 800.75 1200.00
  A 0.75 0.75 0.0 0 1 800.00 1199.25
  L 800.00 1000.50
  A 0.50 0.50 0.0 0 0 799.50 1000.00
  L 600.50 1000.00
  A 0.50 0.50 0.0 0 0 600.00 1000.50
  L 600.00 1099.50
  A 0.50 0.50 0.0 0 1 599.50 1100.00
  L 500.50 1100.00
  A 0.50 0.50 0.0 0 0 500.00 1100.50
  L 500.00 1199.50
  A 0.50 0.50 0.0 0 1 499.50 1200.00
  L 400.50 1200.00
  A 0.52 0.52 0.0 0 0 399.98 1200.52
  L 399.93 1300.00
  L 200.02 1300.00
  L 200.02 1000.52
  Q 200.02 1000.00 199.49 1000.00
  L 100.75 1000.00
  A 0.75 0.75 0.0 0 1 100.00 999.25
  L 100.00 800.50
  A 0.52 0.52 0.0 0 0 99.48 799.98
  L 0.00 799.93
  L 0.00 600.08
  L 99.43 600.04
  A 0.57 0.57 0.0 0 0 100.00 599.47
  L 100.00 400.50
  A 0.50 0.50 0.0 0 1 100.50 400.00
  L 199.50 400.00
  A 0.50 0.50 0.0 0 0 200.00 399.50
  L 200.00 200.50
  A 0.50 0.50 0.0 0 1 200.50 200.00
  L 299.50 200.00
  A 0.50 0.50 0.0 0 0 300.00 199.50
  L 300.00 100.50
  A 0.50 0.50 0.0 0 1 300.50 100.00
  L 399.50 100.00
  A 0.53 0.52 -90.0 0 0 400.02 99.47
  L 400.12 0.00
  Z
  M 400.25 199.71
  Q 400.03 199.80 399.94 200.05
  L 300.71 200.04
  A 0.71 0.70 90.0 0 0 300.01 200.75
  L 300.00 299.91
  L 300.00 400.01
  L 200.53 400.00
  A 0.53 0.53 0.0 0 0 200.00 400.53
  L 200.02 600.08
  L 100.65 600.07
  Q 100.00 600.07 100.00 600.72
  L 100.00 799.00
  A 1.00 1.00 0.0 0 0 101.00 800.00
  L 200.00 800.00
  L 200.00 899.95
  L 200.01 999.43
  A 0.57 0.57 0.0 0 0 200.58 1000.00
  L 400.00 1000.00
  L 400.00 1100.00
  L 300.51 1100.00
  A 0.51 0.51 0.0 0 0 300.00 1100.51
  L 300.00 1199.50
  Q 300.00 1200.00 300.50 1200.00
  L 399.49 1200.00
  A 0.51 0.51 0.0 0 0 400.00 1199.49
  L 400.00 1100.00
  L 499.44 1100.00
  A 0.56 0.56 0.0 0 0 500.00 1099.44
  L 500.00 900.01
  L 700.01 900.00
  L 900.00 900.00
  L 900.00 1100.08
  L 900.01 1199.48
  A 0.52 0.51 90.0 0 0 900.52 1200.00
  L 999.49 1200.00
  Q 999.98 1200.00 999.98 1199.50
  L 999.99 1100.02
  L 1000.00 1000.00
  L 1199.47 1000.00
  A 0.53 0.52 90.0 0 0 1199.99 999.47
  L 1200.00 899.92
  L 1200.00 800.01
  L 1299.24 800.01
  A 0.76 0.76 0.0 0 0 1300.00 799.25
  L 1300.00 601.24
  A 1.24 1.24 0.0 0 0 1298.76 600.00
  L 1200.00 600.00
  L 1200.00 499.96
  L 1200.00 399.97
  L 1199.99 301.13
  A 1.13 1.12 -90.0 0 0 1198.87 300.00
  Q 1149.94 300.00 1100.87 300.00
  Q 1100.87 300.00 1100.37 300.22
  Q 1100.23 300.28 1100.00 300.25
  Q 1100.08 299.82 1099.74 299.69
  L 1099.99 101.14
  A 1.14 1.13 0.0 0 0 1098.85 100.01
  L 1000.03 100.00
  L 899.98 100.00
  L 800.04 100.00
  L 599.96 100.00
  L 400.75 100.01
  A 0.75 0.74 -0.0 0 0 400.00 100.75
  L 400.00 199.26
  Q 400.00 199.40 400.12 199.48
  Q 400.22 199.55 400.25 199.71
  Z"
/>
<path fill="#634245" d="
  M 599.96 100.00
  L 600.00 199.28
  Q 600.00 199.41 600.12 199.48
  Q 600.22 199.55 600.25 199.70
  L 500.00 199.99
  L 401.11 199.94
  Q 400.87 199.94 400.67 199.81
  Q 400.50 199.71 400.25 199.71
  Q 400.22 199.55 400.12 199.48
  Q 400.00 199.40 400.00 199.26
  L 400.00 100.75
  A 0.75 0.74 0.0 0 1 400.75 100.01
  L 599.96 100.00
  Z"
/>
<path fill="#835f62" d="
  M 599.96 100.00
  L 800.04 100.00
  L 800.02 199.71
  Q 799.49 199.72 799.50 199.98
  L 600.74 199.94
  Q 600.58 199.94 600.47 199.84
  Q 600.37 199.75 600.25 199.70
  Q 600.22 199.55 600.12 199.48
  Q 600.00 199.41 600.00 199.28
  L 599.96 100.00
  Z"
/>
<path fill="#634245" d="
  M 800.04 100.00
  L 899.98 100.00
  L 900.00 199.99
  L 800.45 199.94
  Q 800.32 199.94 800.24 199.85
  Q 800.14 199.76 800.02 199.71
  L 800.04 100.00
  Z"
/>
<path fill="#a6918b" d="
  M 899.98 100.00
  L 1000.03 100.00
  L 1000.00 199.43
  A 0.57 0.56 -90.0 0 1 999.44 200.00
  L 900.00 199.99
  L 899.98 100.00
  Z"
/>
<path fill="#835f62" d="
  M 1000.03 100.00
  L 1098.85 100.01
  A 1.14 1.13 -0.0 0 1 1099.99 101.14
  L 1099.74 299.69
  L 901.17 299.81
  A 1.17 1.17 0.0 0 1 900.00 298.64
  L 900.00 199.99
  L 999.44 200.00
  A 0.57 0.56 90.0 0 0 1000.00 199.43
  L 1000.03 100.00
  Z"
/>
<path fill="#977775" d="
  M 400.25 199.71
  Q 400.50 199.71 400.67 199.81
  Q 400.87 199.94 401.11 199.94
  L 500.00 199.99
  L 500.00 300.00
  L 500.00 399.96
  Q 500.00 399.98 500.00 400.00
  L 300.00 400.01
  L 300.00 299.91
  L 399.31 299.91
  Q 399.92 299.91 399.92 299.31
  L 399.94 200.05
  Q 400.03 199.80 400.25 199.71
  Z"
/>
<path fill="#a6918b" d="
  M 600.25 199.70
  Q 600.37 199.75 600.47 199.84
  Q 600.58 199.94 600.74 199.94
  L 799.50 199.98
  Q 800.00 200.15 800.00 200.50
  Q 800.00 250.11 800.00 299.49
  A 0.51 0.51 0.0 0 0 800.51 300.00
  L 899.49 300.00
  Q 899.99 300.00 899.99 300.50
  L 900.00 400.00
  L 800.00 400.00
  L 700.01 400.00
  L 600.00 399.99
  Q 600.00 399.98 599.99 399.96
  L 599.99 300.53
  A 0.53 0.52 90.0 0 0 599.47 300.00
  L 500.00 300.00
  L 500.00 199.99
  L 600.25 199.70
  Z"
/>
<path fill="#977775" d="
  M 800.02 199.71
  Q 800.14 199.76 800.24 199.85
  Q 800.32 199.94 800.45 199.94
  L 900.00 199.99
  L 900.00 298.64
  A 1.17 1.17 0.0 0 0 901.17 299.81
  L 1099.74 299.69
  Q 1100.08 299.82 1100.00 300.25
  L 1100.00 399.99
  L 900.00 400.00
  L 899.99 300.50
  Q 899.99 300.00 899.49 300.00
  L 800.51 300.00
  A 0.51 0.51 0.0 0 1 800.00 299.49
  Q 800.00 250.11 800.00 200.50
  Q 800.00 200.15 799.50 199.98
  Q 799.49 199.72 800.02 199.71
  Z"
/>
<path fill="#634245" d="
  M 399.94 200.05
  L 399.92 299.31
  Q 399.92 299.91 399.31 299.91
  L 300.00 299.91
  L 300.01 200.75
  A 0.71 0.70 90.0 0 1 300.71 200.04
  L 399.94 200.05
  Z"
/>
<path fill="#634245" d="
  M 500.00 300.00
  L 599.47 300.00
  A 0.53 0.52 -90.0 0 1 599.99 300.53
  L 599.99 399.96
  L 500.00 399.96
  L 500.00 300.00
  Z"
/>
<path fill="#835f62" d="
  M 1200.00 399.97
  L 1100.01 400.01
  Q 1100.00 400.00 1100.00 399.99
  L 1100.00 300.25
  Q 1100.23 300.28 1100.37 300.22
  Q 1100.87 300.00 1100.87 300.00
  Q 1149.94 300.00 1198.87 300.00
  A 1.13 1.12 90.0 0 1 1199.99 301.13
  L 1200.00 399.97
  Z"
/>
<path fill="#41222c" d="
  M 500.00 399.96
  L 599.99 399.96
  Q 600.00 399.98 600.00 399.99
  L 600.00 500.01
  L 500.00 500.02
  Q 500.36 500.55 499.53 499.69
  L 499.74 499.52
  Q 500.00 499.32 500.00 498.99
  L 500.00 400.00
  Q 500.00 399.98 500.00 399.96
  Z"
/>
<path fill="#eabba1" d="
  M 700.01 400.00
  Q 699.99 499.77 700.00 599.44
  Q 699.71 599.46 699.71 599.96
  L 600.00 599.95
  L 600.00 500.01
  L 600.00 399.99
  L 700.01 400.00
  Z"
/>
<path fill="#a6918b" d="
  M 1100.00 399.99
  Q 1100.00 400.00 1100.01 400.01
  L 1100.04 498.33
  Q 1100.04 499.88 1101.58 499.88
  L 1200.00 499.96
  L 1200.00 600.00
  L 1100.00 600.00
  L 1000.03 600.00
  L 1000.01 500.51
  A 0.52 0.51 0.0 0 0 999.49 500.00
  L 900.76 500.00
  Q 900.59 500.00 900.49 499.86
  Q 900.41 499.75 900.26 499.70
  L 900.00 400.00
  L 1100.00 399.99
  Z"
/>
<path fill="#977775" d="
  M 1200.00 399.97
  L 1200.00 499.96
  L 1101.58 499.88
  Q 1100.04 499.88 1100.04 498.33
  L 1100.01 400.01
  L 1200.00 399.97
  Z"
/>
<path fill="#835f62" d="
  M 300.00 400.01
  L 500.00 400.00
  L 500.00 498.99
  Q 500.00 499.32 499.74 499.52
  L 499.53 499.69
  Q 499.49 499.81 499.45 499.93
  Q 499.43 500.00 499.36 500.00
  Q 449.93 500.00 400.50 500.00
  Q 400.00 500.00 400.00 500.50
  L 400.00 599.25
  A 0.75 0.75 0.0 0 1 399.25 600.00
  L 300.51 600.00
  Q 300.01 600.00 300.01 600.50
  L 300.01 699.92
  L 200.68 699.91
  Q 200.07 699.91 200.07 699.30
  L 200.02 600.08
  L 200.00 400.53
  A 0.53 0.53 0.0 0 1 200.53 400.00
  L 300.00 400.01
  Z"
/>
<path fill="#e2a58b" d="
  M 700.01 400.00
  L 800.00 400.00
  L 800.00 500.00
  L 800.01 600.00
  Q 799.99 649.67 800.00 699.44
  Q 799.74 699.43 799.76 699.88
  Q 761.44 700.33 723.14 699.68
  C 718.72 699.60 710.67 700.07 704.33 699.29
  Q 703.35 699.18 702.24 699.51
  Q 700.28 700.09 700.00 699.30
  L 699.98 600.24
  Q 699.98 600.12 699.90 600.01
  Q 699.56 599.51 699.71 599.96
  Q 699.71 599.46 700.00 599.44
  Q 699.99 499.77 700.01 400.00
  Z"
/>
<path fill="#977775" d="
  M 800.00 400.00
  L 900.00 400.00
  L 900.26 499.70
  L 800.00 500.00
  L 800.00 400.00
  Z"
/>
<path fill="#f8f8fc" d="
  M 499.53 499.69
  Q 500.36 500.55 500.00 500.02
  L 500.00 600.05
  L 500.00 699.99
  L 301.48 700.00
  Q 301.09 700.00 300.73 700.15
  Q 300.40 700.30 300.00 700.25
  Q 299.94 699.54 300.01 699.92
  L 300.01 600.50
  Q 300.01 600.00 300.51 600.00
  L 399.25 600.00
  A 0.75 0.75 0.0 0 0 400.00 599.25
  L 400.00 500.50
  Q 400.00 500.00 400.50 500.00
  Q 449.93 500.00 499.36 500.00
  Q 499.43 500.00 499.45 499.93
  Q 499.49 499.81 499.53 499.69
  Z"
/>
<path fill="#eabba1" d="
  M 900.26 499.70
  Q 900.41 499.75 900.49 499.86
  Q 900.59 500.00 900.76 500.00
  L 999.49 500.00
  A 0.52 0.51 -0.0 0 1 1000.01 500.51
  L 1000.03 600.00
  L 800.01 600.00
  L 800.00 500.00
  L 900.26 499.70
  Z"
/>
<path fill="#436b3e" d="
  M 600.00 500.01
  L 600.00 599.95
  L 599.98 600.51
  L 500.00 600.05
  L 500.00 500.02
  L 600.00 500.01
  Z"
/>
<path fill="#f1d1b7" d="
  M 600.00 599.95
  L 699.71 599.96
  Q 699.56 599.51 699.90 600.01
  Q 699.98 600.12 699.98 600.24
  L 700.00 699.30
  L 700.01 900.00
  L 500.00 900.01
  L 399.99 900.00
  L 399.97 800.56
  Q 399.97 800.03 399.44 800.03
  L 300.00 800.03
  L 300.00 700.25
  Q 300.40 700.30 300.73 700.15
  Q 301.09 700.00 301.48 700.00
  L 500.00 699.99
  L 599.43 699.98
  Q 599.97 699.97 599.97 699.43
  L 599.98 600.51
  L 600.00 599.95
  Z"
/>
<path fill="#792a33" d="
  M 200.02 600.08
  L 200.07 699.30
  Q 200.07 699.91 200.68 699.91
  L 300.01 699.92
  Q 299.94 699.54 300.00 700.25
  L 300.00 800.03
  L 200.00 800.00
  L 101.00 800.00
  A 1.00 1.00 0.0 0 1 100.00 799.00
  L 100.00 600.72
  Q 100.00 600.07 100.65 600.07
  L 200.02 600.08
  Z"
/>
<path fill="#738d61" d="
  M 599.98 600.51
  L 599.97 699.43
  Q 599.97 699.97 599.43 699.98
  L 500.00 699.99
  L 500.00 600.05
  L 599.98 600.51
  Z"
/>
<path fill="#41222c" d="
  M 800.01 600.00
  L 1000.03 600.00
  L 1100.00 600.00
  L 1100.00 700.02
  L 1000.06 700.00
  L 800.00 700.00
  Q 799.74 699.29 799.76 699.88
  Q 799.74 699.43 800.00 699.44
  Q 799.99 649.67 800.01 600.00
  Z"
/>
<path fill="#792a33" d="
  M 1100.00 600.00
  L 1200.00 600.00
  L 1298.76 600.00
  A 1.24 1.24 0.0 0 1 1300.00 601.24
  L 1300.00 799.25
  A 0.76 0.76 0.0 0 1 1299.24 800.01
  L 1200.00 800.01
  L 1100.00 800.04
  Q 1100.00 800.17 1100.00 800.29
  L 1100.00 700.02
  L 1100.00 600.00
  Z"
/>
<path fill="#eabba1" d="
  M 700.00 699.30
  Q 700.28 700.09 702.24 699.51
  Q 703.35 699.18 704.33 699.29
  C 710.67 700.07 718.72 699.60 723.14 699.68
  Q 761.44 700.33 799.76 699.88
  Q 799.74 699.29 800.00 700.00
  Q 799.51 699.93 799.50 700.25
  Q 799.48 700.79 799.73 701.22
  Q 800.00 701.69 800.00 702.24
  L 800.00 799.49
  A 0.51 0.51 0.0 0 0 800.51 800.00
  L 1000.00 800.00
  L 1000.02 899.99
  Q 1000.01 899.98 1000.00 899.97
  L 900.00 900.00
  L 700.01 900.00
  L 700.00 699.30
  Z"
/>
<path fill="#f1d1b7" d="
  M 800.00 700.00
  L 1000.06 700.00
  L 1000.03 799.98
  Q 1000.02 799.99 1000.00 800.00
  L 800.51 800.00
  A 0.51 0.51 0.0 0 1 800.00 799.49
  L 800.00 702.24
  Q 800.00 701.69 799.73 701.22
  Q 799.48 700.79 799.50 700.25
  Q 799.51 699.93 800.00 700.00
  Z"
/>
<path fill="#eabba1" d="
  M 1000.06 700.00
  L 1100.00 700.02
  L 1100.00 800.29
  L 1000.03 799.98
  L 1000.06 700.00
  Z"
/>
<path fill="#a76248" d="
  M 300.00 800.03
  L 300.00 900.00
  L 200.00 899.95
  L 200.00 800.00
  L 300.00 800.03
  Z"
/>
<path fill="#e2a58b" d="
  M 1000.03 799.98
  L 1100.00 800.29
  Q 1100.00 800.17 1100.00 800.04
  L 1100.00 899.99
  L 1000.02 899.99
  L 1000.00 800.00
  Q 1000.02 799.99 1000.03 799.98
  Z"
/>
<path fill="#eabba1" d="
  M 399.99 900.00
  L 300.00 900.00
  L 300.00 800.03
  L 399.44 800.03
  Q 399.97 800.03 399.97 800.56
  L 399.99 900.00
  Z"
/>
<path fill="#a76248" d="
  M 1200.00 800.01
  L 1200.00 899.92
  L 1100.00 899.99
  L 1100.00 800.04
  L 1200.00 800.01
  Z"
/>
<path fill="#b98a5d" d="
  M 1200.00 899.92
  L 1199.99 999.47
  A 0.53 0.52 90.0 0 1 1199.47 1000.00
  L 1000.00 1000.00
  L 1000.00 899.97
  Q 1000.01 899.98 1000.02 899.99
  L 1100.00 899.99
  L 1200.00 899.92
  Z"
/>
<path fill="#b98a5d" d="
  M 200.00 899.95
  L 300.00 900.00
  L 399.99 900.00
  L 400.00 1000.00
  L 200.58 1000.00
  A 0.57 0.57 0.0 0 1 200.01 999.43
  L 200.00 899.95
  Z"
/>
<path fill="#c6c6c6" d="
  M 1000.00 899.97
  L 1000.00 1000.00
  L 999.99 1100.02
  L 900.00 1100.08
  L 900.00 900.00
  L 1000.00 899.97
  Z"
/>
<path fill="#c6c6c6" d="
  M 399.99 900.00
  L 500.00 900.01
  L 500.00 1099.44
  A 0.56 0.56 0.0 0 1 499.44 1100.00
  L 400.00 1100.00
  L 400.00 1000.00
  L 399.99 900.00
  Z"
/>
<path fill="#9cacb7" d="
  M 999.99 1100.02
  L 999.98 1199.50
  Q 999.98 1200.00 999.49 1200.00
  L 900.52 1200.00
  A 0.52 0.51 -90.0 0 1 900.01 1199.48
  L 900.00 1100.08
  L 999.99 1100.02
  Z"
/>
<path fill="#9cacb7" d="
  M 400.00 1100.00
  L 400.00 1199.49
  A 0.51 0.51 0.0 0 1 399.49 1200.00
  L 300.50 1200.00
  Q 300.00 1200.00 300.00 1199.50
  L 300.00 1100.51
  A 0.51 0.51 0.0 0 1 300.51 1100.00
  L 400.00 1100.00
  Z"
/>
</svg>
