<?xml version="1.0" encoding="UTF-8" standalone="no"?>
<!DOCTYPE svg PUBLIC "-//W3C//DTD SVG 1.1//EN" "http://www.w3.org/Graphics/SVG/1.1/DTD/svg11.dtd">
<svg xmlns="http://www.w3.org/2000/svg" version="1.1" viewBox="0.00 0.00 638.00 640.00">
<path fill="#ffffff" d="
  M 636.62 0.00
  L 638.00 0.00
  L 638.00 305.00
  Q 540.25 304.81 442.51 305.93
  C 392.56 306.50 342.55 305.95 292.59 306.10
  Q 292.00 306.10 292.00 305.51
  L 291.99 52.25
  A 1.37 1.37 0.0 0 1 293.15 50.90
  L 636.62 0.00
  Z"
/>
<path fill="#ffffff" d="
  M 0.00 307.57
  L 0.00 94.24
  L 259.43 55.88
  Q 261.00 55.64 261.00 57.23
  L 261.00 305.97
  Q 261.00 306.43 260.53 306.44
  L 0.00 307.57
  Z"
/>
<path fill="#ffffff" d="
  M 0.00 550.49
  L 0.00 335.04
  L 260.25 336.01
  A 0.75 0.75 0.0 0 1 261.00 336.76
  L 261.00 586.35
  A 0.66 0.66 0.0 0 1 260.25 587.00
  L 0.00 550.49
  Z"
/>
<path fill="#ffffff" d="
  M 638.00 337.68
  L 638.00 640.00
  L 635.81 640.00
  L 292.67 591.77
  A 0.79 0.77 -86.3 0 1 292.00 590.99
  L 292.00 336.76
  A 0.77 0.77 0.0 0 1 292.78 335.99
  L 638.00 337.68
  Z"
/>
</svg>
